G04 #@! TF.GenerationSoftware,KiCad,Pcbnew,(6.0.0-0)*
G04 #@! TF.CreationDate,2023-05-30T22:12:00-07:00*
G04 #@! TF.ProjectId,breakout,62726561-6b6f-4757-942e-6b696361645f,0.2.0*
G04 #@! TF.SameCoordinates,Original*
G04 #@! TF.FileFunction,Paste,Top*
G04 #@! TF.FilePolarity,Positive*
%FSLAX46Y46*%
G04 Gerber Fmt 4.6, Leading zero omitted, Abs format (unit mm)*
G04 Created by KiCad (PCBNEW (6.0.0-0)) date 2023-05-30 22:12:00*
%MOMM*%
%LPD*%
G01*
G04 APERTURE LIST*
G04 Aperture macros list*
%AMRoundRect*
0 Rectangle with rounded corners*
0 $1 Rounding radius*
0 $2 $3 $4 $5 $6 $7 $8 $9 X,Y pos of 4 corners*
0 Add a 4 corners polygon primitive as box body*
4,1,4,$2,$3,$4,$5,$6,$7,$8,$9,$2,$3,0*
0 Add four circle primitives for the rounded corners*
1,1,$1+$1,$2,$3*
1,1,$1+$1,$4,$5*
1,1,$1+$1,$6,$7*
1,1,$1+$1,$8,$9*
0 Add four rect primitives between the rounded corners*
20,1,$1+$1,$2,$3,$4,$5,0*
20,1,$1+$1,$4,$5,$6,$7,0*
20,1,$1+$1,$6,$7,$8,$9,0*
20,1,$1+$1,$8,$9,$2,$3,0*%
G04 Aperture macros list end*
%ADD10RoundRect,0.250000X0.250000X0.475000X-0.250000X0.475000X-0.250000X-0.475000X0.250000X-0.475000X0*%
%ADD11RoundRect,0.243750X-0.243750X-0.456250X0.243750X-0.456250X0.243750X0.456250X-0.243750X0.456250X0*%
%ADD12RoundRect,0.250000X0.262500X0.450000X-0.262500X0.450000X-0.262500X-0.450000X0.262500X-0.450000X0*%
%ADD13RoundRect,0.150000X-0.150000X0.512500X-0.150000X-0.512500X0.150000X-0.512500X0.150000X0.512500X0*%
%ADD14RoundRect,0.250000X-0.450000X0.262500X-0.450000X-0.262500X0.450000X-0.262500X0.450000X0.262500X0*%
%ADD15RoundRect,0.250000X-0.475000X0.250000X-0.475000X-0.250000X0.475000X-0.250000X0.475000X0.250000X0*%
%ADD16RoundRect,0.250000X-0.262500X-0.450000X0.262500X-0.450000X0.262500X0.450000X-0.262500X0.450000X0*%
%ADD17R,1.200000X2.400000*%
%ADD18RoundRect,0.250000X-0.250000X-0.475000X0.250000X-0.475000X0.250000X0.475000X-0.250000X0.475000X0*%
%ADD19RoundRect,0.250000X0.362500X1.425000X-0.362500X1.425000X-0.362500X-1.425000X0.362500X-1.425000X0*%
G04 APERTURE END LIST*
D10*
X171850000Y-113000000D03*
X169950000Y-113000000D03*
D11*
X150062500Y-118800000D03*
X151937500Y-118800000D03*
D12*
X166897500Y-99528333D03*
X165072500Y-99528333D03*
D13*
X171950000Y-96862500D03*
X171000000Y-96862500D03*
X170050000Y-96862500D03*
X170050000Y-99137500D03*
X171950000Y-99137500D03*
D14*
X155600000Y-110487500D03*
X155600000Y-112312500D03*
D13*
X171950000Y-101262500D03*
X171000000Y-101262500D03*
X170050000Y-101262500D03*
X170050000Y-103537500D03*
X171950000Y-103537500D03*
D15*
X150300000Y-110450000D03*
X150300000Y-112350000D03*
D16*
X169987500Y-107500000D03*
X171812500Y-107500000D03*
D17*
X156545400Y-104791200D03*
X149945400Y-104791200D03*
D15*
X152900000Y-112350000D03*
X152900000Y-110450000D03*
D10*
X166935000Y-102209999D03*
X165035000Y-102209999D03*
D16*
X165072500Y-107543331D03*
X166897500Y-107543331D03*
X165072500Y-96876667D03*
X166897500Y-96876667D03*
D18*
X169950000Y-110200000D03*
X171850000Y-110200000D03*
D12*
X166912500Y-113000000D03*
X165087500Y-113000000D03*
D19*
X156107900Y-98191200D03*
X150182900Y-98191200D03*
D12*
X166897500Y-104891665D03*
X165072500Y-104891665D03*
D16*
X165072500Y-110194997D03*
X166897500Y-110194997D03*
M02*
