M48
; DRILL file {KiCad (6.0.0-0)} date Tuesday, May 30, 2023 at 10:11:56 PM
; FORMAT={-:-/ absolute / inch / decimal}
; #@! TF.CreationDate,2023-05-30T22:11:56-07:00
; #@! TF.GenerationSoftware,Kicad,Pcbnew,(6.0.0-0)
; #@! TF.FileFunction,Plated,1,2,PTH
FMAT,2
INCH
; #@! TA.AperFunction,Plated,PTH,ViaDrill
T1C0.0130
; #@! TA.AperFunction,Plated,PTH,ComponentDrill
T2C0.0394
; #@! TA.AperFunction,Plated,PTH,ComponentDrill
T3C0.0433
%
G90
G05
T1
X5.775Y-3.575
X5.775Y-4.675
X6.2Y-3.7
X6.2756Y-3.9843
X6.2756Y-4.2756
X6.5Y-3.7402
X6.625Y-3.575
X6.625Y-4.675
X6.6339Y-3.8701
X6.7756Y-4.1457
X6.8268Y-3.9094
T2
X5.575Y-3.828
X5.575Y-3.928
X5.575Y-4.028
X5.575Y-4.128
X5.575Y-4.228
X5.575Y-4.328
X5.575Y-4.428
X5.7695Y-3.8288
X5.7695Y-3.9288
X5.7695Y-4.0288
X5.7695Y-4.1288
X5.7695Y-4.2288
X5.7695Y-4.3288
X5.7695Y-4.4288
X6.474Y-4.6242
X6.474Y-4.7242
T3
X6.2766Y-4.0567
X6.2766Y-4.1945
T0
M30
