G04 #@! TF.GenerationSoftware,KiCad,Pcbnew,(6.0.0-0)*
G04 #@! TF.CreationDate,2023-05-30T22:12:00-07:00*
G04 #@! TF.ProjectId,breakout,62726561-6b6f-4757-942e-6b696361645f,0.2.0*
G04 #@! TF.SameCoordinates,Original*
G04 #@! TF.FileFunction,Legend,Top*
G04 #@! TF.FilePolarity,Positive*
%FSLAX46Y46*%
G04 Gerber Fmt 4.6, Leading zero omitted, Abs format (unit mm)*
G04 Created by KiCad (PCBNEW (6.0.0-0)) date 2023-05-30 22:12:00*
%MOMM*%
%LPD*%
G01*
G04 APERTURE LIST*
%ADD10C,0.120000*%
%ADD11C,0.150000*%
%ADD12C,0.100000*%
%ADD13C,0.080000*%
G04 APERTURE END LIST*
D10*
X143300000Y-99657142D02*
X143385714Y-99685714D01*
X143414285Y-99714285D01*
X143442857Y-99771428D01*
X143442857Y-99857142D01*
X143414285Y-99914285D01*
X143385714Y-99942857D01*
X143328571Y-99971428D01*
X143100000Y-99971428D01*
X143100000Y-99371428D01*
X143300000Y-99371428D01*
X143357142Y-99400000D01*
X143385714Y-99428571D01*
X143414285Y-99485714D01*
X143414285Y-99542857D01*
X143385714Y-99600000D01*
X143357142Y-99628571D01*
X143300000Y-99657142D01*
X143100000Y-99657142D01*
X144042857Y-99914285D02*
X144014285Y-99942857D01*
X143928571Y-99971428D01*
X143871428Y-99971428D01*
X143785714Y-99942857D01*
X143728571Y-99885714D01*
X143700000Y-99828571D01*
X143671428Y-99714285D01*
X143671428Y-99628571D01*
X143700000Y-99514285D01*
X143728571Y-99457142D01*
X143785714Y-99400000D01*
X143871428Y-99371428D01*
X143928571Y-99371428D01*
X144014285Y-99400000D01*
X144042857Y-99428571D01*
X144585714Y-99971428D02*
X144300000Y-99971428D01*
X144300000Y-99371428D01*
X144785714Y-99971428D02*
X144785714Y-99371428D01*
X145128571Y-99971428D02*
X144871428Y-99628571D01*
X145128571Y-99371428D02*
X144785714Y-99714285D01*
X143385714Y-112171428D02*
X143585714Y-112771428D01*
X143785714Y-112171428D01*
X143985714Y-112771428D02*
X143985714Y-112371428D01*
X143985714Y-112171428D02*
X143957142Y-112200000D01*
X143985714Y-112228571D01*
X144014285Y-112200000D01*
X143985714Y-112171428D01*
X143985714Y-112228571D01*
X144271428Y-112371428D02*
X144271428Y-112771428D01*
X144271428Y-112428571D02*
X144300000Y-112400000D01*
X144357142Y-112371428D01*
X144442857Y-112371428D01*
X144500000Y-112400000D01*
X144528571Y-112457142D01*
X144528571Y-112771428D01*
X143542857Y-109600000D02*
X143485714Y-109571428D01*
X143400000Y-109571428D01*
X143314285Y-109600000D01*
X143257142Y-109657142D01*
X143228571Y-109714285D01*
X143200000Y-109828571D01*
X143200000Y-109914285D01*
X143228571Y-110028571D01*
X143257142Y-110085714D01*
X143314285Y-110142857D01*
X143400000Y-110171428D01*
X143457142Y-110171428D01*
X143542857Y-110142857D01*
X143571428Y-110114285D01*
X143571428Y-109914285D01*
X143457142Y-109914285D01*
X143828571Y-110171428D02*
X143828571Y-109571428D01*
X144171428Y-110171428D01*
X144171428Y-109571428D01*
X144457142Y-110171428D02*
X144457142Y-109571428D01*
X144600000Y-109571428D01*
X144685714Y-109600000D01*
X144742857Y-109657142D01*
X144771428Y-109714285D01*
X144800000Y-109828571D01*
X144800000Y-109914285D01*
X144771428Y-110028571D01*
X144742857Y-110085714D01*
X144685714Y-110142857D01*
X144600000Y-110171428D01*
X144457142Y-110171428D01*
X143442857Y-104600000D02*
X143385714Y-104571428D01*
X143300000Y-104571428D01*
X143214285Y-104600000D01*
X143157142Y-104657142D01*
X143128571Y-104714285D01*
X143100000Y-104828571D01*
X143100000Y-104914285D01*
X143128571Y-105028571D01*
X143157142Y-105085714D01*
X143214285Y-105142857D01*
X143300000Y-105171428D01*
X143357142Y-105171428D01*
X143442857Y-105142857D01*
X143471428Y-105114285D01*
X143471428Y-104914285D01*
X143357142Y-104914285D01*
X143700000Y-105000000D02*
X143985714Y-105000000D01*
X143642857Y-105171428D02*
X143842857Y-104571428D01*
X144042857Y-105171428D01*
X144242857Y-105171428D02*
X144242857Y-104571428D01*
X144528571Y-105171428D02*
X144528571Y-104571428D01*
X144871428Y-105171428D01*
X144871428Y-104571428D01*
X161435142Y-119700000D02*
X161378000Y-119671428D01*
X161292285Y-119671428D01*
X161206571Y-119700000D01*
X161149428Y-119757142D01*
X161120857Y-119814285D01*
X161092285Y-119928571D01*
X161092285Y-120014285D01*
X161120857Y-120128571D01*
X161149428Y-120185714D01*
X161206571Y-120242857D01*
X161292285Y-120271428D01*
X161349428Y-120271428D01*
X161435142Y-120242857D01*
X161463714Y-120214285D01*
X161463714Y-120014285D01*
X161349428Y-120014285D01*
X161720857Y-120271428D02*
X161720857Y-119671428D01*
X162063714Y-120271428D01*
X162063714Y-119671428D01*
X162349428Y-120271428D02*
X162349428Y-119671428D01*
X162492285Y-119671428D01*
X162578000Y-119700000D01*
X162635142Y-119757142D01*
X162663714Y-119814285D01*
X162692285Y-119928571D01*
X162692285Y-120014285D01*
X162663714Y-120128571D01*
X162635142Y-120185714D01*
X162578000Y-120242857D01*
X162492285Y-120271428D01*
X162349428Y-120271428D01*
X158335857Y-101642857D02*
X158793000Y-101642857D01*
X158564428Y-101871428D02*
X158564428Y-101414285D01*
X143385714Y-102571428D02*
X143385714Y-101971428D01*
X143528571Y-101971428D01*
X143614285Y-102000000D01*
X143671428Y-102057142D01*
X143700000Y-102114285D01*
X143728571Y-102228571D01*
X143728571Y-102314285D01*
X143700000Y-102428571D01*
X143671428Y-102485714D01*
X143614285Y-102542857D01*
X143528571Y-102571428D01*
X143385714Y-102571428D01*
X143985714Y-102571428D02*
X143985714Y-101971428D01*
X144271428Y-102571428D02*
X144271428Y-101971428D01*
X144614285Y-102571428D01*
X144614285Y-101971428D01*
X161335142Y-117171428D02*
X161449428Y-117171428D01*
X161506571Y-117200000D01*
X161563714Y-117257142D01*
X161592285Y-117371428D01*
X161592285Y-117571428D01*
X161563714Y-117685714D01*
X161506571Y-117742857D01*
X161449428Y-117771428D01*
X161335142Y-117771428D01*
X161278000Y-117742857D01*
X161220857Y-117685714D01*
X161192285Y-117571428D01*
X161192285Y-117371428D01*
X161220857Y-117257142D01*
X161278000Y-117200000D01*
X161335142Y-117171428D01*
X161849428Y-117171428D02*
X161849428Y-117657142D01*
X161878000Y-117714285D01*
X161906571Y-117742857D01*
X161963714Y-117771428D01*
X162078000Y-117771428D01*
X162135142Y-117742857D01*
X162163714Y-117714285D01*
X162192285Y-117657142D01*
X162192285Y-117171428D01*
X162392285Y-117171428D02*
X162735142Y-117171428D01*
X162563714Y-117771428D02*
X162563714Y-117171428D01*
X158335857Y-107992857D02*
X158793000Y-107992857D01*
X143528571Y-107642857D02*
X143614285Y-107671428D01*
X143757142Y-107671428D01*
X143814285Y-107642857D01*
X143842857Y-107614285D01*
X143871428Y-107557142D01*
X143871428Y-107500000D01*
X143842857Y-107442857D01*
X143814285Y-107414285D01*
X143757142Y-107385714D01*
X143642857Y-107357142D01*
X143585714Y-107328571D01*
X143557142Y-107300000D01*
X143528571Y-107242857D01*
X143528571Y-107185714D01*
X143557142Y-107128571D01*
X143585714Y-107100000D01*
X143642857Y-107071428D01*
X143785714Y-107071428D01*
X143871428Y-107100000D01*
X144128571Y-107671428D02*
X144128571Y-107071428D01*
X144271428Y-107071428D01*
X144357142Y-107100000D01*
X144414285Y-107157142D01*
X144442857Y-107214285D01*
X144471428Y-107328571D01*
X144471428Y-107414285D01*
X144442857Y-107528571D01*
X144414285Y-107585714D01*
X144357142Y-107642857D01*
X144271428Y-107671428D01*
X144128571Y-107671428D01*
X143585714Y-97571428D02*
X143300000Y-97571428D01*
X143300000Y-96971428D01*
X144128571Y-97571428D02*
X143928571Y-97285714D01*
X143785714Y-97571428D02*
X143785714Y-96971428D01*
X144014285Y-96971428D01*
X144071428Y-97000000D01*
X144100000Y-97028571D01*
X144128571Y-97085714D01*
X144128571Y-97171428D01*
X144100000Y-97228571D01*
X144071428Y-97257142D01*
X144014285Y-97285714D01*
X143785714Y-97285714D01*
X144728571Y-97514285D02*
X144700000Y-97542857D01*
X144614285Y-97571428D01*
X144557142Y-97571428D01*
X144471428Y-97542857D01*
X144414285Y-97485714D01*
X144385714Y-97428571D01*
X144357142Y-97314285D01*
X144357142Y-97228571D01*
X144385714Y-97114285D01*
X144414285Y-97057142D01*
X144471428Y-97000000D01*
X144557142Y-96971428D01*
X144614285Y-96971428D01*
X144700000Y-97000000D01*
X144728571Y-97028571D01*
D11*
X137552380Y-107928571D02*
X137552380Y-108500000D01*
X137552380Y-108214285D02*
X136552380Y-108214285D01*
X136695238Y-108309523D01*
X136790476Y-108404761D01*
X136838095Y-108500000D01*
X137457142Y-107500000D02*
X137504761Y-107452380D01*
X137552380Y-107500000D01*
X137504761Y-107547619D01*
X137457142Y-107500000D01*
X137552380Y-107500000D01*
X136647619Y-107071428D02*
X136600000Y-107023809D01*
X136552380Y-106928571D01*
X136552380Y-106690476D01*
X136600000Y-106595238D01*
X136647619Y-106547619D01*
X136742857Y-106500000D01*
X136838095Y-106500000D01*
X136980952Y-106547619D01*
X137552380Y-107119047D01*
X137552380Y-106500000D01*
X136552380Y-106166666D02*
X136552380Y-105500000D01*
X137552380Y-105928571D01*
X136552380Y-104642857D02*
X136552380Y-105119047D01*
X137028571Y-105166666D01*
X136980952Y-105119047D01*
X136933333Y-105023809D01*
X136933333Y-104785714D01*
X136980952Y-104690476D01*
X137028571Y-104642857D01*
X137123809Y-104595238D01*
X137361904Y-104595238D01*
X137457142Y-104642857D01*
X137504761Y-104690476D01*
X137552380Y-104785714D01*
X137552380Y-105023809D01*
X137504761Y-105119047D01*
X137457142Y-105166666D01*
X136552380Y-103976190D02*
X136552380Y-103880952D01*
X136600000Y-103785714D01*
X136647619Y-103738095D01*
X136742857Y-103690476D01*
X136933333Y-103642857D01*
X137171428Y-103642857D01*
X137361904Y-103690476D01*
X137457142Y-103738095D01*
X137504761Y-103785714D01*
X137552380Y-103880952D01*
X137552380Y-103976190D01*
X137504761Y-104071428D01*
X137457142Y-104119047D01*
X137361904Y-104166666D01*
X137171428Y-104214285D01*
X136933333Y-104214285D01*
X136742857Y-104166666D01*
X136647619Y-104119047D01*
X136600000Y-104071428D01*
X136552380Y-103976190D01*
X137552380Y-102452380D02*
X136885714Y-102452380D01*
X136552380Y-102452380D02*
X136600000Y-102500000D01*
X136647619Y-102452380D01*
X136600000Y-102404761D01*
X136552380Y-102452380D01*
X136647619Y-102452380D01*
X136885714Y-101976190D02*
X137552380Y-101976190D01*
X136980952Y-101976190D02*
X136933333Y-101928571D01*
X136885714Y-101833333D01*
X136885714Y-101690476D01*
X136933333Y-101595238D01*
X137028571Y-101547619D01*
X137552380Y-101547619D01*
X136660000Y-121920000D02*
X136573580Y-121920000D01*
X136660000Y-89535000D02*
X136573580Y-89535000D01*
X137160000Y-121920000D02*
X137160000Y-109265476D01*
X137160000Y-100734524D02*
X137160000Y-89535000D01*
X137160000Y-121920000D02*
X137746421Y-120793496D01*
X137160000Y-121920000D02*
X136573579Y-120793496D01*
X137160000Y-89535000D02*
X136573579Y-90661504D01*
X137160000Y-89535000D02*
X137746421Y-90661504D01*
X149773095Y-128477380D02*
X149868333Y-128477380D01*
X149963571Y-128525000D01*
X150011190Y-128572619D01*
X150058809Y-128667857D01*
X150106428Y-128858333D01*
X150106428Y-129096428D01*
X150058809Y-129286904D01*
X150011190Y-129382142D01*
X149963571Y-129429761D01*
X149868333Y-129477380D01*
X149773095Y-129477380D01*
X149677857Y-129429761D01*
X149630238Y-129382142D01*
X149582619Y-129286904D01*
X149535000Y-129096428D01*
X149535000Y-128858333D01*
X149582619Y-128667857D01*
X149630238Y-128572619D01*
X149677857Y-128525000D01*
X149773095Y-128477380D01*
X150535000Y-129382142D02*
X150582619Y-129429761D01*
X150535000Y-129477380D01*
X150487380Y-129429761D01*
X150535000Y-129382142D01*
X150535000Y-129477380D01*
X151058809Y-129477380D02*
X151249285Y-129477380D01*
X151344523Y-129429761D01*
X151392142Y-129382142D01*
X151487380Y-129239285D01*
X151535000Y-129048809D01*
X151535000Y-128667857D01*
X151487380Y-128572619D01*
X151439761Y-128525000D01*
X151344523Y-128477380D01*
X151154047Y-128477380D01*
X151058809Y-128525000D01*
X151011190Y-128572619D01*
X150963571Y-128667857D01*
X150963571Y-128905952D01*
X151011190Y-129001190D01*
X151058809Y-129048809D01*
X151154047Y-129096428D01*
X151344523Y-129096428D01*
X151439761Y-129048809D01*
X151487380Y-129001190D01*
X151535000Y-128905952D01*
X152154047Y-128477380D02*
X152249285Y-128477380D01*
X152344523Y-128525000D01*
X152392142Y-128572619D01*
X152439761Y-128667857D01*
X152487380Y-128858333D01*
X152487380Y-129096428D01*
X152439761Y-129286904D01*
X152392142Y-129382142D01*
X152344523Y-129429761D01*
X152249285Y-129477380D01*
X152154047Y-129477380D01*
X152058809Y-129429761D01*
X152011190Y-129382142D01*
X151963571Y-129286904D01*
X151915952Y-129096428D01*
X151915952Y-128858333D01*
X151963571Y-128667857D01*
X152011190Y-128572619D01*
X152058809Y-128525000D01*
X152154047Y-128477380D01*
X153106428Y-128477380D02*
X153201666Y-128477380D01*
X153296904Y-128525000D01*
X153344523Y-128572619D01*
X153392142Y-128667857D01*
X153439761Y-128858333D01*
X153439761Y-129096428D01*
X153392142Y-129286904D01*
X153344523Y-129382142D01*
X153296904Y-129429761D01*
X153201666Y-129477380D01*
X153106428Y-129477380D01*
X153011190Y-129429761D01*
X152963571Y-129382142D01*
X152915952Y-129286904D01*
X152868333Y-129096428D01*
X152868333Y-128858333D01*
X152915952Y-128667857D01*
X152963571Y-128572619D01*
X153011190Y-128525000D01*
X153106428Y-128477380D01*
X154058809Y-128477380D02*
X154154047Y-128477380D01*
X154249285Y-128525000D01*
X154296904Y-128572619D01*
X154344523Y-128667857D01*
X154392142Y-128858333D01*
X154392142Y-129096428D01*
X154344523Y-129286904D01*
X154296904Y-129382142D01*
X154249285Y-129429761D01*
X154154047Y-129477380D01*
X154058809Y-129477380D01*
X153963571Y-129429761D01*
X153915952Y-129382142D01*
X153868333Y-129286904D01*
X153820714Y-129096428D01*
X153820714Y-128858333D01*
X153868333Y-128667857D01*
X153915952Y-128572619D01*
X153963571Y-128525000D01*
X154058809Y-128477380D01*
X155582619Y-129477380D02*
X155582619Y-128810714D01*
X155582619Y-128477380D02*
X155535000Y-128525000D01*
X155582619Y-128572619D01*
X155630238Y-128525000D01*
X155582619Y-128477380D01*
X155582619Y-128572619D01*
X156058809Y-128810714D02*
X156058809Y-129477380D01*
X156058809Y-128905952D02*
X156106428Y-128858333D01*
X156201666Y-128810714D01*
X156344523Y-128810714D01*
X156439761Y-128858333D01*
X156487380Y-128953571D01*
X156487380Y-129477380D01*
X141605000Y-129675000D02*
X141605000Y-129588580D01*
X164465000Y-129675000D02*
X164465000Y-129588580D01*
X141605000Y-130175000D02*
X148769524Y-130175000D01*
X157300476Y-130175000D02*
X164465000Y-130175000D01*
X141605000Y-130175000D02*
X142731504Y-130761421D01*
X141605000Y-130175000D02*
X142731504Y-129588579D01*
X164465000Y-130175000D02*
X163338496Y-129588579D01*
X164465000Y-130175000D02*
X163338496Y-130761421D01*
X154576828Y-126742380D02*
X154005400Y-126742380D01*
X154291114Y-126742380D02*
X154291114Y-125742380D01*
X154195876Y-125885238D01*
X154100638Y-125980476D01*
X154005400Y-126028095D01*
X155005400Y-126647142D02*
X155053019Y-126694761D01*
X155005400Y-126742380D01*
X154957780Y-126694761D01*
X155005400Y-126647142D01*
X155005400Y-126742380D01*
X155910161Y-126075714D02*
X155910161Y-126742380D01*
X155672066Y-125694761D02*
X155433971Y-126409047D01*
X156053019Y-126409047D01*
X156624447Y-125742380D02*
X156719685Y-125742380D01*
X156814923Y-125790000D01*
X156862542Y-125837619D01*
X156910161Y-125932857D01*
X156957780Y-126123333D01*
X156957780Y-126361428D01*
X156910161Y-126551904D01*
X156862542Y-126647142D01*
X156814923Y-126694761D01*
X156719685Y-126742380D01*
X156624447Y-126742380D01*
X156529209Y-126694761D01*
X156481590Y-126647142D01*
X156433971Y-126551904D01*
X156386352Y-126361428D01*
X156386352Y-126123333D01*
X156433971Y-125932857D01*
X156481590Y-125837619D01*
X156529209Y-125790000D01*
X156624447Y-125742380D01*
X157576828Y-125742380D02*
X157672066Y-125742380D01*
X157767304Y-125790000D01*
X157814923Y-125837619D01*
X157862542Y-125932857D01*
X157910161Y-126123333D01*
X157910161Y-126361428D01*
X157862542Y-126551904D01*
X157814923Y-126647142D01*
X157767304Y-126694761D01*
X157672066Y-126742380D01*
X157576828Y-126742380D01*
X157481590Y-126694761D01*
X157433971Y-126647142D01*
X157386352Y-126551904D01*
X157338733Y-126361428D01*
X157338733Y-126123333D01*
X157386352Y-125932857D01*
X157433971Y-125837619D01*
X157481590Y-125790000D01*
X157576828Y-125742380D01*
X158529209Y-125742380D02*
X158624447Y-125742380D01*
X158719685Y-125790000D01*
X158767304Y-125837619D01*
X158814923Y-125932857D01*
X158862542Y-126123333D01*
X158862542Y-126361428D01*
X158814923Y-126551904D01*
X158767304Y-126647142D01*
X158719685Y-126694761D01*
X158624447Y-126742380D01*
X158529209Y-126742380D01*
X158433971Y-126694761D01*
X158386352Y-126647142D01*
X158338733Y-126551904D01*
X158291114Y-126361428D01*
X158291114Y-126123333D01*
X158338733Y-125932857D01*
X158386352Y-125837619D01*
X158433971Y-125790000D01*
X158529209Y-125742380D01*
X160053019Y-126742380D02*
X160053019Y-126075714D01*
X160053019Y-125742380D02*
X160005400Y-125790000D01*
X160053019Y-125837619D01*
X160100638Y-125790000D01*
X160053019Y-125742380D01*
X160053019Y-125837619D01*
X160529209Y-126075714D02*
X160529209Y-126742380D01*
X160529209Y-126170952D02*
X160576828Y-126123333D01*
X160672066Y-126075714D01*
X160814923Y-126075714D01*
X160910161Y-126123333D01*
X160957780Y-126218571D01*
X160957780Y-126742380D01*
X139700000Y-125230000D02*
X139700000Y-125143580D01*
X175260000Y-125230000D02*
X175260000Y-125143580D01*
X139700000Y-125730000D02*
X153239924Y-125730000D01*
X161770876Y-125730000D02*
X175260000Y-125730000D01*
X139700000Y-125730000D02*
X140826504Y-126316421D01*
X139700000Y-125730000D02*
X140826504Y-125143579D01*
X175260000Y-125730000D02*
X174133496Y-125143579D01*
X175260000Y-125730000D02*
X174133496Y-126316421D01*
D12*
X169516666Y-114478571D02*
X169492857Y-114502380D01*
X169421428Y-114526190D01*
X169373809Y-114526190D01*
X169302380Y-114502380D01*
X169254761Y-114454761D01*
X169230952Y-114407142D01*
X169207142Y-114311904D01*
X169207142Y-114240476D01*
X169230952Y-114145238D01*
X169254761Y-114097619D01*
X169302380Y-114050000D01*
X169373809Y-114026190D01*
X169421428Y-114026190D01*
X169492857Y-114050000D01*
X169516666Y-114073809D01*
X169707142Y-114073809D02*
X169730952Y-114050000D01*
X169778571Y-114026190D01*
X169897619Y-114026190D01*
X169945238Y-114050000D01*
X169969047Y-114073809D01*
X169992857Y-114121428D01*
X169992857Y-114169047D01*
X169969047Y-114240476D01*
X169683333Y-114526190D01*
X169992857Y-114526190D01*
X171164285Y-114526190D02*
X170878571Y-114526190D01*
X171021428Y-114526190D02*
X171021428Y-114026190D01*
X170973809Y-114097619D01*
X170926190Y-114145238D01*
X170878571Y-114169047D01*
X171473809Y-114026190D02*
X171521428Y-114026190D01*
X171569047Y-114050000D01*
X171592857Y-114073809D01*
X171616666Y-114121428D01*
X171640476Y-114216666D01*
X171640476Y-114335714D01*
X171616666Y-114430952D01*
X171592857Y-114478571D01*
X171569047Y-114502380D01*
X171521428Y-114526190D01*
X171473809Y-114526190D01*
X171426190Y-114502380D01*
X171402380Y-114478571D01*
X171378571Y-114430952D01*
X171354761Y-114335714D01*
X171354761Y-114216666D01*
X171378571Y-114121428D01*
X171402380Y-114073809D01*
X171426190Y-114050000D01*
X171473809Y-114026190D01*
X172069047Y-114192857D02*
X172069047Y-114526190D01*
X171854761Y-114192857D02*
X171854761Y-114454761D01*
X171878571Y-114502380D01*
X171926190Y-114526190D01*
X171997619Y-114526190D01*
X172045238Y-114502380D01*
X172069047Y-114478571D01*
X172473809Y-114264285D02*
X172307142Y-114264285D01*
X172307142Y-114526190D02*
X172307142Y-114026190D01*
X172545238Y-114026190D01*
X149330952Y-120426190D02*
X149330952Y-119926190D01*
X149450000Y-119926190D01*
X149521428Y-119950000D01*
X149569047Y-119997619D01*
X149592857Y-120045238D01*
X149616666Y-120140476D01*
X149616666Y-120211904D01*
X149592857Y-120307142D01*
X149569047Y-120354761D01*
X149521428Y-120402380D01*
X149450000Y-120426190D01*
X149330952Y-120426190D01*
X150092857Y-120426190D02*
X149807142Y-120426190D01*
X149950000Y-120426190D02*
X149950000Y-119926190D01*
X149902380Y-119997619D01*
X149854761Y-120045238D01*
X149807142Y-120069047D01*
D10*
X150200000Y-117671428D02*
X150200000Y-117071428D01*
X150428571Y-117071428D01*
X150485714Y-117100000D01*
X150514285Y-117128571D01*
X150542857Y-117185714D01*
X150542857Y-117271428D01*
X150514285Y-117328571D01*
X150485714Y-117357142D01*
X150428571Y-117385714D01*
X150200000Y-117385714D01*
X150742857Y-117071428D02*
X150885714Y-117671428D01*
X151000000Y-117242857D01*
X151114285Y-117671428D01*
X151257142Y-117071428D01*
X151828571Y-117671428D02*
X151628571Y-117385714D01*
X151485714Y-117671428D02*
X151485714Y-117071428D01*
X151714285Y-117071428D01*
X151771428Y-117100000D01*
X151800000Y-117128571D01*
X151828571Y-117185714D01*
X151828571Y-117271428D01*
X151800000Y-117328571D01*
X151771428Y-117357142D01*
X151714285Y-117385714D01*
X151485714Y-117385714D01*
D12*
X164616666Y-101026190D02*
X164450000Y-100788095D01*
X164330952Y-101026190D02*
X164330952Y-100526190D01*
X164521428Y-100526190D01*
X164569047Y-100550000D01*
X164592857Y-100573809D01*
X164616666Y-100621428D01*
X164616666Y-100692857D01*
X164592857Y-100740476D01*
X164569047Y-100764285D01*
X164521428Y-100788095D01*
X164330952Y-100788095D01*
X164902380Y-100740476D02*
X164854761Y-100716666D01*
X164830952Y-100692857D01*
X164807142Y-100645238D01*
X164807142Y-100621428D01*
X164830952Y-100573809D01*
X164854761Y-100550000D01*
X164902380Y-100526190D01*
X164997619Y-100526190D01*
X165045238Y-100550000D01*
X165069047Y-100573809D01*
X165092857Y-100621428D01*
X165092857Y-100645238D01*
X165069047Y-100692857D01*
X165045238Y-100716666D01*
X164997619Y-100740476D01*
X164902380Y-100740476D01*
X164854761Y-100764285D01*
X164830952Y-100788095D01*
X164807142Y-100835714D01*
X164807142Y-100930952D01*
X164830952Y-100978571D01*
X164854761Y-101002380D01*
X164902380Y-101026190D01*
X164997619Y-101026190D01*
X165045238Y-101002380D01*
X165069047Y-100978571D01*
X165092857Y-100930952D01*
X165092857Y-100835714D01*
X165069047Y-100788095D01*
X165045238Y-100764285D01*
X164997619Y-100740476D01*
X166216666Y-101026190D02*
X165930952Y-101026190D01*
X166073809Y-101026190D02*
X166073809Y-100526190D01*
X166026190Y-100597619D01*
X165978571Y-100645238D01*
X165930952Y-100669047D01*
X166526190Y-100526190D02*
X166573809Y-100526190D01*
X166621428Y-100550000D01*
X166645238Y-100573809D01*
X166669047Y-100621428D01*
X166692857Y-100716666D01*
X166692857Y-100835714D01*
X166669047Y-100930952D01*
X166645238Y-100978571D01*
X166621428Y-101002380D01*
X166573809Y-101026190D01*
X166526190Y-101026190D01*
X166478571Y-101002380D01*
X166454761Y-100978571D01*
X166430952Y-100930952D01*
X166407142Y-100835714D01*
X166407142Y-100716666D01*
X166430952Y-100621428D01*
X166454761Y-100573809D01*
X166478571Y-100550000D01*
X166526190Y-100526190D01*
X167002380Y-100526190D02*
X167050000Y-100526190D01*
X167097619Y-100550000D01*
X167121428Y-100573809D01*
X167145238Y-100621428D01*
X167169047Y-100716666D01*
X167169047Y-100835714D01*
X167145238Y-100930952D01*
X167121428Y-100978571D01*
X167097619Y-101002380D01*
X167050000Y-101026190D01*
X167002380Y-101026190D01*
X166954761Y-101002380D01*
X166930952Y-100978571D01*
X166907142Y-100930952D01*
X166883333Y-100835714D01*
X166883333Y-100716666D01*
X166907142Y-100621428D01*
X166930952Y-100573809D01*
X166954761Y-100550000D01*
X167002380Y-100526190D01*
X167383333Y-101026190D02*
X167383333Y-100526190D01*
X167669047Y-101026190D02*
X167454761Y-100740476D01*
X167669047Y-100526190D02*
X167383333Y-100811904D01*
X169219047Y-95349523D02*
X169219047Y-95754285D01*
X169242857Y-95801904D01*
X169266666Y-95825713D01*
X169314285Y-95849523D01*
X169409523Y-95849523D01*
X169457142Y-95825713D01*
X169480952Y-95801904D01*
X169504761Y-95754285D01*
X169504761Y-95349523D01*
X169719047Y-95397142D02*
X169742857Y-95373333D01*
X169790476Y-95349523D01*
X169909523Y-95349523D01*
X169957142Y-95373333D01*
X169980952Y-95397142D01*
X170004761Y-95444761D01*
X170004761Y-95492380D01*
X169980952Y-95563809D01*
X169695238Y-95849523D01*
X170004761Y-95849523D01*
D13*
X170390476Y-95404285D02*
X170619047Y-95404285D01*
X170504761Y-95804285D02*
X170504761Y-95404285D01*
X170942857Y-95804285D02*
X170752380Y-95804285D01*
X170752380Y-95404285D01*
X171019047Y-95404285D02*
X171152380Y-95804285D01*
X171285714Y-95404285D01*
X171400000Y-95442380D02*
X171419047Y-95423333D01*
X171457142Y-95404285D01*
X171552380Y-95404285D01*
X171590476Y-95423333D01*
X171609523Y-95442380D01*
X171628571Y-95480475D01*
X171628571Y-95518571D01*
X171609523Y-95575713D01*
X171380952Y-95804285D01*
X171628571Y-95804285D01*
X171971428Y-95537618D02*
X171971428Y-95804285D01*
X171876190Y-95385237D02*
X171780952Y-95670952D01*
X172028571Y-95670952D01*
X172352380Y-95404285D02*
X172276190Y-95404285D01*
X172238095Y-95423333D01*
X172219047Y-95442380D01*
X172180952Y-95499523D01*
X172161904Y-95575713D01*
X172161904Y-95728094D01*
X172180952Y-95766190D01*
X172200000Y-95785237D01*
X172238095Y-95804285D01*
X172314285Y-95804285D01*
X172352380Y-95785237D01*
X172371428Y-95766190D01*
X172390476Y-95728094D01*
X172390476Y-95632856D01*
X172371428Y-95594761D01*
X172352380Y-95575713D01*
X172314285Y-95556666D01*
X172238095Y-95556666D01*
X172200000Y-95575713D01*
X172180952Y-95594761D01*
X172161904Y-95632856D01*
X172771428Y-95804285D02*
X172542857Y-95804285D01*
X172657142Y-95804285D02*
X172657142Y-95404285D01*
X172619047Y-95461428D01*
X172580952Y-95499523D01*
X172542857Y-95518571D01*
D12*
X157933333Y-99526190D02*
X157933333Y-99883333D01*
X157909523Y-99954761D01*
X157861904Y-100002380D01*
X157790476Y-100026190D01*
X157742857Y-100026190D01*
X158433333Y-100026190D02*
X158147619Y-100026190D01*
X158290476Y-100026190D02*
X158290476Y-99526190D01*
X158242857Y-99597619D01*
X158195238Y-99645238D01*
X158147619Y-99669047D01*
D13*
X157833333Y-100371428D02*
X157890476Y-100390476D01*
X157909523Y-100409523D01*
X157928571Y-100447619D01*
X157928571Y-100504761D01*
X157909523Y-100542857D01*
X157890476Y-100561904D01*
X157852380Y-100580952D01*
X157700000Y-100580952D01*
X157700000Y-100180952D01*
X157833333Y-100180952D01*
X157871428Y-100200000D01*
X157890476Y-100219047D01*
X157909523Y-100257142D01*
X157909523Y-100295238D01*
X157890476Y-100333333D01*
X157871428Y-100352380D01*
X157833333Y-100371428D01*
X157700000Y-100371428D01*
X158100000Y-100580952D02*
X158100000Y-100180952D01*
X158328571Y-100580952D02*
X158157142Y-100352380D01*
X158328571Y-100180952D02*
X158100000Y-100409523D01*
X158576190Y-100180952D02*
X158652380Y-100180952D01*
X158690476Y-100200000D01*
X158728571Y-100238095D01*
X158747619Y-100314285D01*
X158747619Y-100447619D01*
X158728571Y-100523809D01*
X158690476Y-100561904D01*
X158652380Y-100580952D01*
X158576190Y-100580952D01*
X158538095Y-100561904D01*
X158500000Y-100523809D01*
X158480952Y-100447619D01*
X158480952Y-100314285D01*
X158500000Y-100238095D01*
X158538095Y-100200000D01*
X158576190Y-100180952D01*
X158919047Y-100180952D02*
X158919047Y-100504761D01*
X158938095Y-100542857D01*
X158957142Y-100561904D01*
X158995238Y-100580952D01*
X159071428Y-100580952D01*
X159109523Y-100561904D01*
X159128571Y-100542857D01*
X159147619Y-100504761D01*
X159147619Y-100180952D01*
X159280952Y-100180952D02*
X159509523Y-100180952D01*
X159395238Y-100580952D02*
X159395238Y-100180952D01*
X159547619Y-100619047D02*
X159852380Y-100619047D01*
X160023809Y-100180952D02*
X160100000Y-100180952D01*
X160138095Y-100200000D01*
X160176190Y-100238095D01*
X160195238Y-100314285D01*
X160195238Y-100447619D01*
X160176190Y-100523809D01*
X160138095Y-100561904D01*
X160100000Y-100580952D01*
X160023809Y-100580952D01*
X159985714Y-100561904D01*
X159947619Y-100523809D01*
X159928571Y-100447619D01*
X159928571Y-100314285D01*
X159947619Y-100238095D01*
X159985714Y-100200000D01*
X160023809Y-100180952D01*
X160366666Y-100180952D02*
X160366666Y-100504761D01*
X160385714Y-100542857D01*
X160404761Y-100561904D01*
X160442857Y-100580952D01*
X160519047Y-100580952D01*
X160557142Y-100561904D01*
X160576190Y-100542857D01*
X160595238Y-100504761D01*
X160595238Y-100180952D01*
X160728571Y-100180952D02*
X160957142Y-100180952D01*
X160842857Y-100580952D02*
X160842857Y-100180952D01*
D12*
X155016666Y-113626190D02*
X154850000Y-113388095D01*
X154730952Y-113626190D02*
X154730952Y-113126190D01*
X154921428Y-113126190D01*
X154969047Y-113150000D01*
X154992857Y-113173809D01*
X155016666Y-113221428D01*
X155016666Y-113292857D01*
X154992857Y-113340476D01*
X154969047Y-113364285D01*
X154921428Y-113388095D01*
X154730952Y-113388095D01*
X155183333Y-113126190D02*
X155516666Y-113126190D01*
X155302380Y-113626190D01*
X154954761Y-114326190D02*
X154669047Y-114326190D01*
X154811904Y-114326190D02*
X154811904Y-113826190D01*
X154764285Y-113897619D01*
X154716666Y-113945238D01*
X154669047Y-113969047D01*
X155264285Y-113826190D02*
X155311904Y-113826190D01*
X155359523Y-113850000D01*
X155383333Y-113873809D01*
X155407142Y-113921428D01*
X155430952Y-114016666D01*
X155430952Y-114135714D01*
X155407142Y-114230952D01*
X155383333Y-114278571D01*
X155359523Y-114302380D01*
X155311904Y-114326190D01*
X155264285Y-114326190D01*
X155216666Y-114302380D01*
X155192857Y-114278571D01*
X155169047Y-114230952D01*
X155145238Y-114135714D01*
X155145238Y-114016666D01*
X155169047Y-113921428D01*
X155192857Y-113873809D01*
X155216666Y-113850000D01*
X155264285Y-113826190D01*
X155645238Y-114326190D02*
X155645238Y-113826190D01*
X155930952Y-114326190D02*
X155716666Y-114040476D01*
X155930952Y-113826190D02*
X155645238Y-114111904D01*
X169319047Y-104488690D02*
X169319047Y-104893452D01*
X169342857Y-104941071D01*
X169366666Y-104964880D01*
X169414285Y-104988690D01*
X169509523Y-104988690D01*
X169557142Y-104964880D01*
X169580952Y-104941071D01*
X169604761Y-104893452D01*
X169604761Y-104488690D01*
X170104761Y-104988690D02*
X169819047Y-104988690D01*
X169961904Y-104988690D02*
X169961904Y-104488690D01*
X169914285Y-104560119D01*
X169866666Y-104607738D01*
X169819047Y-104631547D01*
D13*
X170360476Y-104543452D02*
X170589047Y-104543452D01*
X170474761Y-104943452D02*
X170474761Y-104543452D01*
X170912857Y-104943452D02*
X170722380Y-104943452D01*
X170722380Y-104543452D01*
X170989047Y-104543452D02*
X171122380Y-104943452D01*
X171255714Y-104543452D01*
X171370000Y-104581547D02*
X171389047Y-104562500D01*
X171427142Y-104543452D01*
X171522380Y-104543452D01*
X171560476Y-104562500D01*
X171579523Y-104581547D01*
X171598571Y-104619642D01*
X171598571Y-104657738D01*
X171579523Y-104714880D01*
X171350952Y-104943452D01*
X171598571Y-104943452D01*
X171941428Y-104676785D02*
X171941428Y-104943452D01*
X171846190Y-104524404D02*
X171750952Y-104810119D01*
X171998571Y-104810119D01*
X172322380Y-104543452D02*
X172246190Y-104543452D01*
X172208095Y-104562500D01*
X172189047Y-104581547D01*
X172150952Y-104638690D01*
X172131904Y-104714880D01*
X172131904Y-104867261D01*
X172150952Y-104905357D01*
X172170000Y-104924404D01*
X172208095Y-104943452D01*
X172284285Y-104943452D01*
X172322380Y-104924404D01*
X172341428Y-104905357D01*
X172360476Y-104867261D01*
X172360476Y-104772023D01*
X172341428Y-104733928D01*
X172322380Y-104714880D01*
X172284285Y-104695833D01*
X172208095Y-104695833D01*
X172170000Y-104714880D01*
X172150952Y-104733928D01*
X172131904Y-104772023D01*
X172741428Y-104943452D02*
X172512857Y-104943452D01*
X172627142Y-104943452D02*
X172627142Y-104543452D01*
X172589047Y-104600595D01*
X172550952Y-104638690D01*
X172512857Y-104657738D01*
D12*
X149616666Y-113578571D02*
X149592857Y-113602380D01*
X149521428Y-113626190D01*
X149473809Y-113626190D01*
X149402380Y-113602380D01*
X149354761Y-113554761D01*
X149330952Y-113507142D01*
X149307142Y-113411904D01*
X149307142Y-113340476D01*
X149330952Y-113245238D01*
X149354761Y-113197619D01*
X149402380Y-113150000D01*
X149473809Y-113126190D01*
X149521428Y-113126190D01*
X149592857Y-113150000D01*
X149616666Y-113173809D01*
X149783333Y-113126190D02*
X150092857Y-113126190D01*
X149926190Y-113316666D01*
X149997619Y-113316666D01*
X150045238Y-113340476D01*
X150069047Y-113364285D01*
X150092857Y-113411904D01*
X150092857Y-113530952D01*
X150069047Y-113578571D01*
X150045238Y-113602380D01*
X149997619Y-113626190D01*
X149854761Y-113626190D01*
X149807142Y-113602380D01*
X149783333Y-113578571D01*
X149478571Y-113826190D02*
X149526190Y-113826190D01*
X149573809Y-113850000D01*
X149597619Y-113873809D01*
X149621428Y-113921428D01*
X149645238Y-114016666D01*
X149645238Y-114135714D01*
X149621428Y-114230952D01*
X149597619Y-114278571D01*
X149573809Y-114302380D01*
X149526190Y-114326190D01*
X149478571Y-114326190D01*
X149430952Y-114302380D01*
X149407142Y-114278571D01*
X149383333Y-114230952D01*
X149359523Y-114135714D01*
X149359523Y-114016666D01*
X149383333Y-113921428D01*
X149407142Y-113873809D01*
X149430952Y-113850000D01*
X149478571Y-113826190D01*
X149859523Y-114278571D02*
X149883333Y-114302380D01*
X149859523Y-114326190D01*
X149835714Y-114302380D01*
X149859523Y-114278571D01*
X149859523Y-114326190D01*
X150359523Y-114326190D02*
X150073809Y-114326190D01*
X150216666Y-114326190D02*
X150216666Y-113826190D01*
X150169047Y-113897619D01*
X150121428Y-113945238D01*
X150073809Y-113969047D01*
X150788095Y-113992857D02*
X150788095Y-114326190D01*
X150573809Y-113992857D02*
X150573809Y-114254761D01*
X150597619Y-114302380D01*
X150645238Y-114326190D01*
X150716666Y-114326190D01*
X150764285Y-114302380D01*
X150788095Y-114278571D01*
X151192857Y-114064285D02*
X151026190Y-114064285D01*
X151026190Y-114326190D02*
X151026190Y-113826190D01*
X151264285Y-113826190D01*
X169586666Y-108926190D02*
X169420000Y-108688095D01*
X169300952Y-108926190D02*
X169300952Y-108426190D01*
X169491428Y-108426190D01*
X169539047Y-108450000D01*
X169562857Y-108473809D01*
X169586666Y-108521428D01*
X169586666Y-108592857D01*
X169562857Y-108640476D01*
X169539047Y-108664285D01*
X169491428Y-108688095D01*
X169300952Y-108688095D01*
X170062857Y-108926190D02*
X169777142Y-108926190D01*
X169920000Y-108926190D02*
X169920000Y-108426190D01*
X169872380Y-108497619D01*
X169824761Y-108545238D01*
X169777142Y-108569047D01*
X171239047Y-108473809D02*
X171262857Y-108450000D01*
X171310476Y-108426190D01*
X171429523Y-108426190D01*
X171477142Y-108450000D01*
X171500952Y-108473809D01*
X171524761Y-108521428D01*
X171524761Y-108569047D01*
X171500952Y-108640476D01*
X171215238Y-108926190D01*
X171524761Y-108926190D01*
X171834285Y-108426190D02*
X171881904Y-108426190D01*
X171929523Y-108450000D01*
X171953333Y-108473809D01*
X171977142Y-108521428D01*
X172000952Y-108616666D01*
X172000952Y-108735714D01*
X171977142Y-108830952D01*
X171953333Y-108878571D01*
X171929523Y-108902380D01*
X171881904Y-108926190D01*
X171834285Y-108926190D01*
X171786666Y-108902380D01*
X171762857Y-108878571D01*
X171739047Y-108830952D01*
X171715238Y-108735714D01*
X171715238Y-108616666D01*
X171739047Y-108521428D01*
X171762857Y-108473809D01*
X171786666Y-108450000D01*
X171834285Y-108426190D01*
X172215238Y-108926190D02*
X172215238Y-108426190D01*
X172500952Y-108926190D02*
X172286666Y-108640476D01*
X172500952Y-108426190D02*
X172215238Y-108711904D01*
X150012066Y-101117390D02*
X149773971Y-101117390D01*
X149773971Y-100617390D01*
X150440638Y-101117390D02*
X150154923Y-101117390D01*
X150297780Y-101117390D02*
X150297780Y-100617390D01*
X150250161Y-100688819D01*
X150202542Y-100736438D01*
X150154923Y-100760247D01*
X151500161Y-101117390D02*
X151214447Y-101117390D01*
X151357304Y-101117390D02*
X151357304Y-100617390D01*
X151309685Y-100688819D01*
X151262066Y-100736438D01*
X151214447Y-100760247D01*
X151714447Y-101117390D02*
X151714447Y-100617390D01*
X152000161Y-101117390D02*
X151785876Y-100831676D01*
X152000161Y-100617390D02*
X151714447Y-100903104D01*
X152428733Y-100784057D02*
X152428733Y-101117390D01*
X152214447Y-100784057D02*
X152214447Y-101045961D01*
X152238257Y-101093580D01*
X152285876Y-101117390D01*
X152357304Y-101117390D01*
X152404923Y-101093580D01*
X152428733Y-101069771D01*
X152666828Y-101117390D02*
X152666828Y-100617390D01*
X152666828Y-100855485D02*
X152952542Y-100855485D01*
X152952542Y-101117390D02*
X152952542Y-100617390D01*
X152216666Y-113578571D02*
X152192857Y-113602380D01*
X152121428Y-113626190D01*
X152073809Y-113626190D01*
X152002380Y-113602380D01*
X151954761Y-113554761D01*
X151930952Y-113507142D01*
X151907142Y-113411904D01*
X151907142Y-113340476D01*
X151930952Y-113245238D01*
X151954761Y-113197619D01*
X152002380Y-113150000D01*
X152073809Y-113126190D01*
X152121428Y-113126190D01*
X152192857Y-113150000D01*
X152216666Y-113173809D01*
X152645238Y-113292857D02*
X152645238Y-113626190D01*
X152526190Y-113102380D02*
X152407142Y-113459523D01*
X152716666Y-113459523D01*
X152264285Y-114326190D02*
X151978571Y-114326190D01*
X152121428Y-114326190D02*
X152121428Y-113826190D01*
X152073809Y-113897619D01*
X152026190Y-113945238D01*
X151978571Y-113969047D01*
X152573809Y-113826190D02*
X152621428Y-113826190D01*
X152669047Y-113850000D01*
X152692857Y-113873809D01*
X152716666Y-113921428D01*
X152740476Y-114016666D01*
X152740476Y-114135714D01*
X152716666Y-114230952D01*
X152692857Y-114278571D01*
X152669047Y-114302380D01*
X152621428Y-114326190D01*
X152573809Y-114326190D01*
X152526190Y-114302380D01*
X152502380Y-114278571D01*
X152478571Y-114230952D01*
X152454761Y-114135714D01*
X152454761Y-114016666D01*
X152478571Y-113921428D01*
X152502380Y-113873809D01*
X152526190Y-113850000D01*
X152573809Y-113826190D01*
X153169047Y-113992857D02*
X153169047Y-114326190D01*
X152954761Y-113992857D02*
X152954761Y-114254761D01*
X152978571Y-114302380D01*
X153026190Y-114326190D01*
X153097619Y-114326190D01*
X153145238Y-114302380D01*
X153169047Y-114278571D01*
X153573809Y-114064285D02*
X153407142Y-114064285D01*
X153407142Y-114326190D02*
X153407142Y-113826190D01*
X153645238Y-113826190D01*
X164601666Y-103788570D02*
X164577857Y-103812379D01*
X164506428Y-103836189D01*
X164458809Y-103836189D01*
X164387380Y-103812379D01*
X164339761Y-103764760D01*
X164315952Y-103717141D01*
X164292142Y-103621903D01*
X164292142Y-103550475D01*
X164315952Y-103455237D01*
X164339761Y-103407618D01*
X164387380Y-103359999D01*
X164458809Y-103336189D01*
X164506428Y-103336189D01*
X164577857Y-103359999D01*
X164601666Y-103383808D01*
X165054047Y-103336189D02*
X164815952Y-103336189D01*
X164792142Y-103574284D01*
X164815952Y-103550475D01*
X164863571Y-103526665D01*
X164982619Y-103526665D01*
X165030238Y-103550475D01*
X165054047Y-103574284D01*
X165077857Y-103621903D01*
X165077857Y-103740951D01*
X165054047Y-103788570D01*
X165030238Y-103812379D01*
X164982619Y-103836189D01*
X164863571Y-103836189D01*
X164815952Y-103812379D01*
X164792142Y-103788570D01*
X165863571Y-103236189D02*
X165911190Y-103236189D01*
X165958809Y-103259999D01*
X165982619Y-103283808D01*
X166006428Y-103331427D01*
X166030238Y-103426665D01*
X166030238Y-103545713D01*
X166006428Y-103640951D01*
X165982619Y-103688570D01*
X165958809Y-103712379D01*
X165911190Y-103736189D01*
X165863571Y-103736189D01*
X165815952Y-103712379D01*
X165792142Y-103688570D01*
X165768333Y-103640951D01*
X165744523Y-103545713D01*
X165744523Y-103426665D01*
X165768333Y-103331427D01*
X165792142Y-103283808D01*
X165815952Y-103259999D01*
X165863571Y-103236189D01*
X166244523Y-103688570D02*
X166268333Y-103712379D01*
X166244523Y-103736189D01*
X166220714Y-103712379D01*
X166244523Y-103688570D01*
X166244523Y-103736189D01*
X166744523Y-103736189D02*
X166458809Y-103736189D01*
X166601666Y-103736189D02*
X166601666Y-103236189D01*
X166554047Y-103307618D01*
X166506428Y-103355237D01*
X166458809Y-103379046D01*
X167173095Y-103402856D02*
X167173095Y-103736189D01*
X166958809Y-103402856D02*
X166958809Y-103664760D01*
X166982619Y-103712379D01*
X167030238Y-103736189D01*
X167101666Y-103736189D01*
X167149285Y-103712379D01*
X167173095Y-103688570D01*
X167577857Y-103474284D02*
X167411190Y-103474284D01*
X167411190Y-103736189D02*
X167411190Y-103236189D01*
X167649285Y-103236189D01*
X165133333Y-115426190D02*
X165133333Y-115783333D01*
X165109523Y-115854761D01*
X165061904Y-115902380D01*
X164990476Y-115926190D01*
X164942857Y-115926190D01*
X165347619Y-115473809D02*
X165371428Y-115450000D01*
X165419047Y-115426190D01*
X165538095Y-115426190D01*
X165585714Y-115450000D01*
X165609523Y-115473809D01*
X165633333Y-115521428D01*
X165633333Y-115569047D01*
X165609523Y-115640476D01*
X165323809Y-115926190D01*
X165633333Y-115926190D01*
D10*
X159071428Y-115971428D02*
X158785714Y-115971428D01*
X158785714Y-115371428D01*
X159271428Y-115971428D02*
X159271428Y-115371428D01*
X159557142Y-115971428D02*
X159557142Y-115371428D01*
X159900000Y-115971428D01*
X159900000Y-115371428D01*
X160185714Y-115657142D02*
X160385714Y-115657142D01*
X160471428Y-115971428D02*
X160185714Y-115971428D01*
X160185714Y-115371428D01*
X160471428Y-115371428D01*
X160585714Y-116028571D02*
X161042857Y-116028571D01*
X161300000Y-115371428D02*
X161414285Y-115371428D01*
X161471428Y-115400000D01*
X161528571Y-115457142D01*
X161557142Y-115571428D01*
X161557142Y-115771428D01*
X161528571Y-115885714D01*
X161471428Y-115942857D01*
X161414285Y-115971428D01*
X161300000Y-115971428D01*
X161242857Y-115942857D01*
X161185714Y-115885714D01*
X161157142Y-115771428D01*
X161157142Y-115571428D01*
X161185714Y-115457142D01*
X161242857Y-115400000D01*
X161300000Y-115371428D01*
X161814285Y-115371428D02*
X161814285Y-115857142D01*
X161842857Y-115914285D01*
X161871428Y-115942857D01*
X161928571Y-115971428D01*
X162042857Y-115971428D01*
X162100000Y-115942857D01*
X162128571Y-115914285D01*
X162157142Y-115857142D01*
X162157142Y-115371428D01*
X162357142Y-115371428D02*
X162700000Y-115371428D01*
X162528571Y-115971428D02*
X162528571Y-115371428D01*
D12*
X164706666Y-108926190D02*
X164540000Y-108688095D01*
X164420952Y-108926190D02*
X164420952Y-108426190D01*
X164611428Y-108426190D01*
X164659047Y-108450000D01*
X164682857Y-108473809D01*
X164706666Y-108521428D01*
X164706666Y-108592857D01*
X164682857Y-108640476D01*
X164659047Y-108664285D01*
X164611428Y-108688095D01*
X164420952Y-108688095D01*
X165135238Y-108592857D02*
X165135238Y-108926190D01*
X165016190Y-108402380D02*
X164897142Y-108759523D01*
X165206666Y-108759523D01*
X166206666Y-108926190D02*
X165920952Y-108926190D01*
X166063809Y-108926190D02*
X166063809Y-108426190D01*
X166016190Y-108497619D01*
X165968571Y-108545238D01*
X165920952Y-108569047D01*
X166516190Y-108426190D02*
X166563809Y-108426190D01*
X166611428Y-108450000D01*
X166635238Y-108473809D01*
X166659047Y-108521428D01*
X166682857Y-108616666D01*
X166682857Y-108735714D01*
X166659047Y-108830952D01*
X166635238Y-108878571D01*
X166611428Y-108902380D01*
X166563809Y-108926190D01*
X166516190Y-108926190D01*
X166468571Y-108902380D01*
X166444761Y-108878571D01*
X166420952Y-108830952D01*
X166397142Y-108735714D01*
X166397142Y-108616666D01*
X166420952Y-108521428D01*
X166444761Y-108473809D01*
X166468571Y-108450000D01*
X166516190Y-108426190D01*
X166992380Y-108426190D02*
X167040000Y-108426190D01*
X167087619Y-108450000D01*
X167111428Y-108473809D01*
X167135238Y-108521428D01*
X167159047Y-108616666D01*
X167159047Y-108735714D01*
X167135238Y-108830952D01*
X167111428Y-108878571D01*
X167087619Y-108902380D01*
X167040000Y-108926190D01*
X166992380Y-108926190D01*
X166944761Y-108902380D01*
X166920952Y-108878571D01*
X166897142Y-108830952D01*
X166873333Y-108735714D01*
X166873333Y-108616666D01*
X166897142Y-108521428D01*
X166920952Y-108473809D01*
X166944761Y-108450000D01*
X166992380Y-108426190D01*
X167373333Y-108926190D02*
X167373333Y-108426190D01*
X167659047Y-108926190D02*
X167444761Y-108640476D01*
X167659047Y-108426190D02*
X167373333Y-108711904D01*
X164701666Y-98376607D02*
X164535000Y-98138512D01*
X164415952Y-98376607D02*
X164415952Y-97876607D01*
X164606428Y-97876607D01*
X164654047Y-97900417D01*
X164677857Y-97924226D01*
X164701666Y-97971845D01*
X164701666Y-98043274D01*
X164677857Y-98090893D01*
X164654047Y-98114702D01*
X164606428Y-98138512D01*
X164415952Y-98138512D01*
X165130238Y-97876607D02*
X165035000Y-97876607D01*
X164987380Y-97900417D01*
X164963571Y-97924226D01*
X164915952Y-97995655D01*
X164892142Y-98090893D01*
X164892142Y-98281369D01*
X164915952Y-98328988D01*
X164939761Y-98352797D01*
X164987380Y-98376607D01*
X165082619Y-98376607D01*
X165130238Y-98352797D01*
X165154047Y-98328988D01*
X165177857Y-98281369D01*
X165177857Y-98162321D01*
X165154047Y-98114702D01*
X165130238Y-98090893D01*
X165082619Y-98067083D01*
X164987380Y-98067083D01*
X164939761Y-98090893D01*
X164915952Y-98114702D01*
X164892142Y-98162321D01*
X166316666Y-98376607D02*
X166030952Y-98376607D01*
X166173809Y-98376607D02*
X166173809Y-97876607D01*
X166126190Y-97948036D01*
X166078571Y-97995655D01*
X166030952Y-98019464D01*
X166626190Y-97876607D02*
X166673809Y-97876607D01*
X166721428Y-97900417D01*
X166745238Y-97924226D01*
X166769047Y-97971845D01*
X166792857Y-98067083D01*
X166792857Y-98186131D01*
X166769047Y-98281369D01*
X166745238Y-98328988D01*
X166721428Y-98352797D01*
X166673809Y-98376607D01*
X166626190Y-98376607D01*
X166578571Y-98352797D01*
X166554761Y-98328988D01*
X166530952Y-98281369D01*
X166507142Y-98186131D01*
X166507142Y-98067083D01*
X166530952Y-97971845D01*
X166554761Y-97924226D01*
X166578571Y-97900417D01*
X166626190Y-97876607D01*
X167102380Y-97876607D02*
X167150000Y-97876607D01*
X167197619Y-97900417D01*
X167221428Y-97924226D01*
X167245238Y-97971845D01*
X167269047Y-98067083D01*
X167269047Y-98186131D01*
X167245238Y-98281369D01*
X167221428Y-98328988D01*
X167197619Y-98352797D01*
X167150000Y-98376607D01*
X167102380Y-98376607D01*
X167054761Y-98352797D01*
X167030952Y-98328988D01*
X167007142Y-98281369D01*
X166983333Y-98186131D01*
X166983333Y-98067083D01*
X167007142Y-97971845D01*
X167030952Y-97924226D01*
X167054761Y-97900417D01*
X167102380Y-97876607D01*
X167483333Y-98376607D02*
X167483333Y-97876607D01*
X167769047Y-98376607D02*
X167554761Y-98090893D01*
X167769047Y-97876607D02*
X167483333Y-98162321D01*
X169716666Y-111701904D02*
X169692857Y-111725713D01*
X169621428Y-111749523D01*
X169573809Y-111749523D01*
X169502380Y-111725713D01*
X169454761Y-111678094D01*
X169430952Y-111630475D01*
X169407142Y-111535237D01*
X169407142Y-111463809D01*
X169430952Y-111368571D01*
X169454761Y-111320952D01*
X169502380Y-111273333D01*
X169573809Y-111249523D01*
X169621428Y-111249523D01*
X169692857Y-111273333D01*
X169716666Y-111297142D01*
X170192857Y-111749523D02*
X169907142Y-111749523D01*
X170050000Y-111749523D02*
X170050000Y-111249523D01*
X170002380Y-111320952D01*
X169954761Y-111368571D01*
X169907142Y-111392380D01*
X170782571Y-111416190D02*
X170782571Y-111749523D01*
X170663523Y-111225713D02*
X170544476Y-111582856D01*
X170854000Y-111582856D01*
X170996857Y-111249523D02*
X171330190Y-111249523D01*
X171115904Y-111749523D01*
X171615904Y-111249523D02*
X171663523Y-111249523D01*
X171711142Y-111273333D01*
X171734952Y-111297142D01*
X171758761Y-111344761D01*
X171782571Y-111439999D01*
X171782571Y-111559047D01*
X171758761Y-111654285D01*
X171734952Y-111701904D01*
X171711142Y-111725713D01*
X171663523Y-111749523D01*
X171615904Y-111749523D01*
X171568285Y-111725713D01*
X171544476Y-111701904D01*
X171520666Y-111654285D01*
X171496857Y-111559047D01*
X171496857Y-111439999D01*
X171520666Y-111344761D01*
X171544476Y-111297142D01*
X171568285Y-111273333D01*
X171615904Y-111249523D01*
X171996857Y-111416190D02*
X171996857Y-111916190D01*
X171996857Y-111439999D02*
X172044476Y-111416190D01*
X172139714Y-111416190D01*
X172187333Y-111439999D01*
X172211142Y-111463809D01*
X172234952Y-111511428D01*
X172234952Y-111654285D01*
X172211142Y-111701904D01*
X172187333Y-111725713D01*
X172139714Y-111749523D01*
X172044476Y-111749523D01*
X171996857Y-111725713D01*
X172615904Y-111487618D02*
X172449238Y-111487618D01*
X172449238Y-111749523D02*
X172449238Y-111249523D01*
X172687333Y-111249523D01*
X147533333Y-94326190D02*
X147533333Y-94683333D01*
X147509523Y-94754761D01*
X147461904Y-94802380D01*
X147390476Y-94826190D01*
X147342857Y-94826190D01*
X147985714Y-94492857D02*
X147985714Y-94826190D01*
X147866666Y-94302380D02*
X147747619Y-94659523D01*
X148057142Y-94659523D01*
D13*
X144809523Y-95171428D02*
X144866666Y-95190476D01*
X144885714Y-95209523D01*
X144904761Y-95247619D01*
X144904761Y-95304761D01*
X144885714Y-95342857D01*
X144866666Y-95361904D01*
X144828571Y-95380952D01*
X144676190Y-95380952D01*
X144676190Y-94980952D01*
X144809523Y-94980952D01*
X144847619Y-95000000D01*
X144866666Y-95019047D01*
X144885714Y-95057142D01*
X144885714Y-95095238D01*
X144866666Y-95133333D01*
X144847619Y-95152380D01*
X144809523Y-95171428D01*
X144676190Y-95171428D01*
X145076190Y-95380952D02*
X145076190Y-94980952D01*
X145304761Y-95380952D02*
X145133333Y-95152380D01*
X145304761Y-94980952D02*
X145076190Y-95209523D01*
X145552380Y-94980952D02*
X145628571Y-94980952D01*
X145666666Y-95000000D01*
X145704761Y-95038095D01*
X145723809Y-95114285D01*
X145723809Y-95247619D01*
X145704761Y-95323809D01*
X145666666Y-95361904D01*
X145628571Y-95380952D01*
X145552380Y-95380952D01*
X145514285Y-95361904D01*
X145476190Y-95323809D01*
X145457142Y-95247619D01*
X145457142Y-95114285D01*
X145476190Y-95038095D01*
X145514285Y-95000000D01*
X145552380Y-94980952D01*
X145895238Y-94980952D02*
X145895238Y-95304761D01*
X145914285Y-95342857D01*
X145933333Y-95361904D01*
X145971428Y-95380952D01*
X146047619Y-95380952D01*
X146085714Y-95361904D01*
X146104761Y-95342857D01*
X146123809Y-95304761D01*
X146123809Y-94980952D01*
X146257142Y-94980952D02*
X146485714Y-94980952D01*
X146371428Y-95380952D02*
X146371428Y-94980952D01*
X146523809Y-95419047D02*
X146828571Y-95419047D01*
X146923809Y-95380952D02*
X146923809Y-94980952D01*
X147076190Y-94980952D01*
X147114285Y-95000000D01*
X147133333Y-95019047D01*
X147152380Y-95057142D01*
X147152380Y-95114285D01*
X147133333Y-95152380D01*
X147114285Y-95171428D01*
X147076190Y-95190476D01*
X146923809Y-95190476D01*
X147323809Y-95380952D02*
X147323809Y-94980952D01*
X147514285Y-95380952D02*
X147514285Y-94980952D01*
X147742857Y-95380952D01*
X147742857Y-94980952D01*
X147914285Y-95361904D02*
X147971428Y-95380952D01*
X148066666Y-95380952D01*
X148104761Y-95361904D01*
X148123809Y-95342857D01*
X148142857Y-95304761D01*
X148142857Y-95266666D01*
X148123809Y-95228571D01*
X148104761Y-95209523D01*
X148066666Y-95190476D01*
X147990476Y-95171428D01*
X147952380Y-95152380D01*
X147933333Y-95133333D01*
X147914285Y-95095238D01*
X147914285Y-95057142D01*
X147933333Y-95019047D01*
X147952380Y-95000000D01*
X147990476Y-94980952D01*
X148085714Y-94980952D01*
X148142857Y-95000000D01*
D12*
X164616666Y-114526190D02*
X164450000Y-114288095D01*
X164330952Y-114526190D02*
X164330952Y-114026190D01*
X164521428Y-114026190D01*
X164569047Y-114050000D01*
X164592857Y-114073809D01*
X164616666Y-114121428D01*
X164616666Y-114192857D01*
X164592857Y-114240476D01*
X164569047Y-114264285D01*
X164521428Y-114288095D01*
X164330952Y-114288095D01*
X164854761Y-114526190D02*
X164950000Y-114526190D01*
X164997619Y-114502380D01*
X165021428Y-114478571D01*
X165069047Y-114407142D01*
X165092857Y-114311904D01*
X165092857Y-114121428D01*
X165069047Y-114073809D01*
X165045238Y-114050000D01*
X164997619Y-114026190D01*
X164902380Y-114026190D01*
X164854761Y-114050000D01*
X164830952Y-114073809D01*
X164807142Y-114121428D01*
X164807142Y-114240476D01*
X164830952Y-114288095D01*
X164854761Y-114311904D01*
X164902380Y-114335714D01*
X164997619Y-114335714D01*
X165045238Y-114311904D01*
X165069047Y-114288095D01*
X165092857Y-114240476D01*
X165930952Y-114073809D02*
X165954761Y-114050000D01*
X166002380Y-114026190D01*
X166121428Y-114026190D01*
X166169047Y-114050000D01*
X166192857Y-114073809D01*
X166216666Y-114121428D01*
X166216666Y-114169047D01*
X166192857Y-114240476D01*
X165907142Y-114526190D01*
X166216666Y-114526190D01*
X166407142Y-114073809D02*
X166430952Y-114050000D01*
X166478571Y-114026190D01*
X166597619Y-114026190D01*
X166645238Y-114050000D01*
X166669047Y-114073809D01*
X166692857Y-114121428D01*
X166692857Y-114169047D01*
X166669047Y-114240476D01*
X166383333Y-114526190D01*
X166692857Y-114526190D01*
X167002380Y-114026190D02*
X167050000Y-114026190D01*
X167097619Y-114050000D01*
X167121428Y-114073809D01*
X167145238Y-114121428D01*
X167169047Y-114216666D01*
X167169047Y-114335714D01*
X167145238Y-114430952D01*
X167121428Y-114478571D01*
X167097619Y-114502380D01*
X167050000Y-114526190D01*
X167002380Y-114526190D01*
X166954761Y-114502380D01*
X166930952Y-114478571D01*
X166907142Y-114430952D01*
X166883333Y-114335714D01*
X166883333Y-114216666D01*
X166907142Y-114121428D01*
X166930952Y-114073809D01*
X166954761Y-114050000D01*
X167002380Y-114026190D01*
X167383333Y-114526190D02*
X167383333Y-114026190D01*
X167669047Y-114526190D02*
X167454761Y-114240476D01*
X167669047Y-114026190D02*
X167383333Y-114311904D01*
X149816666Y-96117390D02*
X149650000Y-95879295D01*
X149530952Y-96117390D02*
X149530952Y-95617390D01*
X149721428Y-95617390D01*
X149769047Y-95641200D01*
X149792857Y-95665009D01*
X149816666Y-95712628D01*
X149816666Y-95784057D01*
X149792857Y-95831676D01*
X149769047Y-95855485D01*
X149721428Y-95879295D01*
X149530952Y-95879295D01*
X150007142Y-95665009D02*
X150030952Y-95641200D01*
X150078571Y-95617390D01*
X150197619Y-95617390D01*
X150245238Y-95641200D01*
X150269047Y-95665009D01*
X150292857Y-95712628D01*
X150292857Y-95760247D01*
X150269047Y-95831676D01*
X149983333Y-96117390D01*
X150292857Y-96117390D01*
X152252380Y-96126190D02*
X151966666Y-96126190D01*
X152109523Y-96126190D02*
X152109523Y-95626190D01*
X152061904Y-95697619D01*
X152014285Y-95745238D01*
X151966666Y-95769047D01*
X152442857Y-95673809D02*
X152466666Y-95650000D01*
X152514285Y-95626190D01*
X152633333Y-95626190D01*
X152680952Y-95650000D01*
X152704761Y-95673809D01*
X152728571Y-95721428D01*
X152728571Y-95769047D01*
X152704761Y-95840476D01*
X152419047Y-96126190D01*
X152728571Y-96126190D01*
X153038095Y-95626190D02*
X153085714Y-95626190D01*
X153133333Y-95650000D01*
X153157142Y-95673809D01*
X153180952Y-95721428D01*
X153204761Y-95816666D01*
X153204761Y-95935714D01*
X153180952Y-96030952D01*
X153157142Y-96078571D01*
X153133333Y-96102380D01*
X153085714Y-96126190D01*
X153038095Y-96126190D01*
X152990476Y-96102380D01*
X152966666Y-96078571D01*
X152942857Y-96030952D01*
X152919047Y-95935714D01*
X152919047Y-95816666D01*
X152942857Y-95721428D01*
X152966666Y-95673809D01*
X152990476Y-95650000D01*
X153038095Y-95626190D01*
X153776190Y-95673809D02*
X153800000Y-95650000D01*
X153847619Y-95626190D01*
X153966666Y-95626190D01*
X154014285Y-95650000D01*
X154038095Y-95673809D01*
X154061904Y-95721428D01*
X154061904Y-95769047D01*
X154038095Y-95840476D01*
X153752380Y-96126190D01*
X154061904Y-96126190D01*
X154228571Y-95626190D02*
X154347619Y-96126190D01*
X154442857Y-95769047D01*
X154538095Y-96126190D01*
X154657142Y-95626190D01*
X140433333Y-115026190D02*
X140433333Y-115383333D01*
X140409523Y-115454761D01*
X140361904Y-115502380D01*
X140290476Y-115526190D01*
X140242857Y-115526190D01*
X140623809Y-115026190D02*
X140933333Y-115026190D01*
X140766666Y-115216666D01*
X140838095Y-115216666D01*
X140885714Y-115240476D01*
X140909523Y-115264285D01*
X140933333Y-115311904D01*
X140933333Y-115430952D01*
X140909523Y-115478571D01*
X140885714Y-115502380D01*
X140838095Y-115526190D01*
X140695238Y-115526190D01*
X140647619Y-115502380D01*
X140623809Y-115478571D01*
D13*
X140385714Y-114571428D02*
X140519047Y-114571428D01*
X140576190Y-114780952D02*
X140385714Y-114780952D01*
X140385714Y-114380952D01*
X140576190Y-114380952D01*
X140747619Y-114780952D02*
X140747619Y-114380952D01*
X140842857Y-114380952D01*
X140900000Y-114400000D01*
X140938095Y-114438095D01*
X140957142Y-114476190D01*
X140976190Y-114552380D01*
X140976190Y-114609523D01*
X140957142Y-114685714D01*
X140938095Y-114723809D01*
X140900000Y-114761904D01*
X140842857Y-114780952D01*
X140747619Y-114780952D01*
X141357142Y-114400000D02*
X141319047Y-114380952D01*
X141261904Y-114380952D01*
X141204761Y-114400000D01*
X141166666Y-114438095D01*
X141147619Y-114476190D01*
X141128571Y-114552380D01*
X141128571Y-114609523D01*
X141147619Y-114685714D01*
X141166666Y-114723809D01*
X141204761Y-114761904D01*
X141261904Y-114780952D01*
X141300000Y-114780952D01*
X141357142Y-114761904D01*
X141376190Y-114742857D01*
X141376190Y-114609523D01*
X141300000Y-114609523D01*
X141547619Y-114571428D02*
X141680952Y-114571428D01*
X141738095Y-114780952D02*
X141547619Y-114780952D01*
X141547619Y-114380952D01*
X141738095Y-114380952D01*
X141814285Y-114819047D02*
X142119047Y-114819047D01*
X142214285Y-114780952D02*
X142214285Y-114380952D01*
X142366666Y-114380952D01*
X142404761Y-114400000D01*
X142423809Y-114419047D01*
X142442857Y-114457142D01*
X142442857Y-114514285D01*
X142423809Y-114552380D01*
X142404761Y-114571428D01*
X142366666Y-114590476D01*
X142214285Y-114590476D01*
X142614285Y-114780952D02*
X142614285Y-114380952D01*
X142804761Y-114780952D02*
X142804761Y-114380952D01*
X143033333Y-114780952D01*
X143033333Y-114380952D01*
X143204761Y-114761904D02*
X143261904Y-114780952D01*
X143357142Y-114780952D01*
X143395238Y-114761904D01*
X143414285Y-114742857D01*
X143433333Y-114704761D01*
X143433333Y-114666666D01*
X143414285Y-114628571D01*
X143395238Y-114609523D01*
X143357142Y-114590476D01*
X143280952Y-114571428D01*
X143242857Y-114552380D01*
X143223809Y-114533333D01*
X143204761Y-114495238D01*
X143204761Y-114457142D01*
X143223809Y-114419047D01*
X143242857Y-114400000D01*
X143280952Y-114380952D01*
X143376190Y-114380952D01*
X143433333Y-114400000D01*
D12*
X164706666Y-106332855D02*
X164540000Y-106094760D01*
X164420952Y-106332855D02*
X164420952Y-105832855D01*
X164611428Y-105832855D01*
X164659047Y-105856665D01*
X164682857Y-105880474D01*
X164706666Y-105928093D01*
X164706666Y-105999522D01*
X164682857Y-106047141D01*
X164659047Y-106070950D01*
X164611428Y-106094760D01*
X164420952Y-106094760D01*
X165159047Y-105832855D02*
X164920952Y-105832855D01*
X164897142Y-106070950D01*
X164920952Y-106047141D01*
X164968571Y-106023331D01*
X165087619Y-106023331D01*
X165135238Y-106047141D01*
X165159047Y-106070950D01*
X165182857Y-106118569D01*
X165182857Y-106237617D01*
X165159047Y-106285236D01*
X165135238Y-106309045D01*
X165087619Y-106332855D01*
X164968571Y-106332855D01*
X164920952Y-106309045D01*
X164897142Y-106285236D01*
X166359047Y-105880474D02*
X166382857Y-105856665D01*
X166430476Y-105832855D01*
X166549523Y-105832855D01*
X166597142Y-105856665D01*
X166620952Y-105880474D01*
X166644761Y-105928093D01*
X166644761Y-105975712D01*
X166620952Y-106047141D01*
X166335238Y-106332855D01*
X166644761Y-106332855D01*
X166954285Y-105832855D02*
X167001904Y-105832855D01*
X167049523Y-105856665D01*
X167073333Y-105880474D01*
X167097142Y-105928093D01*
X167120952Y-106023331D01*
X167120952Y-106142379D01*
X167097142Y-106237617D01*
X167073333Y-106285236D01*
X167049523Y-106309045D01*
X167001904Y-106332855D01*
X166954285Y-106332855D01*
X166906666Y-106309045D01*
X166882857Y-106285236D01*
X166859047Y-106237617D01*
X166835238Y-106142379D01*
X166835238Y-106023331D01*
X166859047Y-105928093D01*
X166882857Y-105880474D01*
X166906666Y-105856665D01*
X166954285Y-105832855D01*
X167335238Y-106332855D02*
X167335238Y-105832855D01*
X167620952Y-106332855D02*
X167406666Y-106047141D01*
X167620952Y-105832855D02*
X167335238Y-106118569D01*
X164706666Y-111749523D02*
X164540000Y-111511428D01*
X164420952Y-111749523D02*
X164420952Y-111249523D01*
X164611428Y-111249523D01*
X164659047Y-111273333D01*
X164682857Y-111297142D01*
X164706666Y-111344761D01*
X164706666Y-111416190D01*
X164682857Y-111463809D01*
X164659047Y-111487618D01*
X164611428Y-111511428D01*
X164420952Y-111511428D01*
X164873333Y-111249523D02*
X165182857Y-111249523D01*
X165016190Y-111439999D01*
X165087619Y-111439999D01*
X165135238Y-111463809D01*
X165159047Y-111487618D01*
X165182857Y-111535237D01*
X165182857Y-111654285D01*
X165159047Y-111701904D01*
X165135238Y-111725713D01*
X165087619Y-111749523D01*
X164944761Y-111749523D01*
X164897142Y-111725713D01*
X164873333Y-111701904D01*
X166206666Y-111749523D02*
X165920952Y-111749523D01*
X166063809Y-111749523D02*
X166063809Y-111249523D01*
X166016190Y-111320952D01*
X165968571Y-111368571D01*
X165920952Y-111392380D01*
X166516190Y-111249523D02*
X166563809Y-111249523D01*
X166611428Y-111273333D01*
X166635238Y-111297142D01*
X166659047Y-111344761D01*
X166682857Y-111439999D01*
X166682857Y-111559047D01*
X166659047Y-111654285D01*
X166635238Y-111701904D01*
X166611428Y-111725713D01*
X166563809Y-111749523D01*
X166516190Y-111749523D01*
X166468571Y-111725713D01*
X166444761Y-111701904D01*
X166420952Y-111654285D01*
X166397142Y-111559047D01*
X166397142Y-111439999D01*
X166420952Y-111344761D01*
X166444761Y-111297142D01*
X166468571Y-111273333D01*
X166516190Y-111249523D01*
X166992380Y-111249523D02*
X167040000Y-111249523D01*
X167087619Y-111273333D01*
X167111428Y-111297142D01*
X167135238Y-111344761D01*
X167159047Y-111439999D01*
X167159047Y-111559047D01*
X167135238Y-111654285D01*
X167111428Y-111701904D01*
X167087619Y-111725713D01*
X167040000Y-111749523D01*
X166992380Y-111749523D01*
X166944761Y-111725713D01*
X166920952Y-111701904D01*
X166897142Y-111654285D01*
X166873333Y-111559047D01*
X166873333Y-111439999D01*
X166897142Y-111344761D01*
X166920952Y-111297142D01*
X166944761Y-111273333D01*
X166992380Y-111249523D01*
X167373333Y-111749523D02*
X167373333Y-111249523D01*
X167659047Y-111749523D02*
X167444761Y-111463809D01*
X167659047Y-111249523D02*
X167373333Y-111535237D01*
D10*
X171161252Y-113735000D02*
X170638748Y-113735000D01*
X171161252Y-112265000D02*
X170638748Y-112265000D01*
X152000000Y-117840000D02*
X149315000Y-117840000D01*
X149315000Y-119760000D02*
X152000000Y-119760000D01*
X149315000Y-117840000D02*
X149315000Y-119760000D01*
X166212064Y-98793333D02*
X165757936Y-98793333D01*
X166212064Y-100263333D02*
X165757936Y-100263333D01*
X169440000Y-98000000D02*
X169440000Y-97200000D01*
X172560000Y-98000000D02*
X172560000Y-96200000D01*
X172560000Y-98000000D02*
X172560000Y-98800000D01*
X169440000Y-98000000D02*
X169440000Y-98800000D01*
X157725400Y-108791200D02*
X161275400Y-108791200D01*
X161275400Y-100791200D02*
X161275400Y-108791200D01*
X157675400Y-100791200D02*
X161275400Y-100791200D01*
X157675400Y-100791200D02*
X157675400Y-108791200D01*
X156335000Y-111172936D02*
X156335000Y-111627064D01*
X154865000Y-111172936D02*
X154865000Y-111627064D01*
X172560000Y-102400000D02*
X172560000Y-103200000D01*
X172560000Y-102400000D02*
X172560000Y-100600000D01*
X169440000Y-102400000D02*
X169440000Y-103200000D01*
X169440000Y-102400000D02*
X169440000Y-101600000D01*
X149565000Y-111138748D02*
X149565000Y-111661252D01*
X151035000Y-111138748D02*
X151035000Y-111661252D01*
X170672936Y-108235000D02*
X171127064Y-108235000D01*
X170672936Y-106765000D02*
X171127064Y-106765000D01*
D12*
X149745400Y-108291200D02*
X156745400Y-108291200D01*
X156745400Y-108291200D02*
X156745400Y-101291200D01*
X156745400Y-101291200D02*
X149745400Y-101291200D01*
X149745400Y-101291200D02*
X149745400Y-108291200D01*
D10*
X152165000Y-111138748D02*
X152165000Y-111661252D01*
X153635000Y-111138748D02*
X153635000Y-111661252D01*
X166246252Y-101474999D02*
X165723748Y-101474999D01*
X166246252Y-102944999D02*
X165723748Y-102944999D01*
X165770000Y-118725000D02*
X165770000Y-116125000D01*
X163110000Y-118725000D02*
X163110000Y-116125000D01*
X165770000Y-118725000D02*
X163110000Y-118725000D01*
X165770000Y-116125000D02*
X163110000Y-116125000D01*
X164440000Y-121325000D02*
X163110000Y-121325000D01*
X163110000Y-121325000D02*
X163110000Y-119995000D01*
X165757936Y-106808331D02*
X166212064Y-106808331D01*
X165757936Y-108278331D02*
X166212064Y-108278331D01*
X165757936Y-96141667D02*
X166212064Y-96141667D01*
X165757936Y-97611667D02*
X166212064Y-97611667D01*
G36*
X152957062Y-92701057D02*
G01*
X152944286Y-92713833D01*
X152931509Y-92701057D01*
X152944286Y-92688280D01*
X152957062Y-92701057D01*
G37*
G36*
X157071147Y-92062224D02*
G01*
X157058370Y-92075000D01*
X157045593Y-92062224D01*
X157058370Y-92049447D01*
X157071147Y-92062224D01*
G37*
G36*
X158859879Y-93186570D02*
G01*
X158847102Y-93199346D01*
X158834326Y-93186570D01*
X158847102Y-93173793D01*
X158859879Y-93186570D01*
G37*
G36*
X159294286Y-93569869D02*
G01*
X159281509Y-93582646D01*
X159268732Y-93569869D01*
X159281509Y-93557093D01*
X159294286Y-93569869D01*
G37*
G36*
X153519235Y-91627817D02*
G01*
X153506459Y-91640594D01*
X153493682Y-91627817D01*
X153506459Y-91615040D01*
X153519235Y-91627817D01*
G37*
G36*
X160163098Y-92189990D02*
G01*
X160150322Y-92202767D01*
X160137545Y-92189990D01*
X160150322Y-92177213D01*
X160163098Y-92189990D01*
G37*
G36*
X153842911Y-91546898D02*
G01*
X153839403Y-91562090D01*
X153825875Y-91563934D01*
X153804842Y-91554584D01*
X153808840Y-91546898D01*
X153839165Y-91543840D01*
X153842911Y-91546898D01*
G37*
G36*
X156355654Y-91653370D02*
G01*
X156342877Y-91666147D01*
X156330100Y-91653370D01*
X156342877Y-91640594D01*
X156355654Y-91653370D01*
G37*
G36*
X157735533Y-92982143D02*
G01*
X157722756Y-92994920D01*
X157709980Y-92982143D01*
X157722756Y-92969366D01*
X157735533Y-92982143D01*
G37*
G36*
X151883823Y-92547737D02*
G01*
X151871046Y-92560513D01*
X151858269Y-92547737D01*
X151871046Y-92534960D01*
X151883823Y-92547737D01*
G37*
G36*
X149660684Y-92777716D02*
G01*
X149647907Y-92790493D01*
X149635131Y-92777716D01*
X149647907Y-92764940D01*
X149660684Y-92777716D01*
G37*
G36*
X153212595Y-92624397D02*
G01*
X153199819Y-92637173D01*
X153187042Y-92624397D01*
X153199819Y-92611620D01*
X153212595Y-92624397D01*
G37*
G36*
X162846197Y-92164437D02*
G01*
X162833420Y-92177213D01*
X162820644Y-92164437D01*
X162833420Y-92151660D01*
X162846197Y-92164437D01*
G37*
G36*
X154209175Y-91934457D02*
G01*
X154196398Y-91947234D01*
X154183622Y-91934457D01*
X154196398Y-91921680D01*
X154209175Y-91934457D01*
G37*
G36*
X160393078Y-91602264D02*
G01*
X160380302Y-91615040D01*
X160367525Y-91602264D01*
X160380302Y-91589487D01*
X160393078Y-91602264D01*
G37*
G36*
X154745795Y-92828823D02*
G01*
X154733018Y-92841600D01*
X154720241Y-92828823D01*
X154733018Y-92816046D01*
X154745795Y-92828823D01*
G37*
G36*
X157403340Y-92701057D02*
G01*
X157390563Y-92713833D01*
X157377787Y-92701057D01*
X157390563Y-92688280D01*
X157403340Y-92701057D01*
G37*
G36*
X164532716Y-92803270D02*
G01*
X164519939Y-92816046D01*
X164507163Y-92803270D01*
X164519939Y-92790493D01*
X164532716Y-92803270D01*
G37*
G36*
X163067659Y-92977884D02*
G01*
X163064151Y-92993076D01*
X163050624Y-92994920D01*
X163029590Y-92985570D01*
X163033588Y-92977884D01*
X163063914Y-92974826D01*
X163067659Y-92977884D01*
G37*
G36*
X160878591Y-92189990D02*
G01*
X160865815Y-92202767D01*
X160853038Y-92189990D01*
X160865815Y-92177213D01*
X160878591Y-92189990D01*
G37*
G36*
X157445929Y-92109071D02*
G01*
X157448987Y-92139397D01*
X157445929Y-92143142D01*
X157430737Y-92139635D01*
X157428893Y-92126107D01*
X157438243Y-92105074D01*
X157445929Y-92109071D01*
G37*
G36*
X159192072Y-91883350D02*
G01*
X159179296Y-91896127D01*
X159166519Y-91883350D01*
X159179296Y-91870574D01*
X159192072Y-91883350D01*
G37*
G36*
X165002726Y-91959123D02*
G01*
X165008913Y-91856455D01*
X164999966Y-91797281D01*
X164973483Y-91775601D01*
X164932305Y-91783325D01*
X164894026Y-91813851D01*
X164847654Y-91871675D01*
X164802175Y-91942128D01*
X164766575Y-92010541D01*
X164749837Y-92062244D01*
X164751792Y-92078031D01*
X164755735Y-92096469D01*
X164741091Y-92090217D01*
X164728316Y-92096962D01*
X164719465Y-92138751D01*
X164714096Y-92220321D01*
X164711768Y-92346408D01*
X164711589Y-92406847D01*
X164712056Y-92543937D01*
X164714484Y-92639692D01*
X164720414Y-92703881D01*
X164731388Y-92746274D01*
X164748946Y-92776640D01*
X164774311Y-92804431D01*
X164827791Y-92847226D01*
X164873566Y-92866996D01*
X164876524Y-92867153D01*
X164911170Y-92885909D01*
X164916016Y-92903118D01*
X164893886Y-92926848D01*
X164826513Y-92942861D01*
X164712419Y-92951294D01*
X164550127Y-92952286D01*
X164424115Y-92949207D01*
X164312237Y-92943684D01*
X164243200Y-92935004D01*
X164208759Y-92921515D01*
X164200523Y-92904488D01*
X164219358Y-92871210D01*
X164234893Y-92867153D01*
X164276153Y-92849626D01*
X164317614Y-92813724D01*
X164340182Y-92780155D01*
X164355722Y-92731487D01*
X164366047Y-92657326D01*
X164372964Y-92547278D01*
X164375520Y-92481182D01*
X164378256Y-92344001D01*
X164375002Y-92249556D01*
X164365125Y-92189760D01*
X164350293Y-92159182D01*
X164328641Y-92129491D01*
X164341382Y-92132069D01*
X164351475Y-92137971D01*
X164371963Y-92142868D01*
X164378499Y-92117673D01*
X164372792Y-92053247D01*
X164370509Y-92036142D01*
X164344519Y-91931860D01*
X164302276Y-91857045D01*
X164249744Y-91821220D01*
X164234893Y-91819467D01*
X164225590Y-91813219D01*
X164417266Y-91813219D01*
X164428760Y-91830144D01*
X164440725Y-91866436D01*
X164449358Y-91944139D01*
X164454805Y-92065942D01*
X164457212Y-92234535D01*
X164457276Y-92353987D01*
X164455722Y-92841600D01*
X164513384Y-92841625D01*
X164571046Y-92841651D01*
X164563652Y-92317782D01*
X164556258Y-91793914D01*
X164477475Y-91793914D01*
X164426018Y-91797737D01*
X164417266Y-91813219D01*
X164225590Y-91813219D01*
X164204369Y-91798966D01*
X164200523Y-91781624D01*
X164210270Y-91756049D01*
X164245745Y-91737021D01*
X164316299Y-91721028D01*
X164392173Y-91709677D01*
X164455414Y-91700090D01*
X164494386Y-91692489D01*
X164535135Y-91688735D01*
X164602448Y-91688325D01*
X164615764Y-91688674D01*
X164678529Y-91693992D01*
X164705536Y-91714996D01*
X164712136Y-91767388D01*
X164712399Y-91787525D01*
X164713208Y-91883350D01*
X164766158Y-91812363D01*
X164856772Y-91722669D01*
X164957422Y-91676914D01*
X165060078Y-91676599D01*
X165156706Y-91723227D01*
X165172503Y-91736419D01*
X165237156Y-91815199D01*
X165274269Y-91903856D01*
X165286225Y-91993831D01*
X165275414Y-92076565D01*
X165244220Y-92143501D01*
X165195030Y-92186080D01*
X165130231Y-92195744D01*
X165053123Y-92164535D01*
X165016989Y-92137430D01*
X164998731Y-92106789D01*
X164994669Y-92057615D01*
X164997453Y-92021935D01*
X165086113Y-92021935D01*
X165089781Y-92060269D01*
X165091411Y-92063005D01*
X165123094Y-92074655D01*
X165142380Y-92041851D01*
X165145605Y-92004729D01*
X165138828Y-91934596D01*
X165123504Y-91898391D01*
X165105714Y-91901254D01*
X165091539Y-91948327D01*
X165090279Y-91957954D01*
X165086113Y-92021935D01*
X164997453Y-92021935D01*
X165001123Y-91974911D01*
X165002726Y-91959123D01*
G37*
G36*
X160188652Y-92956590D02*
G01*
X160175875Y-92969366D01*
X160163098Y-92956590D01*
X160175875Y-92943813D01*
X160188652Y-92956590D01*
G37*
G36*
X162743984Y-91908904D02*
G01*
X162731207Y-91921680D01*
X162718430Y-91908904D01*
X162731207Y-91896127D01*
X162743984Y-91908904D01*
G37*
G36*
X157991066Y-91960010D02*
G01*
X157978290Y-91972787D01*
X157965513Y-91960010D01*
X157978290Y-91947234D01*
X157991066Y-91960010D01*
G37*
G36*
X151781609Y-92624397D02*
G01*
X151768833Y-92637173D01*
X151756056Y-92624397D01*
X151768833Y-92611620D01*
X151781609Y-92624397D01*
G37*
G36*
X164864909Y-91653370D02*
G01*
X164852133Y-91666147D01*
X164839356Y-91653370D01*
X164852133Y-91640594D01*
X164864909Y-91653370D01*
G37*
G36*
X153493682Y-91065644D02*
G01*
X153480905Y-91078421D01*
X153468129Y-91065644D01*
X153480905Y-91052867D01*
X153493682Y-91065644D01*
G37*
G36*
X158093280Y-92471077D02*
G01*
X158080503Y-92483853D01*
X158067726Y-92471077D01*
X158080503Y-92458300D01*
X158093280Y-92471077D01*
G37*
G36*
X156646605Y-92121980D02*
G01*
X156725809Y-91965990D01*
X156843351Y-91832367D01*
X156994290Y-91730310D01*
X157123744Y-91688458D01*
X157272186Y-91677566D01*
X157424776Y-91695326D01*
X157566676Y-91739428D01*
X157683045Y-91807564D01*
X157721329Y-91843443D01*
X157760795Y-91901859D01*
X157801854Y-91985343D01*
X157838189Y-92077460D01*
X157863485Y-92161774D01*
X157871424Y-92221849D01*
X157870110Y-92230592D01*
X157862466Y-92248213D01*
X157845332Y-92261006D01*
X157811485Y-92269740D01*
X157753702Y-92275181D01*
X157664759Y-92278096D01*
X157537433Y-92279252D01*
X157410292Y-92279427D01*
X156963246Y-92279427D01*
X156980146Y-92375252D01*
X157004446Y-92488134D01*
X157031812Y-92575148D01*
X157058853Y-92626898D01*
X157074637Y-92637173D01*
X157089126Y-92652389D01*
X157086219Y-92659012D01*
X157093895Y-92689957D01*
X157133364Y-92735252D01*
X157192573Y-92782987D01*
X157241952Y-92812853D01*
X157349384Y-92839898D01*
X157474446Y-92821195D01*
X157599541Y-92765232D01*
X157673270Y-92720285D01*
X157727903Y-92682059D01*
X157747981Y-92663259D01*
X157785136Y-92635608D01*
X157820726Y-92647401D01*
X157833555Y-92690895D01*
X157833135Y-92694368D01*
X157805538Y-92743987D01*
X157743313Y-92803424D01*
X157659418Y-92863855D01*
X157566810Y-92916458D01*
X157478449Y-92952411D01*
X157441248Y-92961179D01*
X157373361Y-92976408D01*
X157330005Y-92994457D01*
X157324934Y-92999255D01*
X157302189Y-93011686D01*
X157298467Y-93009296D01*
X157267947Y-92999850D01*
X157204915Y-92989971D01*
X157172446Y-92986427D01*
X156993325Y-92947744D01*
X156846009Y-92869134D01*
X156730721Y-92750746D01*
X156668278Y-92642294D01*
X156614914Y-92468318D01*
X156610138Y-92333682D01*
X156692985Y-92333682D01*
X156694233Y-92370403D01*
X156706044Y-92373410D01*
X156719754Y-92383827D01*
X156719216Y-92430258D01*
X156719185Y-92430472D01*
X156727456Y-92515665D01*
X156767886Y-92614994D01*
X156831972Y-92711636D01*
X156893114Y-92774502D01*
X156952659Y-92821028D01*
X156985687Y-92839719D01*
X156987528Y-92829104D01*
X156961093Y-92795948D01*
X156893280Y-92691736D01*
X156840779Y-92554196D01*
X156807164Y-92399742D01*
X156796009Y-92244786D01*
X156805928Y-92151985D01*
X156977529Y-92151985D01*
X156990138Y-92164836D01*
X157027245Y-92172410D01*
X157096949Y-92176070D01*
X157207352Y-92177176D01*
X157247286Y-92177213D01*
X157374694Y-92176035D01*
X157458835Y-92171826D01*
X157507510Y-92163575D01*
X157528518Y-92150268D01*
X157531106Y-92140392D01*
X157516256Y-92097360D01*
X157506669Y-92088467D01*
X157492834Y-92055246D01*
X157496803Y-92035393D01*
X157497884Y-91986290D01*
X157480067Y-91921843D01*
X157464259Y-91891266D01*
X157570861Y-91891266D01*
X157582100Y-91934158D01*
X157582290Y-91934660D01*
X157600526Y-92009259D01*
X157607766Y-92089440D01*
X157616407Y-92154928D01*
X157643811Y-92177145D01*
X157646096Y-92177213D01*
X157677252Y-92155673D01*
X157684426Y-92123580D01*
X157673482Y-92065679D01*
X157646706Y-91992424D01*
X157613184Y-91924716D01*
X157582000Y-91883455D01*
X157579183Y-91881478D01*
X157570861Y-91891266D01*
X157464259Y-91891266D01*
X157454166Y-91871743D01*
X157426144Y-91861857D01*
X157394109Y-91875379D01*
X157357206Y-91892850D01*
X157359036Y-91881469D01*
X157373048Y-91863763D01*
X157391707Y-91828625D01*
X157367900Y-91802634D01*
X157355563Y-91795696D01*
X157258648Y-91768349D01*
X157167326Y-91786787D01*
X157089243Y-91845732D01*
X157032048Y-91939904D01*
X157006525Y-92036670D01*
X156991014Y-92103986D01*
X156981317Y-92132495D01*
X156977529Y-92151985D01*
X156805928Y-92151985D01*
X156810857Y-92105867D01*
X156824084Y-92040186D01*
X156822058Y-92015336D01*
X156803847Y-92023086D01*
X156801669Y-92024863D01*
X156776142Y-92061286D01*
X156749050Y-92122991D01*
X156723853Y-92197365D01*
X156704011Y-92271799D01*
X156692985Y-92333682D01*
X156610138Y-92333682D01*
X156608665Y-92292151D01*
X156646605Y-92121980D01*
G37*
G36*
X151960483Y-91908904D02*
G01*
X151947706Y-91921680D01*
X151934929Y-91908904D01*
X151947706Y-91896127D01*
X151960483Y-91908904D01*
G37*
G36*
X153238149Y-92368863D02*
G01*
X153225372Y-92381640D01*
X153212595Y-92368863D01*
X153225372Y-92356087D01*
X153238149Y-92368863D01*
G37*
G36*
X156023461Y-91218964D02*
G01*
X156010684Y-91231741D01*
X155997907Y-91218964D01*
X156010684Y-91206187D01*
X156023461Y-91218964D01*
G37*
G36*
X152343783Y-92343310D02*
G01*
X152331006Y-92356087D01*
X152318229Y-92343310D01*
X152331006Y-92330533D01*
X152343783Y-92343310D01*
G37*
G36*
X156790060Y-91653370D02*
G01*
X156777284Y-91666147D01*
X156764507Y-91653370D01*
X156777284Y-91640594D01*
X156790060Y-91653370D01*
G37*
G36*
X159319839Y-93620976D02*
G01*
X159307062Y-93633753D01*
X159294286Y-93620976D01*
X159307062Y-93608199D01*
X159319839Y-93620976D01*
G37*
G36*
X163817223Y-91678924D02*
G01*
X163804447Y-91691700D01*
X163791670Y-91678924D01*
X163804447Y-91666147D01*
X163817223Y-91678924D01*
G37*
G36*
X161279427Y-92985872D02*
G01*
X161274668Y-92994920D01*
X161250591Y-93019323D01*
X161246098Y-93020473D01*
X161244355Y-93003967D01*
X161249115Y-92994920D01*
X161273191Y-92970516D01*
X161277684Y-92969366D01*
X161279427Y-92985872D01*
G37*
G36*
X150733923Y-91167857D02*
G01*
X150721147Y-91180634D01*
X150708370Y-91167857D01*
X150721147Y-91155081D01*
X150733923Y-91167857D01*
G37*
G36*
X150376177Y-92598843D02*
G01*
X150363400Y-92611620D01*
X150350624Y-92598843D01*
X150363400Y-92586067D01*
X150376177Y-92598843D01*
G37*
G36*
X160180134Y-92901224D02*
G01*
X160176626Y-92916416D01*
X160163098Y-92918260D01*
X160142065Y-92908910D01*
X160146063Y-92901224D01*
X160176389Y-92898166D01*
X160180134Y-92901224D01*
G37*
G36*
X158681006Y-93825403D02*
G01*
X158668229Y-93838179D01*
X158655453Y-93825403D01*
X158668229Y-93812626D01*
X158681006Y-93825403D01*
G37*
G36*
X160674165Y-92138883D02*
G01*
X160661388Y-92151660D01*
X160648612Y-92138883D01*
X160661388Y-92126107D01*
X160674165Y-92138883D01*
G37*
G36*
X163842776Y-91730030D02*
G01*
X163830000Y-91742807D01*
X163817223Y-91730030D01*
X163830000Y-91717254D01*
X163842776Y-91730030D01*
G37*
G36*
X154234728Y-93007696D02*
G01*
X154221952Y-93020473D01*
X154209175Y-93007696D01*
X154221952Y-92994920D01*
X154234728Y-93007696D01*
G37*
G36*
X158527686Y-92701057D02*
G01*
X158514909Y-92713833D01*
X158502133Y-92701057D01*
X158514909Y-92688280D01*
X158527686Y-92701057D01*
G37*
G36*
X151832716Y-92803270D02*
G01*
X151819939Y-92816046D01*
X151807163Y-92803270D01*
X151819939Y-92790493D01*
X151832716Y-92803270D01*
G37*
G36*
X153690091Y-91554887D02*
G01*
X153685332Y-91563934D01*
X153661255Y-91588337D01*
X153656762Y-91589487D01*
X153655019Y-91572981D01*
X153659779Y-91563934D01*
X153683855Y-91539530D01*
X153688348Y-91538380D01*
X153690091Y-91554887D01*
G37*
G36*
X154132515Y-92011117D02*
G01*
X154119738Y-92023894D01*
X154106962Y-92011117D01*
X154119738Y-91998340D01*
X154132515Y-92011117D01*
G37*
G36*
X162002937Y-91602264D02*
G01*
X161990161Y-91615040D01*
X161977384Y-91602264D01*
X161990161Y-91589487D01*
X162002937Y-91602264D01*
G37*
G36*
X159158502Y-91427120D02*
G01*
X159153742Y-91436167D01*
X159129666Y-91460571D01*
X159125173Y-91461720D01*
X159123429Y-91445214D01*
X159128189Y-91436167D01*
X159152266Y-91411764D01*
X159156758Y-91410614D01*
X159158502Y-91427120D01*
G37*
G36*
X159422052Y-92982143D02*
G01*
X159409275Y-92994920D01*
X159396499Y-92982143D01*
X159409275Y-92969366D01*
X159422052Y-92982143D01*
G37*
G36*
X160929698Y-92522183D02*
G01*
X160916921Y-92534960D01*
X160904145Y-92522183D01*
X160916921Y-92509407D01*
X160929698Y-92522183D01*
G37*
G36*
X149660684Y-92624397D02*
G01*
X149647907Y-92637173D01*
X149635131Y-92624397D01*
X149647907Y-92611620D01*
X149660684Y-92624397D01*
G37*
G36*
X156023461Y-92471077D02*
G01*
X156010684Y-92483853D01*
X155997907Y-92471077D01*
X156010684Y-92458300D01*
X156023461Y-92471077D01*
G37*
G36*
X161210785Y-92675503D02*
G01*
X161198008Y-92688280D01*
X161185231Y-92675503D01*
X161198008Y-92662727D01*
X161210785Y-92675503D01*
G37*
G36*
X155742374Y-92777716D02*
G01*
X155729597Y-92790493D01*
X155716821Y-92777716D01*
X155729597Y-92764940D01*
X155742374Y-92777716D01*
G37*
G36*
X161772958Y-91781137D02*
G01*
X161760181Y-91793914D01*
X161747404Y-91781137D01*
X161760181Y-91768360D01*
X161772958Y-91781137D01*
G37*
G36*
X153465104Y-91177606D02*
G01*
X153511749Y-91122458D01*
X153552886Y-91100667D01*
X153610787Y-91102698D01*
X153632138Y-91106085D01*
X153725793Y-91137708D01*
X153780012Y-91198197D01*
X153799964Y-91293901D01*
X153800322Y-91312695D01*
X153791024Y-91387868D01*
X153755968Y-91436745D01*
X153733340Y-91453324D01*
X153639734Y-91495885D01*
X153556250Y-91491525D01*
X153527364Y-91478753D01*
X153450294Y-91412552D01*
X153417802Y-91327989D01*
X153423095Y-91293247D01*
X153507910Y-91293247D01*
X153522959Y-91338008D01*
X153533799Y-91354304D01*
X153576246Y-91401629D01*
X153604345Y-91400792D01*
X153618888Y-91351243D01*
X153621449Y-91293494D01*
X153614415Y-91215747D01*
X153593345Y-91187117D01*
X153558282Y-91207624D01*
X153528148Y-91247103D01*
X153507910Y-91293247D01*
X153423095Y-91293247D01*
X153431958Y-91235070D01*
X153465104Y-91177606D01*
G37*
G36*
X160904145Y-92624397D02*
G01*
X160891368Y-92637173D01*
X160878591Y-92624397D01*
X160891368Y-92611620D01*
X160904145Y-92624397D01*
G37*
G36*
X149481811Y-92905483D02*
G01*
X149469034Y-92918260D01*
X149456257Y-92905483D01*
X149469034Y-92892706D01*
X149481811Y-92905483D01*
G37*
G36*
X162667324Y-92956590D02*
G01*
X162654547Y-92969366D01*
X162641770Y-92956590D01*
X162654547Y-92943813D01*
X162667324Y-92956590D01*
G37*
G36*
X149958806Y-92799011D02*
G01*
X149955298Y-92814202D01*
X149941770Y-92816046D01*
X149920737Y-92806697D01*
X149924735Y-92799011D01*
X149955061Y-92795953D01*
X149958806Y-92799011D01*
G37*
G36*
X152164909Y-93007696D02*
G01*
X152152133Y-93020473D01*
X152139356Y-93007696D01*
X152152133Y-92994920D01*
X152164909Y-93007696D01*
G37*
G36*
X153340362Y-92752163D02*
G01*
X153327585Y-92764940D01*
X153314809Y-92752163D01*
X153327585Y-92739386D01*
X153340362Y-92752163D01*
G37*
G36*
X151193883Y-92522183D02*
G01*
X151181106Y-92534960D01*
X151168330Y-92522183D01*
X151181106Y-92509407D01*
X151193883Y-92522183D01*
G37*
G36*
X151423863Y-91065644D02*
G01*
X151411086Y-91078421D01*
X151398310Y-91065644D01*
X151411086Y-91052867D01*
X151423863Y-91065644D01*
G37*
G36*
X151091670Y-91218964D02*
G01*
X151078893Y-91231741D01*
X151066117Y-91218964D01*
X151078893Y-91206187D01*
X151091670Y-91218964D01*
G37*
G36*
X150963903Y-92598843D02*
G01*
X150951127Y-92611620D01*
X150938350Y-92598843D01*
X150951127Y-92586067D01*
X150963903Y-92598843D01*
G37*
G36*
X162681710Y-92233804D02*
G01*
X162692904Y-92160269D01*
X162698754Y-92110073D01*
X162698944Y-92099239D01*
X162712025Y-92073141D01*
X162748611Y-92020419D01*
X162785952Y-91971473D01*
X162797192Y-91960010D01*
X162922857Y-91960010D01*
X162935634Y-91972787D01*
X162948410Y-91960010D01*
X162935634Y-91947234D01*
X162922857Y-91960010D01*
X162797192Y-91960010D01*
X162927528Y-91827083D01*
X163086774Y-91730568D01*
X163263973Y-91681843D01*
X163459409Y-91680818D01*
X163625573Y-91713319D01*
X163692142Y-91729541D01*
X163735018Y-91736229D01*
X163740826Y-91735683D01*
X163768636Y-91748565D01*
X163816325Y-91793025D01*
X163875024Y-91858384D01*
X163935867Y-91933964D01*
X163989984Y-92009089D01*
X164028507Y-92073079D01*
X164037433Y-92092824D01*
X164057651Y-92180173D01*
X164067569Y-92297133D01*
X164066875Y-92423197D01*
X164055255Y-92537854D01*
X164044933Y-92585654D01*
X164014051Y-92640428D01*
X163953156Y-92711999D01*
X163874591Y-92788564D01*
X163790698Y-92858322D01*
X163713821Y-92909471D01*
X163697586Y-92917761D01*
X163571138Y-92958686D01*
X163421942Y-92979445D01*
X163273459Y-92978261D01*
X163163844Y-92958220D01*
X162998658Y-92884177D01*
X162862084Y-92775947D01*
X162759105Y-92641019D01*
X162694706Y-92486881D01*
X162680795Y-92376151D01*
X162768468Y-92376151D01*
X162776067Y-92444547D01*
X162788702Y-92468947D01*
X162810337Y-92507683D01*
X162811061Y-92511536D01*
X162817450Y-92557067D01*
X162833344Y-92588735D01*
X162866888Y-92637222D01*
X162904335Y-92684375D01*
X162931936Y-92712045D01*
X162936184Y-92713833D01*
X162933698Y-92693139D01*
X162915523Y-92641770D01*
X162908776Y-92625217D01*
X162888136Y-92544033D01*
X162875861Y-92431017D01*
X162872408Y-92304827D01*
X162872887Y-92294896D01*
X163048609Y-92294896D01*
X163054313Y-92399164D01*
X163066844Y-92502511D01*
X163085902Y-92592090D01*
X163086813Y-92595261D01*
X163143426Y-92728396D01*
X163222317Y-92816573D01*
X163322536Y-92858964D01*
X163392708Y-92862063D01*
X163463314Y-92849957D01*
X163491741Y-92828564D01*
X163491725Y-92823354D01*
X163504200Y-92803354D01*
X163521479Y-92806084D01*
X163557688Y-92793350D01*
X163603009Y-92738373D01*
X163714903Y-92738373D01*
X163730501Y-92729871D01*
X163745279Y-92718481D01*
X163784643Y-92674365D01*
X163827922Y-92607527D01*
X163837009Y-92590714D01*
X163865122Y-92525000D01*
X163888341Y-92451178D01*
X163903786Y-92382628D01*
X163908577Y-92332732D01*
X163899833Y-92314872D01*
X163896061Y-92316411D01*
X163884826Y-92305365D01*
X163887411Y-92267790D01*
X163884445Y-92179415D01*
X163851964Y-92077089D01*
X163797145Y-91982440D01*
X163789538Y-91972787D01*
X163737360Y-91908904D01*
X163755182Y-91972787D01*
X163774185Y-92025672D01*
X163788726Y-92049447D01*
X163799615Y-92081193D01*
X163805589Y-92142105D01*
X163805823Y-92151660D01*
X163811101Y-92241899D01*
X163821916Y-92335225D01*
X163822179Y-92336922D01*
X163827276Y-92398075D01*
X163821323Y-92430946D01*
X163817888Y-92432747D01*
X163803445Y-92455546D01*
X163788578Y-92513448D01*
X163782333Y-92551547D01*
X163765829Y-92632208D01*
X163743407Y-92695694D01*
X163734141Y-92711255D01*
X163714903Y-92738373D01*
X163603009Y-92738373D01*
X163606011Y-92734732D01*
X163626935Y-92701039D01*
X163680468Y-92569699D01*
X163709127Y-92410587D01*
X163711016Y-92241578D01*
X163690209Y-92103691D01*
X163659392Y-92008061D01*
X163619521Y-91928508D01*
X163577295Y-91875163D01*
X163539410Y-91858158D01*
X163530142Y-91861502D01*
X163514763Y-91862325D01*
X163520127Y-91850251D01*
X163515445Y-91818987D01*
X163474756Y-91789806D01*
X163412758Y-91771172D01*
X163378108Y-91768456D01*
X163312784Y-91781344D01*
X163245238Y-91813291D01*
X163190215Y-91854508D01*
X163162458Y-91895207D01*
X163162987Y-91911274D01*
X163165500Y-91937654D01*
X163156281Y-91936585D01*
X163132871Y-91946345D01*
X163107040Y-91985597D01*
X163088620Y-92034219D01*
X163087442Y-92072087D01*
X163088788Y-92074733D01*
X163083263Y-92101079D01*
X163075435Y-92105060D01*
X163058872Y-92134996D01*
X163050029Y-92202558D01*
X163048609Y-92294896D01*
X162872887Y-92294896D01*
X162878229Y-92184120D01*
X162893781Y-92087555D01*
X162895520Y-92081220D01*
X162907973Y-92019612D01*
X162899696Y-92001431D01*
X162874350Y-92025192D01*
X162835594Y-92089413D01*
X162825173Y-92109741D01*
X162794707Y-92192139D01*
X162775243Y-92286479D01*
X162768468Y-92376151D01*
X162680795Y-92376151D01*
X162673869Y-92321023D01*
X162681710Y-92233804D01*
G37*
G36*
X149584024Y-91142304D02*
G01*
X149571247Y-91155081D01*
X149558471Y-91142304D01*
X149571247Y-91129527D01*
X149584024Y-91142304D01*
G37*
G36*
X158527686Y-92368863D02*
G01*
X158514909Y-92381640D01*
X158502133Y-92368863D01*
X158514909Y-92356087D01*
X158527686Y-92368863D01*
G37*
G36*
X157914406Y-92087777D02*
G01*
X157901630Y-92100553D01*
X157888853Y-92087777D01*
X157901630Y-92075000D01*
X157914406Y-92087777D01*
G37*
G36*
X163612797Y-92164437D02*
G01*
X163600020Y-92177213D01*
X163587243Y-92164437D01*
X163600020Y-92151660D01*
X163612797Y-92164437D01*
G37*
G36*
X154618028Y-91704477D02*
G01*
X154605251Y-91717254D01*
X154592475Y-91704477D01*
X154605251Y-91691700D01*
X154618028Y-91704477D01*
G37*
G36*
X157991066Y-92522183D02*
G01*
X157978290Y-92534960D01*
X157965513Y-92522183D01*
X157978290Y-92509407D01*
X157991066Y-92522183D01*
G37*
G36*
X157829229Y-93233417D02*
G01*
X157825721Y-93248609D01*
X157812193Y-93250453D01*
X157791160Y-93241103D01*
X157795157Y-93233417D01*
X157825483Y-93230359D01*
X157829229Y-93233417D01*
G37*
G36*
X157096700Y-91960010D02*
G01*
X157083923Y-91972787D01*
X157071147Y-91960010D01*
X157083923Y-91947234D01*
X157096700Y-91960010D01*
G37*
G36*
X164881945Y-92799011D02*
G01*
X164885003Y-92829337D01*
X164881945Y-92833082D01*
X164866753Y-92829574D01*
X164864909Y-92816046D01*
X164874259Y-92795013D01*
X164881945Y-92799011D01*
G37*
G36*
X156483420Y-92982143D02*
G01*
X156470644Y-92994920D01*
X156457867Y-92982143D01*
X156470644Y-92969366D01*
X156483420Y-92982143D01*
G37*
G36*
X160980805Y-92598843D02*
G01*
X160968028Y-92611620D01*
X160955251Y-92598843D01*
X160968028Y-92586067D01*
X160980805Y-92598843D01*
G37*
G36*
X157991066Y-93748743D02*
G01*
X157978290Y-93761519D01*
X157965513Y-93748743D01*
X157978290Y-93735966D01*
X157991066Y-93748743D01*
G37*
G36*
X155069971Y-91605993D02*
G01*
X155065211Y-91615040D01*
X155041134Y-91639444D01*
X155036642Y-91640594D01*
X155034898Y-91624088D01*
X155039658Y-91615040D01*
X155063734Y-91590637D01*
X155068227Y-91589487D01*
X155069971Y-91605993D01*
G37*
G36*
X154004748Y-91806690D02*
G01*
X153991972Y-91819467D01*
X153979195Y-91806690D01*
X153991972Y-91793914D01*
X154004748Y-91806690D01*
G37*
G36*
X151091670Y-91525604D02*
G01*
X151078893Y-91538380D01*
X151066117Y-91525604D01*
X151078893Y-91512827D01*
X151091670Y-91525604D01*
G37*
G36*
X149481811Y-90784558D02*
G01*
X149469034Y-90797334D01*
X149456257Y-90784558D01*
X149469034Y-90771781D01*
X149481811Y-90784558D01*
G37*
G36*
X161287444Y-91627817D02*
G01*
X161274668Y-91640594D01*
X161261891Y-91627817D01*
X161274668Y-91615040D01*
X161287444Y-91627817D01*
G37*
G36*
X156866720Y-92931036D02*
G01*
X156853943Y-92943813D01*
X156841167Y-92931036D01*
X156853943Y-92918260D01*
X156866720Y-92931036D01*
G37*
G36*
X149430704Y-90861217D02*
G01*
X149417927Y-90873994D01*
X149405151Y-90861217D01*
X149417927Y-90848441D01*
X149430704Y-90861217D01*
G37*
G36*
X151937539Y-92194719D02*
G01*
X151974746Y-92065270D01*
X152042156Y-91951479D01*
X152125697Y-91857335D01*
X152260768Y-91753105D01*
X152414772Y-91693175D01*
X152590573Y-91677003D01*
X152791038Y-91704049D01*
X152853850Y-91719804D01*
X152937934Y-91764555D01*
X153021380Y-91844690D01*
X153093544Y-91945474D01*
X153143777Y-92052174D01*
X153161489Y-92145531D01*
X153172179Y-92210464D01*
X153193430Y-92250588D01*
X153208660Y-92275091D01*
X153199819Y-92278226D01*
X153166954Y-92276803D01*
X153091869Y-92275897D01*
X152983451Y-92275543D01*
X152850583Y-92275775D01*
X152733471Y-92276401D01*
X152292676Y-92279427D01*
X152292818Y-92349698D01*
X152317088Y-92503813D01*
X152384482Y-92646027D01*
X152434777Y-92709858D01*
X152488749Y-92763611D01*
X152521755Y-92782570D01*
X152544668Y-92771916D01*
X152550310Y-92764940D01*
X152570575Y-92740969D01*
X152567569Y-92761029D01*
X152565010Y-92769213D01*
X152571083Y-92811431D01*
X152615171Y-92835428D01*
X152687258Y-92840448D01*
X152777330Y-92825734D01*
X152871387Y-92792357D01*
X152940696Y-92755117D01*
X152989677Y-92718369D01*
X152999153Y-92706829D01*
X153051421Y-92659479D01*
X153117063Y-92653877D01*
X153174934Y-92689018D01*
X153203174Y-92724255D01*
X153195113Y-92730423D01*
X153182298Y-92726156D01*
X153135218Y-92733317D01*
X153093529Y-92769775D01*
X153035192Y-92825774D01*
X152969074Y-92872596D01*
X152918648Y-92912933D01*
X152896837Y-92952966D01*
X152896877Y-92956541D01*
X152891314Y-92982211D01*
X152867781Y-92969495D01*
X152819449Y-92955057D01*
X152734466Y-92965529D01*
X152723539Y-92967974D01*
X152599398Y-92988531D01*
X152485518Y-92985658D01*
X152394889Y-92969945D01*
X152250957Y-92927129D01*
X152141100Y-92862321D01*
X152050591Y-92764720D01*
X151993383Y-92675503D01*
X151954121Y-92600590D01*
X151932449Y-92534301D01*
X151923944Y-92456285D01*
X151923952Y-92396084D01*
X152011589Y-92396084D01*
X152013946Y-92455668D01*
X152025541Y-92473154D01*
X152053163Y-92457489D01*
X152056308Y-92455041D01*
X152086575Y-92432941D01*
X152080235Y-92446168D01*
X152065975Y-92464665D01*
X152047999Y-92526848D01*
X152071771Y-92607593D01*
X152134562Y-92700291D01*
X152185940Y-92755142D01*
X152243486Y-92805602D01*
X152286986Y-92834657D01*
X152309233Y-92839953D01*
X152303022Y-92819135D01*
X152274566Y-92784105D01*
X152199498Y-92681537D01*
X152150997Y-92561710D01*
X152124507Y-92411578D01*
X152118973Y-92338679D01*
X152116864Y-92222768D01*
X152119420Y-92177213D01*
X152292676Y-92177213D01*
X152829296Y-92177213D01*
X152829296Y-92099733D01*
X152810661Y-91979362D01*
X152769102Y-91896127D01*
X152895543Y-91896127D01*
X152897242Y-91918862D01*
X152906355Y-91977599D01*
X152916754Y-92036670D01*
X152939191Y-92125807D01*
X152965051Y-92171955D01*
X152977365Y-92177213D01*
X152999348Y-92163471D01*
X152998280Y-92115632D01*
X152994071Y-92094540D01*
X152975333Y-92035866D01*
X152946898Y-91971430D01*
X152917568Y-91918957D01*
X152896146Y-91896170D01*
X152895543Y-91896127D01*
X152769102Y-91896127D01*
X152759911Y-91877720D01*
X152684771Y-91804626D01*
X152592970Y-91769897D01*
X152568480Y-91768360D01*
X152492127Y-91788699D01*
X152417703Y-91840106D01*
X152360903Y-91908167D01*
X152337420Y-91978465D01*
X152337394Y-91980613D01*
X152330239Y-92030970D01*
X152315035Y-92049447D01*
X152298221Y-92071333D01*
X152292676Y-92113330D01*
X152292676Y-92177213D01*
X152119420Y-92177213D01*
X152122583Y-92120832D01*
X152135085Y-92050807D01*
X152135908Y-92048353D01*
X152152036Y-91996348D01*
X152147568Y-91983860D01*
X152126525Y-91998385D01*
X152101472Y-92034301D01*
X152102815Y-92052342D01*
X152099731Y-92073807D01*
X152092791Y-92075000D01*
X152071816Y-92098005D01*
X152049541Y-92157313D01*
X152029649Y-92238365D01*
X152015823Y-92326599D01*
X152011589Y-92396084D01*
X151923952Y-92396084D01*
X151923958Y-92356087D01*
X151937539Y-92194719D01*
G37*
G36*
X163280603Y-91908904D02*
G01*
X163267827Y-91921680D01*
X163255050Y-91908904D01*
X163267827Y-91896127D01*
X163280603Y-91908904D01*
G37*
G36*
X149456257Y-91040091D02*
G01*
X149443481Y-91052867D01*
X149430704Y-91040091D01*
X149443481Y-91027314D01*
X149456257Y-91040091D01*
G37*
G36*
X161083018Y-91960010D02*
G01*
X161070241Y-91972787D01*
X161057465Y-91960010D01*
X161070241Y-91947234D01*
X161083018Y-91960010D01*
G37*
G36*
X159185152Y-93797187D02*
G01*
X159177531Y-93808802D01*
X159151613Y-93810609D01*
X159124347Y-93804368D01*
X159136174Y-93795170D01*
X159176111Y-93792124D01*
X159185152Y-93797187D01*
G37*
G36*
X152420442Y-91627817D02*
G01*
X152407666Y-91640594D01*
X152394889Y-91627817D01*
X152407666Y-91615040D01*
X152420442Y-91627817D01*
G37*
G36*
X150529497Y-92828823D02*
G01*
X150516720Y-92841600D01*
X150503943Y-92828823D01*
X150516720Y-92816046D01*
X150529497Y-92828823D01*
G37*
G36*
X153851428Y-91730030D02*
G01*
X153838652Y-91742807D01*
X153825875Y-91730030D01*
X153838652Y-91717254D01*
X153851428Y-91730030D01*
G37*
G36*
X161824064Y-92931036D02*
G01*
X161811288Y-92943813D01*
X161798511Y-92931036D01*
X161811288Y-92918260D01*
X161824064Y-92931036D01*
G37*
G36*
X149481811Y-91167857D02*
G01*
X149469034Y-91180634D01*
X149456257Y-91167857D01*
X149469034Y-91155081D01*
X149481811Y-91167857D01*
G37*
G36*
X158834326Y-92752163D02*
G01*
X158821549Y-92764940D01*
X158808772Y-92752163D01*
X158821549Y-92739386D01*
X158834326Y-92752163D01*
G37*
G36*
X149532917Y-91116751D02*
G01*
X149520141Y-91129527D01*
X149507364Y-91116751D01*
X149520141Y-91103974D01*
X149532917Y-91116751D01*
G37*
G36*
X150503943Y-90784558D02*
G01*
X150491167Y-90797334D01*
X150478390Y-90784558D01*
X150491167Y-90771781D01*
X150503943Y-90784558D01*
G37*
G36*
X151986036Y-92828823D02*
G01*
X151973259Y-92841600D01*
X151960483Y-92828823D01*
X151973259Y-92816046D01*
X151986036Y-92828823D01*
G37*
G36*
X153417022Y-91448944D02*
G01*
X153404245Y-91461720D01*
X153391469Y-91448944D01*
X153404245Y-91436167D01*
X153417022Y-91448944D01*
G37*
G36*
X153902535Y-91627817D02*
G01*
X153889758Y-91640594D01*
X153876982Y-91627817D01*
X153889758Y-91615040D01*
X153902535Y-91627817D01*
G37*
G36*
X164456056Y-91602264D02*
G01*
X164443280Y-91615040D01*
X164430503Y-91602264D01*
X164443280Y-91589487D01*
X164456056Y-91602264D01*
G37*
G36*
X155077988Y-91985564D02*
G01*
X155065211Y-91998340D01*
X155052434Y-91985564D01*
X155065211Y-91972787D01*
X155077988Y-91985564D01*
G37*
G36*
X158246599Y-93774296D02*
G01*
X158233823Y-93787073D01*
X158221046Y-93774296D01*
X158233823Y-93761519D01*
X158246599Y-93774296D01*
G37*
G36*
X159796834Y-92977884D02*
G01*
X159793326Y-92993076D01*
X159779799Y-92994920D01*
X159758765Y-92985570D01*
X159762763Y-92977884D01*
X159793089Y-92974826D01*
X159796834Y-92977884D01*
G37*
G36*
X150376177Y-91116751D02*
G01*
X150363400Y-91129527D01*
X150350624Y-91116751D01*
X150363400Y-91103974D01*
X150376177Y-91116751D01*
G37*
G36*
X156278994Y-92419970D02*
G01*
X156266217Y-92432747D01*
X156253440Y-92419970D01*
X156266217Y-92407193D01*
X156278994Y-92419970D01*
G37*
G36*
X151398310Y-92241097D02*
G01*
X151385533Y-92253873D01*
X151372756Y-92241097D01*
X151385533Y-92228320D01*
X151398310Y-92241097D01*
G37*
G36*
X163842776Y-91602264D02*
G01*
X163830000Y-91615040D01*
X163817223Y-91602264D01*
X163830000Y-91589487D01*
X163842776Y-91602264D01*
G37*
G36*
X160546398Y-92113330D02*
G01*
X160533622Y-92126107D01*
X160520845Y-92113330D01*
X160533622Y-92100553D01*
X160546398Y-92113330D01*
G37*
G36*
X161338551Y-92982143D02*
G01*
X161325774Y-92994920D01*
X161312998Y-92982143D01*
X161325774Y-92969366D01*
X161338551Y-92982143D01*
G37*
G36*
X154541368Y-92982143D02*
G01*
X154528591Y-92994920D01*
X154515815Y-92982143D01*
X154528591Y-92969366D01*
X154541368Y-92982143D01*
G37*
G36*
X153316574Y-91680015D02*
G01*
X153339233Y-91704683D01*
X153313426Y-91716754D01*
X153300524Y-91717254D01*
X153274205Y-91704681D01*
X153276736Y-91691284D01*
X153307361Y-91676543D01*
X153316574Y-91680015D01*
G37*
G36*
X155026881Y-92982143D02*
G01*
X155014104Y-92994920D01*
X155001328Y-92982143D01*
X155014104Y-92969366D01*
X155026881Y-92982143D01*
G37*
G36*
X152445996Y-92522183D02*
G01*
X152433219Y-92534960D01*
X152420442Y-92522183D01*
X152433219Y-92509407D01*
X152445996Y-92522183D01*
G37*
G36*
X162079597Y-92522183D02*
G01*
X162066821Y-92534960D01*
X162054044Y-92522183D01*
X162066821Y-92509407D01*
X162079597Y-92522183D01*
G37*
G36*
X161862394Y-91793914D02*
G01*
X161812159Y-91778231D01*
X161798548Y-91743803D01*
X161824111Y-91709556D01*
X161849618Y-91699104D01*
X161891057Y-91678238D01*
X161900724Y-91661659D01*
X161916647Y-91649374D01*
X161926985Y-91653808D01*
X161964271Y-91649985D01*
X162011728Y-91608382D01*
X162063029Y-91539587D01*
X162111850Y-91454190D01*
X162151865Y-91362783D01*
X162176748Y-91275953D01*
X162181811Y-91227189D01*
X162201899Y-91187931D01*
X162232917Y-91180634D01*
X162257546Y-91184729D01*
X162272937Y-91203578D01*
X162281472Y-91247024D01*
X162285529Y-91324912D01*
X162286967Y-91404226D01*
X162287857Y-91510495D01*
X162287683Y-91600269D01*
X162286508Y-91658917D01*
X162285842Y-91669694D01*
X162293683Y-91695773D01*
X162331060Y-91708731D01*
X162404277Y-91712473D01*
X162500087Y-91713656D01*
X162555714Y-91717133D01*
X162582079Y-91725431D01*
X162590106Y-91741075D01*
X162590664Y-91755584D01*
X162578889Y-91777840D01*
X162537148Y-91789790D01*
X162455817Y-91793838D01*
X162437344Y-91793914D01*
X162284024Y-91793914D01*
X162284024Y-92252210D01*
X162285322Y-92444590D01*
X162289868Y-92591532D01*
X162298643Y-92698653D01*
X162312628Y-92771570D01*
X162332803Y-92815902D01*
X162360147Y-92837266D01*
X162386874Y-92841600D01*
X162451701Y-92828920D01*
X162522266Y-92797970D01*
X162577895Y-92759384D01*
X162596850Y-92733604D01*
X162613944Y-92725074D01*
X162637633Y-92757209D01*
X162651972Y-92797067D01*
X162638063Y-92830313D01*
X162588593Y-92873344D01*
X162584420Y-92876530D01*
X162509812Y-92923161D01*
X162434760Y-92955363D01*
X162424567Y-92958133D01*
X162361908Y-92975662D01*
X162322803Y-92990855D01*
X162279952Y-93005518D01*
X162239063Y-93007184D01*
X162221020Y-92995912D01*
X162222834Y-92990562D01*
X162212948Y-92973600D01*
X162185279Y-92969366D01*
X162112599Y-92946509D01*
X162041106Y-92886369D01*
X161982890Y-92801594D01*
X161954954Y-92728428D01*
X161944996Y-92663215D01*
X161936539Y-92558900D01*
X161930242Y-92427481D01*
X161926759Y-92280955D01*
X161926277Y-92204228D01*
X161926277Y-92196160D01*
X162025378Y-92196160D01*
X162027569Y-92342179D01*
X162033068Y-92480452D01*
X162041822Y-92601192D01*
X162053776Y-92694612D01*
X162068877Y-92750925D01*
X162071805Y-92756184D01*
X162108841Y-92804089D01*
X162129894Y-92807970D01*
X162136131Y-92766013D01*
X162128717Y-92676406D01*
X162127819Y-92669115D01*
X162121415Y-92592819D01*
X162115705Y-92477984D01*
X162111133Y-92337177D01*
X162108145Y-92182965D01*
X162107307Y-92091036D01*
X162106095Y-91933324D01*
X162103840Y-91820350D01*
X162099881Y-91745748D01*
X162093558Y-91703152D01*
X162084211Y-91686195D01*
X162071177Y-91688511D01*
X162065938Y-91692433D01*
X162050777Y-91730373D01*
X162039195Y-91809502D01*
X162031137Y-91920035D01*
X162026550Y-92052183D01*
X162025378Y-92196160D01*
X161926277Y-92196160D01*
X161926277Y-91793914D01*
X161862394Y-91793914D01*
G37*
G36*
X149992877Y-92573290D02*
G01*
X149980100Y-92586067D01*
X149967324Y-92573290D01*
X149980100Y-92560513D01*
X149992877Y-92573290D01*
G37*
G36*
X156943380Y-91602264D02*
G01*
X156930603Y-91615040D01*
X156917827Y-91602264D01*
X156930603Y-91589487D01*
X156943380Y-91602264D01*
G37*
G36*
X154183622Y-92113330D02*
G01*
X154170845Y-92126107D01*
X154158068Y-92113330D01*
X154170845Y-92100553D01*
X154183622Y-92113330D01*
G37*
G36*
X161185231Y-91627817D02*
G01*
X161172455Y-91640594D01*
X161159678Y-91627817D01*
X161172455Y-91615040D01*
X161185231Y-91627817D01*
G37*
G36*
X149737344Y-92982143D02*
G01*
X149724567Y-92994920D01*
X149711791Y-92982143D01*
X149724567Y-92969366D01*
X149737344Y-92982143D01*
G37*
G36*
X164174970Y-91857797D02*
G01*
X164162193Y-91870574D01*
X164149416Y-91857797D01*
X164162193Y-91845020D01*
X164174970Y-91857797D01*
G37*
G36*
X151551630Y-92547737D02*
G01*
X151538853Y-92560513D01*
X151526076Y-92547737D01*
X151538853Y-92534960D01*
X151551630Y-92547737D01*
G37*
G36*
X153876982Y-91321177D02*
G01*
X153864205Y-91333954D01*
X153851428Y-91321177D01*
X153864205Y-91308401D01*
X153876982Y-91321177D01*
G37*
G36*
X150733923Y-92138883D02*
G01*
X150721147Y-92151660D01*
X150708370Y-92138883D01*
X150721147Y-92126107D01*
X150733923Y-92138883D01*
G37*
G36*
X161006358Y-91960010D02*
G01*
X160993581Y-91972787D01*
X160980805Y-91960010D01*
X160993581Y-91947234D01*
X161006358Y-91960010D01*
G37*
G36*
X159217626Y-91985564D02*
G01*
X159204849Y-91998340D01*
X159192072Y-91985564D01*
X159204849Y-91972787D01*
X159217626Y-91985564D01*
G37*
G36*
X165248209Y-91653370D02*
G01*
X165235432Y-91666147D01*
X165222656Y-91653370D01*
X165235432Y-91640594D01*
X165248209Y-91653370D01*
G37*
G36*
X160571952Y-91934457D02*
G01*
X160559175Y-91947234D01*
X160546398Y-91934457D01*
X160559175Y-91921680D01*
X160571952Y-91934457D01*
G37*
G36*
X162897304Y-93007696D02*
G01*
X162884527Y-93020473D01*
X162871750Y-93007696D01*
X162884527Y-92994920D01*
X162897304Y-93007696D01*
G37*
G36*
X158979128Y-93182311D02*
G01*
X158982186Y-93212637D01*
X158979128Y-93216382D01*
X158963937Y-93212874D01*
X158962092Y-93199346D01*
X158971442Y-93178313D01*
X158979128Y-93182311D01*
G37*
G36*
X158016327Y-92196984D02*
G01*
X158016620Y-92202767D01*
X157996975Y-92227338D01*
X157989558Y-92228320D01*
X157974297Y-92212665D01*
X157978290Y-92202767D01*
X158001252Y-92178389D01*
X158005351Y-92177213D01*
X158016327Y-92196984D01*
G37*
G36*
X149481811Y-91091197D02*
G01*
X149469034Y-91103974D01*
X149456257Y-91091197D01*
X149469034Y-91078421D01*
X149481811Y-91091197D01*
G37*
G36*
X153621449Y-92726610D02*
G01*
X153608672Y-92739386D01*
X153595895Y-92726610D01*
X153608672Y-92713833D01*
X153621449Y-92726610D01*
G37*
G36*
X156551563Y-91853538D02*
G01*
X156554621Y-91883864D01*
X156551563Y-91887609D01*
X156536371Y-91884101D01*
X156534527Y-91870574D01*
X156543877Y-91849540D01*
X156551563Y-91853538D01*
G37*
G36*
X150810583Y-91627817D02*
G01*
X150797807Y-91640594D01*
X150785030Y-91627817D01*
X150797807Y-91615040D01*
X150810583Y-91627817D01*
G37*
G36*
X158885432Y-92649950D02*
G01*
X158872656Y-92662727D01*
X158859879Y-92649950D01*
X158872656Y-92637173D01*
X158885432Y-92649950D01*
G37*
G36*
X164123863Y-91883350D02*
G01*
X164111086Y-91896127D01*
X164098310Y-91883350D01*
X164111086Y-91870574D01*
X164123863Y-91883350D01*
G37*
G36*
X152081329Y-91829582D02*
G01*
X152073708Y-91841196D01*
X152047790Y-91843003D01*
X152020524Y-91836762D01*
X152032351Y-91827564D01*
X152072288Y-91824518D01*
X152081329Y-91829582D01*
G37*
G36*
X157965513Y-92011117D02*
G01*
X157952736Y-92023894D01*
X157939960Y-92011117D01*
X157952736Y-91998340D01*
X157965513Y-92011117D01*
G37*
G36*
X155180201Y-91602264D02*
G01*
X155167424Y-91615040D01*
X155154648Y-91602264D01*
X155167424Y-91589487D01*
X155180201Y-91602264D01*
G37*
G36*
X161006358Y-92726610D02*
G01*
X160993581Y-92739386D01*
X160980805Y-92726610D01*
X160993581Y-92713833D01*
X161006358Y-92726610D01*
G37*
G36*
X155410181Y-93007696D02*
G01*
X155397404Y-93020473D01*
X155384628Y-93007696D01*
X155397404Y-92994920D01*
X155410181Y-93007696D01*
G37*
G36*
X150401730Y-91218964D02*
G01*
X150388954Y-91231741D01*
X150376177Y-91218964D01*
X150388954Y-91206187D01*
X150401730Y-91218964D01*
G37*
G36*
X162820644Y-92343310D02*
G01*
X162807867Y-92356087D01*
X162795090Y-92343310D01*
X162807867Y-92330533D01*
X162820644Y-92343310D01*
G37*
G36*
X152156125Y-91681802D02*
G01*
X152152133Y-91691700D01*
X152129170Y-91716078D01*
X152125071Y-91717254D01*
X152114096Y-91697483D01*
X152113803Y-91691700D01*
X152133447Y-91667129D01*
X152140864Y-91666147D01*
X152156125Y-91681802D01*
G37*
G36*
X161185231Y-92956590D02*
G01*
X161172455Y-92969366D01*
X161159678Y-92956590D01*
X161172455Y-92943813D01*
X161185231Y-92956590D01*
G37*
G36*
X158425473Y-91627817D02*
G01*
X158412696Y-91640594D01*
X158399919Y-91627817D01*
X158412696Y-91615040D01*
X158425473Y-91627817D01*
G37*
G36*
X151934929Y-92956590D02*
G01*
X151922153Y-92969366D01*
X151909376Y-92956590D01*
X151922153Y-92943813D01*
X151934929Y-92956590D01*
G37*
G36*
X152701529Y-91883350D02*
G01*
X152688752Y-91896127D01*
X152675976Y-91883350D01*
X152688752Y-91870574D01*
X152701529Y-91883350D01*
G37*
G36*
X163510583Y-92011117D02*
G01*
X163497807Y-92023894D01*
X163485030Y-92011117D01*
X163497807Y-91998340D01*
X163510583Y-92011117D01*
G37*
G36*
X159319839Y-93467656D02*
G01*
X159307062Y-93480433D01*
X159294286Y-93467656D01*
X159307062Y-93454879D01*
X159319839Y-93467656D01*
G37*
G36*
X156023461Y-92982143D02*
G01*
X156010684Y-92994920D01*
X155997907Y-92982143D01*
X156010684Y-92969366D01*
X156023461Y-92982143D01*
G37*
G36*
X157786640Y-93416549D02*
G01*
X157773863Y-93429326D01*
X157761086Y-93416549D01*
X157773863Y-93403773D01*
X157786640Y-93416549D01*
G37*
G36*
X150759477Y-91602264D02*
G01*
X150746700Y-91615040D01*
X150733923Y-91602264D01*
X150746700Y-91589487D01*
X150759477Y-91602264D01*
G37*
G36*
X160597505Y-92189990D02*
G01*
X160584728Y-92202767D01*
X160571952Y-92189990D01*
X160584728Y-92177213D01*
X160597505Y-92189990D01*
G37*
G36*
X152088249Y-92317757D02*
G01*
X152075473Y-92330533D01*
X152062696Y-92317757D01*
X152075473Y-92304980D01*
X152088249Y-92317757D01*
G37*
G36*
X156330100Y-92675503D02*
G01*
X156317324Y-92688280D01*
X156304547Y-92675503D01*
X156317324Y-92662727D01*
X156330100Y-92675503D01*
G37*
G36*
X154081408Y-91678924D02*
G01*
X154068632Y-91691700D01*
X154055855Y-91678924D01*
X154068632Y-91666147D01*
X154081408Y-91678924D01*
G37*
G36*
X161083018Y-92113330D02*
G01*
X161070241Y-92126107D01*
X161057465Y-92113330D01*
X161070241Y-92100553D01*
X161083018Y-92113330D01*
G37*
G36*
X162335131Y-91193411D02*
G01*
X162322354Y-91206187D01*
X162309577Y-91193411D01*
X162322354Y-91180634D01*
X162335131Y-91193411D01*
G37*
G36*
X158067726Y-93033250D02*
G01*
X158054950Y-93046026D01*
X158042173Y-93033250D01*
X158054950Y-93020473D01*
X158067726Y-93033250D01*
G37*
G36*
X165197102Y-91602264D02*
G01*
X165184326Y-91615040D01*
X165171549Y-91602264D01*
X165184326Y-91589487D01*
X165197102Y-91602264D01*
G37*
G36*
X158297706Y-91602264D02*
G01*
X158284929Y-91615040D01*
X158272153Y-91602264D01*
X158284929Y-91589487D01*
X158297706Y-91602264D01*
G37*
G36*
X161926277Y-92752163D02*
G01*
X161913501Y-92764940D01*
X161900724Y-92752163D01*
X161913501Y-92739386D01*
X161926277Y-92752163D01*
G37*
G36*
X154643581Y-91781137D02*
G01*
X154630805Y-91793914D01*
X154618028Y-91781137D01*
X154630805Y-91768360D01*
X154643581Y-91781137D01*
G37*
G36*
X150836137Y-92343310D02*
G01*
X150823360Y-92356087D01*
X150810583Y-92343310D01*
X150823360Y-92330533D01*
X150836137Y-92343310D01*
G37*
G36*
X151117223Y-90912324D02*
G01*
X151104447Y-90925101D01*
X151091670Y-90912324D01*
X151104447Y-90899547D01*
X151117223Y-90912324D01*
G37*
G36*
X155789533Y-91599824D02*
G01*
X155816750Y-91623578D01*
X155819034Y-91629325D01*
X155806907Y-91639828D01*
X155781659Y-91616294D01*
X155778264Y-91611092D01*
X155775252Y-91593606D01*
X155789533Y-91599824D01*
G37*
G36*
X164123863Y-92854376D02*
G01*
X164111086Y-92867153D01*
X164098310Y-92854376D01*
X164111086Y-92841600D01*
X164123863Y-92854376D01*
G37*
G36*
X159984225Y-92113330D02*
G01*
X159971449Y-92126107D01*
X159958672Y-92113330D01*
X159971449Y-92100553D01*
X159984225Y-92113330D01*
G37*
G36*
X158706559Y-91832244D02*
G01*
X158693783Y-91845020D01*
X158681006Y-91832244D01*
X158693783Y-91819467D01*
X158706559Y-91832244D01*
G37*
G36*
X158246599Y-91678924D02*
G01*
X158233823Y-91691700D01*
X158221046Y-91678924D01*
X158233823Y-91666147D01*
X158246599Y-91678924D01*
G37*
G36*
X163280603Y-91960010D02*
G01*
X163267827Y-91972787D01*
X163255050Y-91960010D01*
X163267827Y-91947234D01*
X163280603Y-91960010D01*
G37*
G36*
X164711589Y-93007696D02*
G01*
X164698813Y-93020473D01*
X164686036Y-93007696D01*
X164698813Y-92994920D01*
X164711589Y-93007696D01*
G37*
G36*
X160393078Y-91704477D02*
G01*
X160380302Y-91717254D01*
X160367525Y-91704477D01*
X160380302Y-91691700D01*
X160393078Y-91704477D01*
G37*
G36*
X158604346Y-91934457D02*
G01*
X158591569Y-91947234D01*
X158578793Y-91934457D01*
X158591569Y-91921680D01*
X158604346Y-91934457D01*
G37*
G36*
X159345392Y-91755584D02*
G01*
X159332616Y-91768360D01*
X159319839Y-91755584D01*
X159332616Y-91742807D01*
X159345392Y-91755584D01*
G37*
G36*
X155384628Y-91602264D02*
G01*
X155371851Y-91615040D01*
X155359074Y-91602264D01*
X155371851Y-91589487D01*
X155384628Y-91602264D01*
G37*
G36*
X153365915Y-91193411D02*
G01*
X153353139Y-91206187D01*
X153340362Y-91193411D01*
X153353139Y-91180634D01*
X153365915Y-91193411D01*
G37*
G36*
X160801931Y-92164437D02*
G01*
X160789155Y-92177213D01*
X160776378Y-92164437D01*
X160789155Y-92151660D01*
X160801931Y-92164437D01*
G37*
G36*
X157403340Y-91960010D02*
G01*
X157390563Y-91972787D01*
X157377787Y-91960010D01*
X157390563Y-91947234D01*
X157403340Y-91960010D01*
G37*
G36*
X161415211Y-93007696D02*
G01*
X161402434Y-93020473D01*
X161389658Y-93007696D01*
X161402434Y-92994920D01*
X161415211Y-93007696D01*
G37*
G36*
X151142776Y-91934457D02*
G01*
X151130000Y-91947234D01*
X151117223Y-91934457D01*
X151130000Y-91921680D01*
X151142776Y-91934457D01*
G37*
G36*
X161210785Y-92394417D02*
G01*
X161198008Y-92407193D01*
X161185231Y-92394417D01*
X161198008Y-92381640D01*
X161210785Y-92394417D01*
G37*
G36*
X158629899Y-92419970D02*
G01*
X158617123Y-92432747D01*
X158604346Y-92419970D01*
X158617123Y-92407193D01*
X158629899Y-92419970D01*
G37*
G36*
X156014943Y-92696798D02*
G01*
X156018001Y-92727123D01*
X156014943Y-92730869D01*
X155999751Y-92727361D01*
X155997907Y-92713833D01*
X156007257Y-92692800D01*
X156014943Y-92696798D01*
G37*
G36*
X151132687Y-92696788D02*
G01*
X151064318Y-92627852D01*
X151013362Y-92574011D01*
X150988023Y-92544028D01*
X150986708Y-92540815D01*
X150977585Y-92517367D01*
X150950344Y-92461574D01*
X150911494Y-92385876D01*
X150867543Y-92302710D01*
X150825001Y-92224515D01*
X150790376Y-92163728D01*
X150783071Y-92151660D01*
X150752628Y-92095670D01*
X150736795Y-92062224D01*
X150720167Y-92035597D01*
X150866780Y-92035597D01*
X150881704Y-92074429D01*
X150914340Y-92144764D01*
X150955591Y-92227715D01*
X151062691Y-92414467D01*
X151182610Y-92573373D01*
X151250747Y-92647847D01*
X151329427Y-92724906D01*
X151391111Y-92777411D01*
X151431571Y-92803824D01*
X151446575Y-92802604D01*
X151431893Y-92772214D01*
X151383295Y-92711115D01*
X151363563Y-92688882D01*
X151311778Y-92628039D01*
X151278007Y-92581606D01*
X151270543Y-92565258D01*
X151254809Y-92532863D01*
X151224393Y-92495060D01*
X151189022Y-92450560D01*
X151176317Y-92424394D01*
X151160382Y-92382289D01*
X151124492Y-92322687D01*
X151078606Y-92258826D01*
X151032684Y-92203945D01*
X150996684Y-92171281D01*
X150983506Y-92168114D01*
X150966920Y-92170401D01*
X150970466Y-92161715D01*
X150968351Y-92125394D01*
X150948861Y-92088999D01*
X150921916Y-92059750D01*
X150912797Y-92062224D01*
X150899711Y-92062698D01*
X150872542Y-92035166D01*
X150866780Y-92035597D01*
X150720167Y-92035597D01*
X150690090Y-91987435D01*
X150622205Y-91938656D01*
X150522987Y-91910813D01*
X150412247Y-91900105D01*
X150222857Y-91890541D01*
X150222857Y-92278142D01*
X150224293Y-92420045D01*
X150228321Y-92533776D01*
X150234522Y-92612585D01*
X150242478Y-92649726D01*
X150246027Y-92651423D01*
X150259525Y-92659152D01*
X150256675Y-92684989D01*
X150268118Y-92732863D01*
X150316709Y-92784547D01*
X150390405Y-92829987D01*
X150460784Y-92855448D01*
X150510961Y-92879370D01*
X150529497Y-92908253D01*
X150526576Y-92919864D01*
X150514094Y-92928934D01*
X150486474Y-92935775D01*
X150438137Y-92940699D01*
X150363507Y-92944015D01*
X150257005Y-92946036D01*
X150113053Y-92947073D01*
X149926074Y-92947437D01*
X149826781Y-92947464D01*
X149719218Y-92947282D01*
X149630917Y-92946794D01*
X149574395Y-92946085D01*
X149561451Y-92945638D01*
X149536752Y-92922882D01*
X149527235Y-92899095D01*
X149530176Y-92866542D01*
X149569244Y-92853026D01*
X149593434Y-92851388D01*
X149671960Y-92825077D01*
X149744391Y-92760550D01*
X149799572Y-92670449D01*
X149823441Y-92590695D01*
X149830286Y-92520952D01*
X149835133Y-92412940D01*
X149838091Y-92275532D01*
X149839270Y-92117599D01*
X149838777Y-91948013D01*
X149836722Y-91775648D01*
X149833213Y-91609374D01*
X149828358Y-91458065D01*
X149822267Y-91330592D01*
X149815048Y-91235827D01*
X149806810Y-91182643D01*
X149806173Y-91180634D01*
X149771294Y-91114086D01*
X149710291Y-91061883D01*
X149654296Y-91030991D01*
X149637028Y-91020918D01*
X149851938Y-91020918D01*
X149872841Y-91047291D01*
X149884637Y-91064810D01*
X149894089Y-91092081D01*
X149901464Y-91134461D01*
X149907029Y-91197308D01*
X149911052Y-91285977D01*
X149913798Y-91405827D01*
X149915535Y-91562213D01*
X149916530Y-91760492D01*
X149916936Y-91932155D01*
X149916563Y-92183835D01*
X149914558Y-92395968D01*
X149910988Y-92566201D01*
X149905920Y-92692178D01*
X149899420Y-92771544D01*
X149892379Y-92801203D01*
X149888689Y-92820543D01*
X149922115Y-92832193D01*
X149998838Y-92838568D01*
X150074886Y-92840983D01*
X150108454Y-92836431D01*
X150108080Y-92820931D01*
X150088124Y-92796913D01*
X150076117Y-92779315D01*
X150066511Y-92752304D01*
X150059027Y-92710464D01*
X150053387Y-92648381D01*
X150049314Y-92560639D01*
X150046528Y-92441825D01*
X150044752Y-92286522D01*
X150043709Y-92089316D01*
X150043265Y-91923550D01*
X150043157Y-91800403D01*
X150222857Y-91800403D01*
X150482300Y-91788241D01*
X150605499Y-91780937D01*
X150687611Y-91771471D01*
X150738655Y-91757822D01*
X150768651Y-91737972D01*
X150776163Y-91729005D01*
X150802564Y-91701723D01*
X150811433Y-91705981D01*
X150822187Y-91715516D01*
X150847390Y-91690181D01*
X150879723Y-91641342D01*
X150911863Y-91580367D01*
X150936489Y-91518623D01*
X150940147Y-91506155D01*
X150952756Y-91369867D01*
X150920909Y-91241765D01*
X150851255Y-91130164D01*
X150750444Y-91043377D01*
X150743606Y-91040449D01*
X150929035Y-91040449D01*
X150974622Y-91110024D01*
X151023021Y-91218268D01*
X151047066Y-91347181D01*
X151046881Y-91480577D01*
X151022592Y-91602271D01*
X150974322Y-91696074D01*
X150970078Y-91701143D01*
X150946930Y-91730021D01*
X150954895Y-91730464D01*
X150998680Y-91701670D01*
X151009007Y-91694517D01*
X151075049Y-91636345D01*
X151126232Y-91570715D01*
X151130385Y-91563188D01*
X151165399Y-91443524D01*
X151156397Y-91318399D01*
X151107085Y-91200641D01*
X151021168Y-91103082D01*
X150991187Y-91081218D01*
X150929035Y-91040449D01*
X150743606Y-91040449D01*
X150625125Y-90989718D01*
X150516272Y-90976207D01*
X150412880Y-90991913D01*
X150319959Y-91033198D01*
X150256001Y-91091317D01*
X150249168Y-91102559D01*
X150239113Y-91146101D01*
X150230832Y-91229102D01*
X150225143Y-91339925D01*
X150222867Y-91466931D01*
X150222857Y-91476062D01*
X150222857Y-91800403D01*
X150043157Y-91800403D01*
X150043062Y-91692257D01*
X150043660Y-91506773D01*
X150045289Y-91361804D01*
X150048184Y-91252054D01*
X150052576Y-91172231D01*
X150058698Y-91117038D01*
X150066784Y-91081182D01*
X150077065Y-91059369D01*
X150081489Y-91053778D01*
X150100060Y-91028880D01*
X150092535Y-91015038D01*
X150050281Y-91008260D01*
X149975794Y-91004913D01*
X149894852Y-91003230D01*
X149856415Y-91007392D01*
X149851938Y-91020918D01*
X149637028Y-91020918D01*
X149569862Y-90981739D01*
X149534883Y-90943000D01*
X149549257Y-90915813D01*
X149612885Y-90901215D01*
X149667072Y-90898935D01*
X149746528Y-90897785D01*
X149861156Y-90895122D01*
X149995057Y-90891355D01*
X150120644Y-90887298D01*
X150323857Y-90880644D01*
X150483345Y-90876447D01*
X150606434Y-90874795D01*
X150700451Y-90875775D01*
X150772721Y-90879476D01*
X150830572Y-90885984D01*
X150881329Y-90895387D01*
X150886134Y-90896453D01*
X150958587Y-90909216D01*
X151009497Y-90911780D01*
X151020023Y-90909226D01*
X151039655Y-90914996D01*
X151040563Y-90921871D01*
X151061812Y-90948466D01*
X151096437Y-90964944D01*
X151168398Y-91007349D01*
X151243460Y-91081997D01*
X151308125Y-91172798D01*
X151348892Y-91263659D01*
X151349806Y-91266959D01*
X151366699Y-91402012D01*
X151350400Y-91537800D01*
X151303786Y-91654054D01*
X151292427Y-91671301D01*
X151229912Y-91733080D01*
X151141991Y-91790287D01*
X151049583Y-91831215D01*
X150983068Y-91844459D01*
X150945129Y-91857003D01*
X150938350Y-91870574D01*
X150955574Y-91894187D01*
X151012157Y-91900978D01*
X151040563Y-91899898D01*
X151061939Y-91902622D01*
X151046291Y-91911997D01*
X151040692Y-91936384D01*
X151077468Y-91986698D01*
X151110175Y-92020177D01*
X151160950Y-92077327D01*
X151230388Y-92166110D01*
X151309821Y-92274969D01*
X151390584Y-92392350D01*
X151400651Y-92407516D01*
X151524861Y-92586723D01*
X151636128Y-92729480D01*
X151731947Y-92832929D01*
X151809813Y-92894208D01*
X151838465Y-92907308D01*
X151876352Y-92941648D01*
X151883823Y-92971088D01*
X151868302Y-93003752D01*
X151818609Y-93017763D01*
X151730050Y-93013491D01*
X151606487Y-92993002D01*
X151470696Y-92949167D01*
X151332440Y-92868511D01*
X151284309Y-92828823D01*
X151474970Y-92828823D01*
X151487746Y-92841600D01*
X151500523Y-92828823D01*
X151487746Y-92816046D01*
X151474970Y-92828823D01*
X151284309Y-92828823D01*
X151184495Y-92746519D01*
X151132687Y-92696788D01*
G37*
G36*
X149532917Y-90810111D02*
G01*
X149520141Y-90822887D01*
X149507364Y-90810111D01*
X149520141Y-90797334D01*
X149532917Y-90810111D01*
G37*
G36*
X159038752Y-92649950D02*
G01*
X159025976Y-92662727D01*
X159013199Y-92649950D01*
X159025976Y-92637173D01*
X159038752Y-92649950D01*
G37*
G36*
X161491871Y-92982143D02*
G01*
X161479094Y-92994920D01*
X161466318Y-92982143D01*
X161479094Y-92969366D01*
X161491871Y-92982143D01*
G37*
G36*
X160486774Y-92211285D02*
G01*
X160489832Y-92241610D01*
X160486774Y-92245356D01*
X160471582Y-92241848D01*
X160469738Y-92228320D01*
X160479088Y-92207287D01*
X160486774Y-92211285D01*
G37*
G36*
X152164909Y-92956590D02*
G01*
X152152133Y-92969366D01*
X152139356Y-92956590D01*
X152152133Y-92943813D01*
X152164909Y-92956590D01*
G37*
G36*
X153314809Y-92701057D02*
G01*
X153302032Y-92713833D01*
X153289255Y-92701057D01*
X153302032Y-92688280D01*
X153314809Y-92701057D01*
G37*
G36*
X153161489Y-92803270D02*
G01*
X153148712Y-92816046D01*
X153135935Y-92803270D01*
X153148712Y-92790493D01*
X153161489Y-92803270D01*
G37*
G36*
X159396499Y-93569869D02*
G01*
X159383722Y-93582646D01*
X159370946Y-93569869D01*
X159383722Y-93557093D01*
X159396499Y-93569869D01*
G37*
G36*
X151091670Y-92726610D02*
G01*
X151078893Y-92739386D01*
X151066117Y-92726610D01*
X151078893Y-92713833D01*
X151091670Y-92726610D01*
G37*
G36*
X164448039Y-91657100D02*
G01*
X164443280Y-91666147D01*
X164419203Y-91690551D01*
X164414710Y-91691700D01*
X164412967Y-91675194D01*
X164417726Y-91666147D01*
X164441803Y-91641744D01*
X164446296Y-91640594D01*
X164448039Y-91657100D01*
G37*
G36*
X162795090Y-91832244D02*
G01*
X162782314Y-91845020D01*
X162769537Y-91832244D01*
X162782314Y-91819467D01*
X162795090Y-91832244D01*
G37*
G36*
X164226076Y-92982143D02*
G01*
X164213300Y-92994920D01*
X164200523Y-92982143D01*
X164213300Y-92969366D01*
X164226076Y-92982143D01*
G37*
G36*
X158732113Y-92726610D02*
G01*
X158719336Y-92739386D01*
X158706559Y-92726610D01*
X158719336Y-92713833D01*
X158732113Y-92726610D01*
G37*
G36*
X164532716Y-91602264D02*
G01*
X164519939Y-91615040D01*
X164507163Y-91602264D01*
X164519939Y-91589487D01*
X164532716Y-91602264D01*
G37*
G36*
X152803742Y-93007696D02*
G01*
X152790966Y-93020473D01*
X152778189Y-93007696D01*
X152790966Y-92994920D01*
X152803742Y-93007696D01*
G37*
G36*
X155691267Y-92649950D02*
G01*
X155678491Y-92662727D01*
X155665714Y-92649950D01*
X155678491Y-92637173D01*
X155691267Y-92649950D01*
G37*
G36*
X151883823Y-91985564D02*
G01*
X151871046Y-91998340D01*
X151858269Y-91985564D01*
X151871046Y-91972787D01*
X151883823Y-91985564D01*
G37*
G36*
X152712978Y-92090803D02*
G01*
X152748946Y-92111424D01*
X152742921Y-92124758D01*
X152728590Y-92126107D01*
X152693940Y-92107548D01*
X152688933Y-92100846D01*
X152693046Y-92086325D01*
X152712978Y-92090803D01*
G37*
G36*
X158706559Y-92471077D02*
G01*
X158693783Y-92483853D01*
X158681006Y-92471077D01*
X158693783Y-92458300D01*
X158706559Y-92471077D01*
G37*
G36*
X159958672Y-92189990D02*
G01*
X159945895Y-92202767D01*
X159933119Y-92189990D01*
X159945895Y-92177213D01*
X159958672Y-92189990D01*
G37*
G36*
X161389658Y-92777716D02*
G01*
X161376881Y-92790493D01*
X161364104Y-92777716D01*
X161376881Y-92764940D01*
X161389658Y-92777716D01*
G37*
G36*
X162582146Y-91649112D02*
G01*
X162578638Y-91664303D01*
X162565110Y-91666147D01*
X162544077Y-91656797D01*
X162548075Y-91649112D01*
X162578401Y-91646053D01*
X162582146Y-91649112D01*
G37*
G36*
X160674165Y-91704477D02*
G01*
X160661388Y-91717254D01*
X160648612Y-91704477D01*
X160661388Y-91691700D01*
X160674165Y-91704477D01*
G37*
G36*
X158093280Y-93799849D02*
G01*
X158080503Y-93812626D01*
X158067726Y-93799849D01*
X158080503Y-93787073D01*
X158093280Y-93799849D01*
G37*
G36*
X160137252Y-91941451D02*
G01*
X160137545Y-91947234D01*
X160117901Y-91971805D01*
X160110484Y-91972787D01*
X160095222Y-91957132D01*
X160099215Y-91947234D01*
X160122178Y-91922856D01*
X160126277Y-91921680D01*
X160137252Y-91941451D01*
G37*
G36*
X159064306Y-93442103D02*
G01*
X159051529Y-93454879D01*
X159038752Y-93442103D01*
X159051529Y-93429326D01*
X159064306Y-93442103D01*
G37*
G36*
X163736615Y-91650930D02*
G01*
X163764048Y-91676660D01*
X163758420Y-91691452D01*
X163754848Y-91691700D01*
X163733235Y-91673550D01*
X163725346Y-91662199D01*
X163722335Y-91644713D01*
X163736615Y-91650930D01*
G37*
G36*
X160546398Y-92956590D02*
G01*
X160533622Y-92969366D01*
X160520845Y-92956590D01*
X160533622Y-92943813D01*
X160546398Y-92956590D01*
G37*
G36*
X156790060Y-92982143D02*
G01*
X156777284Y-92994920D01*
X156764507Y-92982143D01*
X156777284Y-92969366D01*
X156790060Y-92982143D01*
G37*
G36*
X150018430Y-91167857D02*
G01*
X150005654Y-91180634D01*
X149992877Y-91167857D01*
X150005654Y-91155081D01*
X150018430Y-91167857D01*
G37*
G36*
X157108789Y-92503728D02*
G01*
X157106845Y-92513665D01*
X157085888Y-92534614D01*
X157083923Y-92534960D01*
X157063521Y-92517485D01*
X157061002Y-92513665D01*
X157068615Y-92494848D01*
X157083923Y-92492371D01*
X157108789Y-92503728D01*
G37*
G36*
X153409005Y-92628126D02*
G01*
X153404245Y-92637173D01*
X153380169Y-92661577D01*
X153375676Y-92662727D01*
X153373932Y-92646220D01*
X153378692Y-92637173D01*
X153402769Y-92612770D01*
X153407261Y-92611620D01*
X153409005Y-92628126D01*
G37*
G36*
X157454447Y-92649950D02*
G01*
X157441670Y-92662727D01*
X157428893Y-92649950D01*
X157441670Y-92637173D01*
X157454447Y-92649950D01*
G37*
G36*
X156534527Y-92675503D02*
G01*
X156521750Y-92688280D01*
X156508974Y-92675503D01*
X156521750Y-92662727D01*
X156534527Y-92675503D01*
G37*
G36*
X158987646Y-92164437D02*
G01*
X158974869Y-92177213D01*
X158962092Y-92164437D01*
X158974869Y-92151660D01*
X158987646Y-92164437D01*
G37*
G36*
X156943380Y-91678924D02*
G01*
X156930603Y-91691700D01*
X156917827Y-91678924D01*
X156930603Y-91666147D01*
X156943380Y-91678924D01*
G37*
G36*
X151321650Y-92138883D02*
G01*
X151308873Y-92151660D01*
X151296096Y-92138883D01*
X151308873Y-92126107D01*
X151321650Y-92138883D01*
G37*
G36*
X150963903Y-90835664D02*
G01*
X150951127Y-90848441D01*
X150938350Y-90835664D01*
X150951127Y-90822887D01*
X150963903Y-90835664D01*
G37*
G36*
X164174970Y-91755584D02*
G01*
X164162193Y-91768360D01*
X164149416Y-91755584D01*
X164162193Y-91742807D01*
X164174970Y-91755584D01*
G37*
G36*
X162539557Y-92675503D02*
G01*
X162526781Y-92688280D01*
X162514004Y-92675503D01*
X162526781Y-92662727D01*
X162539557Y-92675503D01*
G37*
G36*
X160137545Y-92011117D02*
G01*
X160124768Y-92023894D01*
X160111992Y-92011117D01*
X160124768Y-91998340D01*
X160137545Y-92011117D01*
G37*
G36*
X150325070Y-92598843D02*
G01*
X150312294Y-92611620D01*
X150299517Y-92598843D01*
X150312294Y-92586067D01*
X150325070Y-92598843D01*
G37*
G36*
X155793481Y-92419970D02*
G01*
X155780704Y-92432747D01*
X155767927Y-92419970D01*
X155780704Y-92407193D01*
X155793481Y-92419970D01*
G37*
G36*
X159115412Y-92701057D02*
G01*
X159102636Y-92713833D01*
X159089859Y-92701057D01*
X159102636Y-92688280D01*
X159115412Y-92701057D01*
G37*
G36*
X162718430Y-92675503D02*
G01*
X162705654Y-92688280D01*
X162692877Y-92675503D01*
X162705654Y-92662727D01*
X162718430Y-92675503D01*
G37*
G36*
X162999517Y-91730030D02*
G01*
X162986740Y-91742807D01*
X162973964Y-91730030D01*
X162986740Y-91717254D01*
X162999517Y-91730030D01*
G37*
G36*
X153774768Y-91065644D02*
G01*
X153761992Y-91078421D01*
X153749215Y-91065644D01*
X153761992Y-91052867D01*
X153774768Y-91065644D01*
G37*
G36*
X160623058Y-92062224D02*
G01*
X160610282Y-92075000D01*
X160597505Y-92062224D01*
X160610282Y-92049447D01*
X160623058Y-92062224D01*
G37*
G36*
X157454447Y-92803270D02*
G01*
X157441670Y-92816046D01*
X157428893Y-92803270D01*
X157441670Y-92790493D01*
X157454447Y-92803270D01*
G37*
G36*
X158962092Y-92701057D02*
G01*
X158949316Y-92713833D01*
X158936539Y-92701057D01*
X158949316Y-92688280D01*
X158962092Y-92701057D01*
G37*
G36*
X150912797Y-91321177D02*
G01*
X150900020Y-91333954D01*
X150887243Y-91321177D01*
X150900020Y-91308401D01*
X150912797Y-91321177D01*
G37*
G36*
X157940612Y-93252233D02*
G01*
X157944541Y-93250453D01*
X157963827Y-93230048D01*
X157965513Y-93216904D01*
X157982698Y-93179042D01*
X158025407Y-93126610D01*
X158039815Y-93112168D01*
X158086279Y-93063407D01*
X158100141Y-93025799D01*
X158087024Y-92976576D01*
X158078466Y-92955657D01*
X158061362Y-92874115D01*
X158144386Y-92874115D01*
X158163093Y-92916588D01*
X158208526Y-92964933D01*
X158212533Y-92968155D01*
X158244736Y-92990085D01*
X158282145Y-93004952D01*
X158334625Y-93013981D01*
X158412045Y-93018399D01*
X158524271Y-93019433D01*
X158620586Y-93018870D01*
X158815179Y-93021153D01*
X158962553Y-93032103D01*
X159065949Y-93052284D01*
X159128609Y-93082262D01*
X159150681Y-93111146D01*
X159172381Y-93144100D01*
X159181610Y-93148240D01*
X159181891Y-93130376D01*
X159160698Y-93091599D01*
X159118342Y-93034291D01*
X159072949Y-92992497D01*
X159015626Y-92963514D01*
X158937480Y-92944635D01*
X158829619Y-92933157D01*
X158683152Y-92926373D01*
X158610867Y-92924346D01*
X158455234Y-92919315D01*
X158342958Y-92912676D01*
X158266297Y-92903509D01*
X158217507Y-92890892D01*
X158189234Y-92874266D01*
X158155603Y-92847553D01*
X158145061Y-92856990D01*
X158144386Y-92874115D01*
X158061362Y-92874115D01*
X158054930Y-92843454D01*
X158081495Y-92737436D01*
X158158632Y-92635754D01*
X158160031Y-92634393D01*
X158246899Y-92550198D01*
X158150924Y-92451957D01*
X158101893Y-92399025D01*
X158072879Y-92353946D01*
X158058184Y-92300155D01*
X158052111Y-92221092D01*
X158051702Y-92206791D01*
X158125990Y-92206791D01*
X158158988Y-92264825D01*
X158184343Y-92295883D01*
X158183642Y-92304980D01*
X158181905Y-92323758D01*
X158196664Y-92358275D01*
X158223635Y-92398861D01*
X158234922Y-92392984D01*
X158229835Y-92343043D01*
X158217197Y-92287214D01*
X158210084Y-92208282D01*
X158379113Y-92208282D01*
X158379594Y-92214361D01*
X158404870Y-92341072D01*
X158453191Y-92440374D01*
X158517882Y-92508066D01*
X158592270Y-92539947D01*
X158669681Y-92531819D01*
X158743440Y-92479479D01*
X158763021Y-92455665D01*
X158784288Y-92412211D01*
X158898373Y-92412211D01*
X158904478Y-92428168D01*
X158931436Y-92397735D01*
X158962372Y-92349698D01*
X159004718Y-92234641D01*
X159007952Y-92103489D01*
X158977476Y-91987862D01*
X158947513Y-91928025D01*
X158919980Y-91890113D01*
X158902070Y-91879890D01*
X158900978Y-91903119D01*
X158911063Y-91934660D01*
X158929027Y-92017982D01*
X158935628Y-92128857D01*
X158930773Y-92244989D01*
X158914370Y-92344082D01*
X158912770Y-92349867D01*
X158898373Y-92412211D01*
X158784288Y-92412211D01*
X158805161Y-92369562D01*
X158833815Y-92254449D01*
X158845477Y-92131443D01*
X158836640Y-92021656D01*
X158835764Y-92017631D01*
X158791331Y-91892470D01*
X158724882Y-91810441D01*
X158638295Y-91773786D01*
X158630965Y-91772921D01*
X158540785Y-91787046D01*
X158466782Y-91844191D01*
X158412684Y-91937810D01*
X158382218Y-92061356D01*
X158379113Y-92208282D01*
X158210084Y-92208282D01*
X158205693Y-92159559D01*
X158226640Y-92014781D01*
X158260598Y-91911100D01*
X158270406Y-91875082D01*
X158258346Y-91874202D01*
X158231582Y-91901539D01*
X158197278Y-91950169D01*
X158169574Y-91999056D01*
X158126449Y-92114547D01*
X158125990Y-92206791D01*
X158051702Y-92206791D01*
X158050352Y-92159636D01*
X158051883Y-92038114D01*
X158063815Y-91961829D01*
X158080330Y-91930979D01*
X158122507Y-91884926D01*
X158161588Y-91838486D01*
X158226803Y-91783871D01*
X158324907Y-91732039D01*
X158438025Y-91691662D01*
X158489356Y-91679482D01*
X158547909Y-91655667D01*
X158590261Y-91602494D01*
X158609102Y-91562501D01*
X158666336Y-91477961D01*
X158746628Y-91423591D01*
X158839610Y-91398133D01*
X158934918Y-91400327D01*
X159022185Y-91428914D01*
X159091045Y-91482635D01*
X159131131Y-91560231D01*
X159136627Y-91626576D01*
X159129995Y-91682153D01*
X159121327Y-91705125D01*
X159119667Y-91704473D01*
X159091433Y-91705890D01*
X159062619Y-91718156D01*
X158991639Y-91727218D01*
X158944600Y-91713131D01*
X158888013Y-91693170D01*
X158854410Y-91687267D01*
X158845143Y-91672415D01*
X158848923Y-91657840D01*
X158841655Y-91617490D01*
X158812711Y-91580275D01*
X158777501Y-91553916D01*
X158924633Y-91553916D01*
X158949458Y-91589644D01*
X158989984Y-91623737D01*
X159010878Y-91624622D01*
X159001746Y-91595606D01*
X158988158Y-91577328D01*
X158949159Y-91544754D01*
X158929450Y-91538380D01*
X158924633Y-91553916D01*
X158777501Y-91553916D01*
X158773263Y-91550743D01*
X158743943Y-91557605D01*
X158721232Y-91578465D01*
X158689655Y-91623588D01*
X158700695Y-91658419D01*
X158757653Y-91687509D01*
X158811633Y-91703192D01*
X158902925Y-91734681D01*
X158987786Y-91776908D01*
X159006185Y-91788919D01*
X159062962Y-91821008D01*
X159095950Y-91822388D01*
X159098529Y-91819009D01*
X159106540Y-91813010D01*
X159104980Y-91825212D01*
X159110776Y-91866614D01*
X159133035Y-91933930D01*
X159147462Y-91968745D01*
X159176912Y-92052287D01*
X159185799Y-92135867D01*
X159179023Y-92230672D01*
X159166828Y-92310716D01*
X159152934Y-92365453D01*
X159142538Y-92381640D01*
X159117498Y-92400625D01*
X159076765Y-92448422D01*
X159058484Y-92473122D01*
X159015863Y-92528426D01*
X158984856Y-92560420D01*
X158978207Y-92563668D01*
X158946675Y-92572016D01*
X158888952Y-92593739D01*
X158878175Y-92598184D01*
X158727891Y-92637994D01*
X158566595Y-92642691D01*
X158452988Y-92622001D01*
X158381353Y-92603372D01*
X158340569Y-92603422D01*
X158313477Y-92623315D01*
X158306504Y-92631954D01*
X158279775Y-92691420D01*
X158294763Y-92735961D01*
X158336036Y-92753351D01*
X158380531Y-92757037D01*
X158464194Y-92762501D01*
X158575151Y-92769015D01*
X158701524Y-92775847D01*
X158704759Y-92776014D01*
X158878592Y-92788484D01*
X159009351Y-92807084D01*
X159104942Y-92834339D01*
X159173269Y-92872775D01*
X159222240Y-92924916D01*
X159235473Y-92945516D01*
X159269308Y-92991408D01*
X159294904Y-93006973D01*
X159296591Y-93006271D01*
X159305574Y-93017393D01*
X159300654Y-93049987D01*
X159297941Y-93087775D01*
X159311419Y-93089560D01*
X159323501Y-93102590D01*
X159322939Y-93162898D01*
X159315463Y-93228577D01*
X159306798Y-93314917D01*
X159305810Y-93381786D01*
X159311029Y-93410191D01*
X159311348Y-93425146D01*
X159300073Y-93420127D01*
X159271765Y-93426315D01*
X159256573Y-93452935D01*
X159228542Y-93498974D01*
X159175705Y-93558380D01*
X159146131Y-93586135D01*
X159092756Y-93638422D01*
X159061904Y-93679075D01*
X159058550Y-93691822D01*
X159049990Y-93703395D01*
X159042106Y-93699709D01*
X159005212Y-93698451D01*
X158941616Y-93712958D01*
X158918723Y-93720460D01*
X158791004Y-93751183D01*
X158637281Y-93766857D01*
X158480837Y-93765948D01*
X158387143Y-93755476D01*
X158300797Y-93741730D01*
X158227726Y-93731355D01*
X158204333Y-93728612D01*
X158164589Y-93718847D01*
X158158225Y-93708713D01*
X158144879Y-93687639D01*
X158100457Y-93654959D01*
X158092074Y-93649882D01*
X158029898Y-93601927D01*
X157986327Y-93549368D01*
X157965629Y-93495044D01*
X157948488Y-93422288D01*
X157937125Y-93346981D01*
X157933899Y-93287562D01*
X158127629Y-93287562D01*
X158130881Y-93388593D01*
X158173642Y-93479279D01*
X158250142Y-93555622D01*
X158354609Y-93613625D01*
X158481273Y-93649292D01*
X158624361Y-93658625D01*
X158778103Y-93637628D01*
X158815806Y-93627672D01*
X158929799Y-93577580D01*
X159020118Y-93505149D01*
X159081801Y-93419217D01*
X159109885Y-93328624D01*
X159099409Y-93242209D01*
X159063764Y-93185993D01*
X159036780Y-93159947D01*
X159007138Y-93142471D01*
X158964814Y-93131963D01*
X158899787Y-93126824D01*
X158802032Y-93125451D01*
X158688386Y-93126029D01*
X158566123Y-93125779D01*
X158463149Y-93123291D01*
X158389831Y-93118979D01*
X158356536Y-93113253D01*
X158355982Y-93112820D01*
X158304536Y-93092986D01*
X158241837Y-93110570D01*
X158183916Y-93159778D01*
X158169659Y-93180181D01*
X158127629Y-93287562D01*
X157933899Y-93287562D01*
X157933760Y-93285003D01*
X157940612Y-93252233D01*
G37*
G36*
X165116494Y-91625377D02*
G01*
X165143927Y-91651106D01*
X165138300Y-91665898D01*
X165134727Y-91666147D01*
X165113114Y-91647997D01*
X165105226Y-91636646D01*
X165102214Y-91619160D01*
X165116494Y-91625377D01*
G37*
G36*
X155799869Y-91789223D02*
G01*
X155744241Y-91770132D01*
X155732632Y-91738296D01*
X155763927Y-91704939D01*
X155810049Y-91686879D01*
X155903287Y-91638452D01*
X155988472Y-91548822D01*
X156057739Y-91427895D01*
X156092020Y-91331819D01*
X156123023Y-91238548D01*
X156151775Y-91192352D01*
X156171922Y-91186010D01*
X156189116Y-91198754D01*
X156199697Y-91234331D01*
X156204678Y-91301161D01*
X156205071Y-91407660D01*
X156204323Y-91455332D01*
X156199416Y-91717254D01*
X156366972Y-91717254D01*
X156460603Y-91719774D01*
X156512830Y-91728788D01*
X156533174Y-91746473D01*
X156534527Y-91755584D01*
X156523438Y-91777084D01*
X156483816Y-91789033D01*
X156406126Y-91793633D01*
X156368430Y-91793914D01*
X156202334Y-91793914D01*
X156202334Y-92228320D01*
X156203558Y-92370874D01*
X156206952Y-92493775D01*
X156212094Y-92588727D01*
X156218564Y-92647432D01*
X156224344Y-92662727D01*
X156236713Y-92683962D01*
X156234284Y-92725865D01*
X156236247Y-92777698D01*
X156275009Y-92812493D01*
X156291703Y-92820665D01*
X156343201Y-92837377D01*
X156391553Y-92830205D01*
X156457448Y-92796928D01*
X156519302Y-92766550D01*
X156561778Y-92755248D01*
X156569670Y-92757493D01*
X156584228Y-92799373D01*
X156557855Y-92845611D01*
X156499923Y-92891552D01*
X156419805Y-92932541D01*
X156326876Y-92963923D01*
X156230509Y-92981044D01*
X156140077Y-92979249D01*
X156127548Y-92977049D01*
X156017524Y-92931753D01*
X155939786Y-92849260D01*
X155916889Y-92800839D01*
X155886124Y-92742787D01*
X155851258Y-92712816D01*
X155845842Y-92711816D01*
X155824104Y-92705558D01*
X155838199Y-92696910D01*
X155850619Y-92677690D01*
X155859663Y-92628086D01*
X155865691Y-92542959D01*
X155869064Y-92417169D01*
X155870140Y-92245576D01*
X155870141Y-92240665D01*
X155870141Y-91893083D01*
X155947457Y-91893083D01*
X155947860Y-92006979D01*
X155950164Y-92162690D01*
X155951078Y-92215543D01*
X155954372Y-92385536D01*
X155958090Y-92512433D01*
X155963186Y-92604241D01*
X155970614Y-92668969D01*
X155981328Y-92714625D01*
X155996282Y-92749215D01*
X156016430Y-92780749D01*
X156018812Y-92784105D01*
X156057995Y-92836411D01*
X156083216Y-92865212D01*
X156086393Y-92867153D01*
X156086594Y-92845184D01*
X156076774Y-92790524D01*
X156072486Y-92771328D01*
X156065513Y-92716124D01*
X156059370Y-92619583D01*
X156054429Y-92491473D01*
X156051061Y-92341563D01*
X156049638Y-92179621D01*
X156049624Y-92170609D01*
X156049298Y-91998391D01*
X156048325Y-91871066D01*
X156045997Y-91782417D01*
X156041607Y-91726229D01*
X156034446Y-91696287D01*
X156023806Y-91686377D01*
X156008982Y-91690283D01*
X155995796Y-91697872D01*
X155977333Y-91711102D01*
X155963892Y-91730011D01*
X155954849Y-91761826D01*
X155949578Y-91813774D01*
X155947457Y-91893083D01*
X155870141Y-91893083D01*
X155870141Y-91797308D01*
X155799869Y-91789223D01*
G37*
G36*
X159447605Y-92752163D02*
G01*
X159434829Y-92764940D01*
X159422052Y-92752163D01*
X159434829Y-92739386D01*
X159447605Y-92752163D01*
G37*
G36*
X160652498Y-91862505D02*
G01*
X160707386Y-91786725D01*
X160778143Y-91724644D01*
X160842323Y-91693839D01*
X160914715Y-91685285D01*
X161014608Y-91681938D01*
X161121445Y-91683573D01*
X161214670Y-91689960D01*
X161266310Y-91698523D01*
X161377518Y-91753393D01*
X161472944Y-91846211D01*
X161540861Y-91963977D01*
X161559859Y-92023894D01*
X161563387Y-92062982D01*
X161566512Y-92142094D01*
X161568916Y-92250145D01*
X161570284Y-92376051D01*
X161570358Y-92390701D01*
X161572861Y-92554116D01*
X161579847Y-92673694D01*
X161593051Y-92756632D01*
X161614205Y-92810123D01*
X161645046Y-92841366D01*
X161682617Y-92856433D01*
X161730975Y-92879823D01*
X161747404Y-92906156D01*
X161727645Y-92926962D01*
X161665367Y-92940864D01*
X161574919Y-92948104D01*
X161432983Y-92952864D01*
X161334961Y-92950011D01*
X161274067Y-92938374D01*
X161243517Y-92916780D01*
X161236338Y-92889579D01*
X161226085Y-92855389D01*
X161210368Y-92854634D01*
X161196967Y-92886577D01*
X161201539Y-92898420D01*
X161202731Y-92914051D01*
X161189708Y-92908250D01*
X161146381Y-92904863D01*
X161109465Y-92917782D01*
X160987662Y-92959520D01*
X160848711Y-92971200D01*
X160723638Y-92952167D01*
X160607611Y-92904967D01*
X160547509Y-92854376D01*
X160725271Y-92854376D01*
X160738048Y-92867153D01*
X160750825Y-92854376D01*
X160738048Y-92841600D01*
X160725271Y-92854376D01*
X160547509Y-92854376D01*
X160532285Y-92841561D01*
X160487652Y-92752128D01*
X160476782Y-92709857D01*
X160464800Y-92622828D01*
X160468418Y-92600000D01*
X160572338Y-92600000D01*
X160581658Y-92695240D01*
X160622789Y-92773048D01*
X160629447Y-92779881D01*
X160676656Y-92820824D01*
X160693786Y-92821158D01*
X160684030Y-92779068D01*
X160674880Y-92754044D01*
X160650173Y-92631965D01*
X160655177Y-92608164D01*
X160820515Y-92608164D01*
X160840371Y-92710073D01*
X160862555Y-92750774D01*
X160924388Y-92802699D01*
X161009964Y-92815392D01*
X161109712Y-92788375D01*
X161153290Y-92765220D01*
X161236338Y-92714584D01*
X161236338Y-92497006D01*
X161234218Y-92381230D01*
X161223269Y-92311139D01*
X161196606Y-92281346D01*
X161147346Y-92286467D01*
X161068602Y-92321117D01*
X161033911Y-92338657D01*
X160919793Y-92416425D01*
X160847825Y-92508271D01*
X160820515Y-92608164D01*
X160655177Y-92608164D01*
X160674390Y-92516788D01*
X160713290Y-92446783D01*
X160777968Y-92351475D01*
X160700461Y-92406664D01*
X160641271Y-92456630D01*
X160599989Y-92505110D01*
X160597453Y-92509504D01*
X160572338Y-92600000D01*
X160468418Y-92600000D01*
X160476218Y-92550789D01*
X160502460Y-92487050D01*
X160574107Y-92387624D01*
X160681639Y-92303732D01*
X160810017Y-92246582D01*
X160833873Y-92240075D01*
X160887217Y-92213377D01*
X160904536Y-92180832D01*
X160910193Y-92155088D01*
X160925668Y-92171568D01*
X160956580Y-92190148D01*
X161021635Y-92193439D01*
X161090109Y-92187363D01*
X161233809Y-92170474D01*
X161220808Y-92039689D01*
X161196749Y-91924241D01*
X161163147Y-91855632D01*
X161290088Y-91855632D01*
X161297500Y-91885475D01*
X161303553Y-91926133D01*
X161308703Y-92008568D01*
X161312617Y-92123457D01*
X161314960Y-92261472D01*
X161315472Y-92387956D01*
X161315457Y-92550234D01*
X161316555Y-92668387D01*
X161319526Y-92749395D01*
X161325131Y-92800240D01*
X161334134Y-92827902D01*
X161347294Y-92839362D01*
X161364957Y-92841600D01*
X161384660Y-92838817D01*
X161398412Y-92825298D01*
X161407276Y-92793284D01*
X161412319Y-92735017D01*
X161414606Y-92642738D01*
X161415201Y-92508690D01*
X161415211Y-92475629D01*
X161409724Y-92256275D01*
X161393424Y-92082185D01*
X161366553Y-91954743D01*
X161329354Y-91875332D01*
X161306263Y-91853635D01*
X161290088Y-91855632D01*
X161163147Y-91855632D01*
X161153316Y-91835559D01*
X161096184Y-91783467D01*
X161067678Y-91774602D01*
X160996829Y-91785097D01*
X160950772Y-91830610D01*
X160941925Y-91861837D01*
X160919260Y-91957060D01*
X160880559Y-92049447D01*
X160838018Y-92083130D01*
X160771178Y-92095313D01*
X160702678Y-92084702D01*
X160664593Y-92061778D01*
X160626994Y-91990792D01*
X160630638Y-91950573D01*
X160725951Y-91950573D01*
X160728745Y-91983508D01*
X160747498Y-91987618D01*
X160747774Y-91987449D01*
X160769280Y-91954027D01*
X160782603Y-91909058D01*
X160786883Y-91866042D01*
X160771477Y-91864859D01*
X160760101Y-91873479D01*
X160737081Y-91907626D01*
X160725951Y-91950573D01*
X160630638Y-91950573D01*
X160634915Y-91903365D01*
X160652498Y-91862505D01*
G37*
G36*
X154771348Y-91960010D02*
G01*
X154758571Y-91972787D01*
X154745795Y-91960010D01*
X154758571Y-91947234D01*
X154771348Y-91960010D01*
G37*
G36*
X159447605Y-92087777D02*
G01*
X159471983Y-92110739D01*
X159473159Y-92114838D01*
X159453388Y-92125814D01*
X159447605Y-92126107D01*
X159423034Y-92106463D01*
X159422052Y-92099045D01*
X159437707Y-92083784D01*
X159447605Y-92087777D01*
G37*
G36*
X157020040Y-91602264D02*
G01*
X157007263Y-91615040D01*
X156994487Y-91602264D01*
X157007263Y-91589487D01*
X157020040Y-91602264D01*
G37*
G36*
X158348813Y-93161016D02*
G01*
X158336036Y-93173793D01*
X158323259Y-93161016D01*
X158336036Y-93148240D01*
X158348813Y-93161016D01*
G37*
G36*
X155972354Y-91295624D02*
G01*
X155959577Y-91308401D01*
X155946801Y-91295624D01*
X155959577Y-91282847D01*
X155972354Y-91295624D01*
G37*
G36*
X153187042Y-92317757D02*
G01*
X153174265Y-92330533D01*
X153161489Y-92317757D01*
X153174265Y-92304980D01*
X153187042Y-92317757D01*
G37*
G36*
X163357263Y-91627817D02*
G01*
X163344487Y-91640594D01*
X163331710Y-91627817D01*
X163344487Y-91615040D01*
X163357263Y-91627817D01*
G37*
G36*
X155461288Y-91627817D02*
G01*
X155448511Y-91640594D01*
X155435734Y-91627817D01*
X155448511Y-91615040D01*
X155461288Y-91627817D01*
G37*
G36*
X160520845Y-92317757D02*
G01*
X160508068Y-92330533D01*
X160495292Y-92317757D01*
X160508068Y-92304980D01*
X160520845Y-92317757D01*
G37*
G36*
X155384628Y-91730030D02*
G01*
X155371851Y-91742807D01*
X155359074Y-91730030D01*
X155371851Y-91717254D01*
X155384628Y-91730030D01*
G37*
G36*
X159192072Y-92419970D02*
G01*
X159179296Y-92432747D01*
X159166519Y-92419970D01*
X159179296Y-92407193D01*
X159192072Y-92419970D01*
G37*
G36*
X151372756Y-92011117D02*
G01*
X151359980Y-92023894D01*
X151347203Y-92011117D01*
X151359980Y-91998340D01*
X151372756Y-92011117D01*
G37*
G36*
X153902535Y-91730030D02*
G01*
X153889758Y-91742807D01*
X153876982Y-91730030D01*
X153889758Y-91717254D01*
X153902535Y-91730030D01*
G37*
G36*
X156738954Y-92982143D02*
G01*
X156726177Y-92994920D01*
X156713400Y-92982143D01*
X156726177Y-92969366D01*
X156738954Y-92982143D01*
G37*
G36*
X156585634Y-92368863D02*
G01*
X156572857Y-92381640D01*
X156560080Y-92368863D01*
X156572857Y-92356087D01*
X156585634Y-92368863D01*
G37*
G36*
X157403340Y-91627817D02*
G01*
X157390563Y-91640594D01*
X157377787Y-91627817D01*
X157390563Y-91615040D01*
X157403340Y-91627817D01*
G37*
G36*
X162360684Y-91602264D02*
G01*
X162347907Y-91615040D01*
X162335131Y-91602264D01*
X162347907Y-91589487D01*
X162360684Y-91602264D01*
G37*
G36*
X153519235Y-91576710D02*
G01*
X153506459Y-91589487D01*
X153493682Y-91576710D01*
X153506459Y-91563934D01*
X153519235Y-91576710D01*
G37*
G36*
X160168211Y-91952803D02*
G01*
X160168435Y-91845532D01*
X160156918Y-91787096D01*
X160145531Y-91775434D01*
X160106670Y-91783799D01*
X160062806Y-91818564D01*
X160030112Y-91862796D01*
X160024765Y-91899562D01*
X160025571Y-91901007D01*
X160027566Y-91917574D01*
X160014706Y-91911949D01*
X159985851Y-91921307D01*
X159947995Y-91971074D01*
X159934098Y-91996420D01*
X159911896Y-92046979D01*
X159896926Y-92103118D01*
X159887849Y-92175986D01*
X159883326Y-92276729D01*
X159882018Y-92416495D01*
X159882012Y-92429903D01*
X159883473Y-92580582D01*
X159889677Y-92688398D01*
X159903358Y-92761555D01*
X159927250Y-92808258D01*
X159964085Y-92836712D01*
X160016597Y-92855120D01*
X160024342Y-92857108D01*
X160071444Y-92881382D01*
X160086438Y-92908253D01*
X160074967Y-92925818D01*
X160035348Y-92937111D01*
X159959775Y-92943372D01*
X159850070Y-92945768D01*
X159741555Y-92947162D01*
X159650036Y-92949248D01*
X159589326Y-92951672D01*
X159575372Y-92952825D01*
X159523669Y-92953872D01*
X159453994Y-92949251D01*
X159390422Y-92932372D01*
X159375411Y-92902123D01*
X159409130Y-92861568D01*
X159447767Y-92836400D01*
X159524265Y-92792870D01*
X159524265Y-92348459D01*
X159523784Y-92185720D01*
X159521846Y-92066377D01*
X159517711Y-91982723D01*
X159510640Y-91927054D01*
X159499894Y-91891663D01*
X159484731Y-91868845D01*
X159477535Y-91861757D01*
X159429984Y-91828848D01*
X159400875Y-91819467D01*
X159393943Y-91814092D01*
X159588002Y-91814092D01*
X159597015Y-91827531D01*
X159607981Y-91867039D01*
X159616721Y-91954554D01*
X159623055Y-92087019D01*
X159626804Y-92261377D01*
X159627594Y-92351374D01*
X159628774Y-92521060D01*
X159630667Y-92646345D01*
X159633982Y-92733939D01*
X159639430Y-92790547D01*
X159647720Y-92822878D01*
X159659562Y-92837638D01*
X159675666Y-92841534D01*
X159679482Y-92841600D01*
X159696783Y-92839077D01*
X159709476Y-92826954D01*
X159718270Y-92798400D01*
X159723878Y-92746585D01*
X159727010Y-92664678D01*
X159728377Y-92545848D01*
X159728691Y-92383264D01*
X159728692Y-92368863D01*
X159727341Y-92190014D01*
X159723409Y-92050587D01*
X159717072Y-91953883D01*
X159708511Y-91903200D01*
X159703139Y-91896127D01*
X159678567Y-91876483D01*
X159677585Y-91869066D01*
X159693240Y-91853804D01*
X159703139Y-91857797D01*
X159725015Y-91852004D01*
X159728692Y-91833752D01*
X159708893Y-91803189D01*
X159648903Y-91793914D01*
X159596886Y-91798147D01*
X159588002Y-91814092D01*
X159393943Y-91814092D01*
X159376086Y-91800245D01*
X159372573Y-91761579D01*
X159390151Y-91733953D01*
X159422609Y-91726872D01*
X159493597Y-91717788D01*
X159590659Y-91708181D01*
X159645684Y-91703596D01*
X159882012Y-91685108D01*
X159882012Y-91869823D01*
X159969485Y-91774373D01*
X160029614Y-91715587D01*
X160083187Y-91687439D01*
X160153596Y-91679154D01*
X160176712Y-91678924D01*
X160256854Y-91684075D01*
X160310834Y-91707000D01*
X160363171Y-91758902D01*
X160370326Y-91767395D01*
X160417568Y-91834987D01*
X160439347Y-91904315D01*
X160444185Y-91989538D01*
X160439855Y-92075205D01*
X160423182Y-92127103D01*
X160388639Y-92162109D01*
X160387393Y-92162988D01*
X160305510Y-92199476D01*
X160233989Y-92186250D01*
X160201978Y-92161336D01*
X160178166Y-92122427D01*
X160167500Y-92059353D01*
X160167586Y-92038800D01*
X160239758Y-92038800D01*
X160251817Y-92068736D01*
X160277992Y-92064037D01*
X160303285Y-92032071D01*
X160311711Y-92003462D01*
X160305375Y-91936951D01*
X160290992Y-91903250D01*
X160271772Y-91877971D01*
X160268579Y-91895000D01*
X160272990Y-91928069D01*
X160273984Y-91978662D01*
X160261768Y-91998340D01*
X160242524Y-92019227D01*
X160239758Y-92038800D01*
X160167586Y-92038800D01*
X160167919Y-91959372D01*
X160168211Y-91952803D01*
G37*
G36*
X153698108Y-91627817D02*
G01*
X153685332Y-91640594D01*
X153672555Y-91627817D01*
X153685332Y-91615040D01*
X153698108Y-91627817D01*
G37*
G36*
X156585634Y-91934457D02*
G01*
X156572857Y-91947234D01*
X156560080Y-91934457D01*
X156572857Y-91921680D01*
X156585634Y-91934457D01*
G37*
G36*
X153293381Y-91767008D02*
G01*
X153320952Y-91736372D01*
X153325830Y-91734240D01*
X153366986Y-91725836D01*
X153444741Y-91715681D01*
X153544713Y-91705564D01*
X153581364Y-91702438D01*
X153800322Y-91684672D01*
X153800322Y-92197589D01*
X153801521Y-92358481D01*
X153804865Y-92505358D01*
X153809969Y-92629245D01*
X153816452Y-92721165D01*
X153823930Y-92772144D01*
X153824971Y-92775339D01*
X153868490Y-92832514D01*
X153914408Y-92856433D01*
X153962782Y-92880543D01*
X153979195Y-92908253D01*
X153969858Y-92923014D01*
X153937189Y-92933231D01*
X153874200Y-92939622D01*
X153773904Y-92942909D01*
X153634225Y-92943813D01*
X153492882Y-92943004D01*
X153395190Y-92940028D01*
X153333711Y-92934056D01*
X153301005Y-92924263D01*
X153289636Y-92909823D01*
X153289255Y-92905483D01*
X153307672Y-92871560D01*
X153323625Y-92867153D01*
X153364825Y-92849626D01*
X153406673Y-92813383D01*
X153424982Y-92788577D01*
X153438071Y-92755495D01*
X153446794Y-92705867D01*
X153452009Y-92631425D01*
X153454572Y-92523900D01*
X153455339Y-92375024D01*
X153455352Y-92343360D01*
X153454816Y-92186202D01*
X153452637Y-92071874D01*
X153447959Y-91992109D01*
X153439926Y-91938635D01*
X153427680Y-91903183D01*
X153410366Y-91877485D01*
X153406673Y-91873287D01*
X153359604Y-91833627D01*
X153323625Y-91819467D01*
X153312660Y-91813161D01*
X153505949Y-91813161D01*
X153518858Y-91831790D01*
X153531230Y-91864815D01*
X153539949Y-91932408D01*
X153545265Y-92038962D01*
X153547425Y-92188871D01*
X153547127Y-92331851D01*
X153546892Y-92481215D01*
X153548174Y-92613148D01*
X153550771Y-92719045D01*
X153554478Y-92790303D01*
X153558660Y-92817818D01*
X153593587Y-92837567D01*
X153624465Y-92841600D01*
X153659719Y-92832729D01*
X153661793Y-92819306D01*
X153657393Y-92787936D01*
X153653247Y-92713645D01*
X153649620Y-92604620D01*
X153646776Y-92469048D01*
X153644981Y-92315113D01*
X153644846Y-92295463D01*
X153641677Y-91793914D01*
X153564551Y-91793914D01*
X153513921Y-91797593D01*
X153505949Y-91813161D01*
X153312660Y-91813161D01*
X153294071Y-91802471D01*
X153293381Y-91767008D01*
G37*
G36*
X160086438Y-92011117D02*
G01*
X160073662Y-92023894D01*
X160060885Y-92011117D01*
X160073662Y-91998340D01*
X160086438Y-92011117D01*
G37*
G36*
X163587243Y-91627817D02*
G01*
X163574467Y-91640594D01*
X163561690Y-91627817D01*
X163574467Y-91615040D01*
X163587243Y-91627817D01*
G37*
G36*
X149992877Y-92675503D02*
G01*
X149980100Y-92688280D01*
X149967324Y-92675503D01*
X149980100Y-92662727D01*
X149992877Y-92675503D01*
G37*
G36*
X155026881Y-91934457D02*
G01*
X155014104Y-91947234D01*
X155001328Y-91934457D01*
X155014104Y-91921680D01*
X155026881Y-91934457D01*
G37*
G36*
X161636673Y-92211285D02*
G01*
X161639731Y-92241610D01*
X161636673Y-92245356D01*
X161621482Y-92241848D01*
X161619638Y-92228320D01*
X161628987Y-92207287D01*
X161636673Y-92211285D01*
G37*
G36*
X162692877Y-92598843D02*
G01*
X162680100Y-92611620D01*
X162667324Y-92598843D01*
X162680100Y-92586067D01*
X162692877Y-92598843D01*
G37*
G36*
X163864382Y-92877490D02*
G01*
X163891814Y-92903219D01*
X163886187Y-92918011D01*
X163882615Y-92918260D01*
X163861001Y-92900110D01*
X163853113Y-92888758D01*
X163850101Y-92871272D01*
X163864382Y-92877490D01*
G37*
G36*
X150631710Y-92087777D02*
G01*
X150618933Y-92100553D01*
X150606157Y-92087777D01*
X150618933Y-92075000D01*
X150631710Y-92087777D01*
G37*
G36*
X161006358Y-92777716D02*
G01*
X160993581Y-92790493D01*
X160980805Y-92777716D01*
X160993581Y-92764940D01*
X161006358Y-92777716D01*
G37*
G36*
X153391469Y-91934457D02*
G01*
X153378692Y-91947234D01*
X153365915Y-91934457D01*
X153378692Y-91921680D01*
X153391469Y-91934457D01*
G37*
G36*
X150555050Y-90835664D02*
G01*
X150542273Y-90848441D01*
X150529497Y-90835664D01*
X150542273Y-90822887D01*
X150555050Y-90835664D01*
G37*
G36*
X158272153Y-93212123D02*
G01*
X158259376Y-93224900D01*
X158246599Y-93212123D01*
X158259376Y-93199346D01*
X158272153Y-93212123D01*
G37*
G36*
X160440237Y-92366423D02*
G01*
X160467669Y-92392153D01*
X160462042Y-92406945D01*
X160458470Y-92407193D01*
X160436856Y-92389043D01*
X160428968Y-92377692D01*
X160425956Y-92360206D01*
X160440237Y-92366423D01*
G37*
G36*
X158502133Y-91627817D02*
G01*
X158489356Y-91640594D01*
X158476579Y-91627817D01*
X158489356Y-91615040D01*
X158502133Y-91627817D01*
G37*
G36*
X164524198Y-92134625D02*
G01*
X164527257Y-92164950D01*
X164524198Y-92168696D01*
X164509007Y-92165188D01*
X164507163Y-92151660D01*
X164516512Y-92130627D01*
X164524198Y-92134625D01*
G37*
G36*
X154183622Y-91883350D02*
G01*
X154170845Y-91896127D01*
X154158068Y-91883350D01*
X154170845Y-91870574D01*
X154183622Y-91883350D01*
G37*
G36*
X160009779Y-92649950D02*
G01*
X159997002Y-92662727D01*
X159984225Y-92649950D01*
X159997002Y-92637173D01*
X160009779Y-92649950D01*
G37*
G36*
X162437344Y-92701057D02*
G01*
X162424567Y-92713833D01*
X162411791Y-92701057D01*
X162424567Y-92688280D01*
X162437344Y-92701057D01*
G37*
G36*
X151347203Y-91040091D02*
G01*
X151334426Y-91052867D01*
X151321650Y-91040091D01*
X151334426Y-91027314D01*
X151347203Y-91040091D01*
G37*
G36*
X151423863Y-92982143D02*
G01*
X151411086Y-92994920D01*
X151398310Y-92982143D01*
X151411086Y-92969366D01*
X151423863Y-92982143D01*
G37*
G36*
X153595895Y-91218964D02*
G01*
X153583119Y-91231741D01*
X153570342Y-91218964D01*
X153583119Y-91206187D01*
X153595895Y-91218964D01*
G37*
G36*
X161031911Y-91627817D02*
G01*
X161019135Y-91640594D01*
X161006358Y-91627817D01*
X161019135Y-91615040D01*
X161031911Y-91627817D01*
G37*
G36*
X158783219Y-92675503D02*
G01*
X158807597Y-92698466D01*
X158808772Y-92702565D01*
X158789002Y-92713540D01*
X158783219Y-92713833D01*
X158758648Y-92694189D01*
X158757666Y-92686772D01*
X158773321Y-92671510D01*
X158783219Y-92675503D01*
G37*
G36*
X153365915Y-91397837D02*
G01*
X153353139Y-91410614D01*
X153340362Y-91397837D01*
X153353139Y-91385061D01*
X153365915Y-91397837D01*
G37*
G36*
X151015010Y-92266650D02*
G01*
X151002233Y-92279427D01*
X150989457Y-92266650D01*
X151002233Y-92253873D01*
X151015010Y-92266650D01*
G37*
G36*
X152982616Y-91730030D02*
G01*
X152969839Y-91742807D01*
X152957062Y-91730030D01*
X152969839Y-91717254D01*
X152982616Y-91730030D01*
G37*
G36*
X154058769Y-91768234D02*
G01*
X154089524Y-91735685D01*
X154096263Y-91732769D01*
X154139476Y-91723832D01*
X154218817Y-91713717D01*
X154319392Y-91704232D01*
X154351796Y-91701756D01*
X154566921Y-91686250D01*
X154566921Y-91941350D01*
X154662746Y-91852767D01*
X154734595Y-91794219D01*
X155183504Y-91794219D01*
X155186060Y-91806885D01*
X155191443Y-91816093D01*
X155217428Y-91877116D01*
X155236446Y-91965664D01*
X155249187Y-92087885D01*
X155256342Y-92249930D01*
X155258512Y-92413491D01*
X155258013Y-92548262D01*
X155255647Y-92665282D01*
X155251758Y-92754824D01*
X155246691Y-92807159D01*
X155244245Y-92815786D01*
X155252999Y-92833006D01*
X155295559Y-92835710D01*
X155341466Y-92825828D01*
X155354117Y-92795901D01*
X155348767Y-92752832D01*
X155343290Y-92698465D01*
X155338267Y-92605430D01*
X155334214Y-92486162D01*
X155331646Y-92353100D01*
X155331446Y-92335289D01*
X155327303Y-92167570D01*
X155317482Y-92042238D01*
X155300028Y-91950706D01*
X155272986Y-91884391D01*
X155234400Y-91834706D01*
X155213096Y-91815767D01*
X155183504Y-91794219D01*
X154734595Y-91794219D01*
X154772987Y-91762934D01*
X154877456Y-91707167D01*
X154970514Y-91679723D01*
X155049367Y-91674947D01*
X155144692Y-91685679D01*
X155237738Y-91707917D01*
X155309751Y-91737659D01*
X155335151Y-91757547D01*
X155372476Y-91780095D01*
X155391471Y-91776907D01*
X155406156Y-91776946D01*
X155401634Y-91787070D01*
X155404710Y-91822863D01*
X155423239Y-91845254D01*
X155455554Y-91888749D01*
X155461288Y-91912032D01*
X155472483Y-91944026D01*
X155480453Y-91947234D01*
X155494050Y-91969616D01*
X155501431Y-92024121D01*
X155501634Y-92030282D01*
X155502976Y-92087969D01*
X155505136Y-92183425D01*
X155507813Y-92303323D01*
X155510674Y-92432747D01*
X155517167Y-92601945D01*
X155528467Y-92722914D01*
X155545118Y-92798357D01*
X155567665Y-92830973D01*
X155590336Y-92828031D01*
X155612706Y-92832472D01*
X155614607Y-92842826D01*
X155632883Y-92861856D01*
X155650045Y-92859022D01*
X155675056Y-92862139D01*
X155672907Y-92893512D01*
X155657554Y-92920330D01*
X155621200Y-92936515D01*
X155552271Y-92945594D01*
X155490538Y-92949095D01*
X155320610Y-92953344D01*
X155178381Y-92950381D01*
X155069640Y-92940719D01*
X155000175Y-92924873D01*
X154975774Y-92903386D01*
X154996275Y-92871339D01*
X155014104Y-92867153D01*
X155070129Y-92845212D01*
X155121129Y-92791683D01*
X155151640Y-92725007D01*
X155154648Y-92699548D01*
X155146305Y-92653554D01*
X155122706Y-92652191D01*
X155103546Y-92659853D01*
X155121454Y-92637163D01*
X155122706Y-92635811D01*
X155138159Y-92596080D01*
X155148397Y-92513880D01*
X155153706Y-92386018D01*
X155154648Y-92277762D01*
X155153826Y-92140636D01*
X155150440Y-92044418D01*
X155143111Y-91978925D01*
X155130459Y-91933971D01*
X155111105Y-91899372D01*
X155101686Y-91886796D01*
X155040254Y-91834285D01*
X154959635Y-91819467D01*
X154902938Y-91825575D01*
X154884760Y-91841478D01*
X154886157Y-91844728D01*
X154882076Y-91859328D01*
X154862842Y-91855051D01*
X154821046Y-91865146D01*
X154754039Y-91915569D01*
X154695419Y-91972037D01*
X154566921Y-92103960D01*
X154566921Y-92384851D01*
X154568757Y-92496073D01*
X154573738Y-92583962D01*
X154581073Y-92638854D01*
X154588783Y-92652231D01*
X154600857Y-92662797D01*
X154598410Y-92702725D01*
X154605483Y-92768002D01*
X154641182Y-92828280D01*
X154692090Y-92864040D01*
X154711425Y-92867153D01*
X154741843Y-92887692D01*
X154745795Y-92905483D01*
X154732277Y-92929293D01*
X154685472Y-92941633D01*
X154611640Y-92945187D01*
X154505510Y-92946913D01*
X154384492Y-92949783D01*
X154324165Y-92951575D01*
X154230766Y-92952979D01*
X154150703Y-92951339D01*
X154113350Y-92948424D01*
X154071421Y-92928680D01*
X154056054Y-92896971D01*
X154071584Y-92871676D01*
X154094185Y-92867153D01*
X154139368Y-92850236D01*
X154184351Y-92815317D01*
X154203725Y-92792523D01*
X154217472Y-92763566D01*
X154226457Y-92720158D01*
X154231544Y-92654013D01*
X154233597Y-92556841D01*
X154233482Y-92420357D01*
X154232992Y-92348969D01*
X154229881Y-92167957D01*
X154222772Y-92032052D01*
X154210244Y-91935315D01*
X154190879Y-91871812D01*
X154163256Y-91835606D01*
X154125957Y-91820761D01*
X154106373Y-91819467D01*
X154081890Y-91809770D01*
X154275732Y-91809770D01*
X154296786Y-91834069D01*
X154312608Y-91869234D01*
X154325010Y-91941367D01*
X154334134Y-92053165D01*
X154340120Y-92207323D01*
X154343110Y-92406539D01*
X154343246Y-92653509D01*
X154342911Y-92713833D01*
X154336234Y-92745627D01*
X154325386Y-92784105D01*
X154319854Y-92825934D01*
X154347425Y-92840446D01*
X154376283Y-92841600D01*
X154424419Y-92834315D01*
X154431455Y-92808137D01*
X154429112Y-92801180D01*
X154424229Y-92763767D01*
X154419977Y-92684015D01*
X154416615Y-92570690D01*
X154414404Y-92432557D01*
X154413601Y-92278383D01*
X154413601Y-91793914D01*
X154335116Y-91793914D01*
X154283618Y-91796582D01*
X154275732Y-91809770D01*
X154081890Y-91809770D01*
X154065201Y-91803160D01*
X154058769Y-91768234D01*
G37*
G36*
X154669135Y-93007696D02*
G01*
X154656358Y-93020473D01*
X154643581Y-93007696D01*
X154656358Y-92994920D01*
X154669135Y-93007696D01*
G37*
G36*
X149405151Y-91091197D02*
G01*
X149392374Y-91103974D01*
X149379597Y-91091197D01*
X149392374Y-91078421D01*
X149405151Y-91091197D01*
G37*
G36*
X162641770Y-93007696D02*
G01*
X162628994Y-93020473D01*
X162616217Y-93007696D01*
X162628994Y-92994920D01*
X162641770Y-93007696D01*
G37*
G36*
X150095090Y-90784558D02*
G01*
X150082314Y-90797334D01*
X150069537Y-90784558D01*
X150082314Y-90771781D01*
X150095090Y-90784558D01*
G37*
G36*
X158067726Y-92598843D02*
G01*
X158054950Y-92611620D01*
X158042173Y-92598843D01*
X158054950Y-92586067D01*
X158067726Y-92598843D01*
G37*
G36*
X163178390Y-92011117D02*
G01*
X163165614Y-92023894D01*
X163152837Y-92011117D01*
X163165614Y-91998340D01*
X163178390Y-92011117D01*
G37*
G36*
X159294286Y-92828823D02*
G01*
X159281509Y-92841600D01*
X159268732Y-92828823D01*
X159281509Y-92816046D01*
X159294286Y-92828823D01*
G37*
G36*
X160929698Y-92113330D02*
G01*
X160916921Y-92126107D01*
X160904145Y-92113330D01*
X160916921Y-92100553D01*
X160929698Y-92113330D01*
G37*
G36*
X151858269Y-92368863D02*
G01*
X151845493Y-92381640D01*
X151832716Y-92368863D01*
X151845493Y-92356087D01*
X151858269Y-92368863D01*
G37*
G36*
X150372229Y-92979703D02*
G01*
X150399446Y-93003457D01*
X150401730Y-93009204D01*
X150389603Y-93019707D01*
X150364355Y-92996173D01*
X150360960Y-92990971D01*
X150357948Y-92973485D01*
X150372229Y-92979703D01*
G37*
G36*
X161645191Y-92062224D02*
G01*
X161632414Y-92075000D01*
X161619638Y-92062224D01*
X161632414Y-92049447D01*
X161645191Y-92062224D01*
G37*
G36*
X163025070Y-91602264D02*
G01*
X163012294Y-91615040D01*
X162999517Y-91602264D01*
X163012294Y-91589487D01*
X163025070Y-91602264D01*
G37*
G36*
X152599316Y-92701057D02*
G01*
X152586539Y-92713833D01*
X152573762Y-92701057D01*
X152586539Y-92688280D01*
X152599316Y-92701057D01*
G37*
G36*
X153979195Y-91730030D02*
G01*
X153966418Y-91742807D01*
X153953642Y-91730030D01*
X153966418Y-91717254D01*
X153979195Y-91730030D01*
G37*
G36*
X158297706Y-93518763D02*
G01*
X158284929Y-93531539D01*
X158272153Y-93518763D01*
X158284929Y-93505986D01*
X158297706Y-93518763D01*
G37*
G36*
X153774768Y-91576710D02*
G01*
X153761992Y-91589487D01*
X153749215Y-91576710D01*
X153761992Y-91563934D01*
X153774768Y-91576710D01*
G37*
G36*
X154098945Y-91861526D02*
G01*
X154094185Y-91870574D01*
X154070108Y-91894977D01*
X154065615Y-91896127D01*
X154063872Y-91879621D01*
X154068632Y-91870574D01*
X154092708Y-91846170D01*
X154097201Y-91845020D01*
X154098945Y-91861526D01*
G37*
G36*
X159294286Y-91704477D02*
G01*
X159281509Y-91717254D01*
X159268732Y-91704477D01*
X159281509Y-91691700D01*
X159294286Y-91704477D01*
G37*
G36*
X162539557Y-92752163D02*
G01*
X162526781Y-92764940D01*
X162514004Y-92752163D01*
X162526781Y-92739386D01*
X162539557Y-92752163D01*
G37*
G36*
X150376177Y-92675503D02*
G01*
X150363400Y-92688280D01*
X150350624Y-92675503D01*
X150363400Y-92662727D01*
X150376177Y-92675503D01*
G37*
G36*
X151193883Y-90886771D02*
G01*
X151181106Y-90899547D01*
X151168330Y-90886771D01*
X151181106Y-90873994D01*
X151193883Y-90886771D01*
G37*
G36*
X154771348Y-93007696D02*
G01*
X154758571Y-93020473D01*
X154745795Y-93007696D01*
X154758571Y-92994920D01*
X154771348Y-93007696D01*
G37*
G36*
X165045548Y-91603355D02*
G01*
X165067864Y-91624331D01*
X165041572Y-91631924D01*
X165032130Y-91632076D01*
X165006502Y-91620799D01*
X165008342Y-91610365D01*
X165037972Y-91600000D01*
X165045548Y-91603355D01*
G37*
G36*
X157965513Y-93595423D02*
G01*
X157952736Y-93608199D01*
X157939960Y-93595423D01*
X157952736Y-93582646D01*
X157965513Y-93595423D01*
G37*
G36*
X153825875Y-91014537D02*
G01*
X153813098Y-91027314D01*
X153800322Y-91014537D01*
X153813098Y-91001761D01*
X153825875Y-91014537D01*
G37*
G36*
X160086438Y-92062224D02*
G01*
X160073662Y-92075000D01*
X160060885Y-92062224D01*
X160073662Y-92049447D01*
X160086438Y-92062224D01*
G37*
G36*
X149814004Y-91346731D02*
G01*
X149801227Y-91359507D01*
X149788451Y-91346731D01*
X149801227Y-91333954D01*
X149814004Y-91346731D01*
G37*
G36*
X157250020Y-91602264D02*
G01*
X157237243Y-91615040D01*
X157224467Y-91602264D01*
X157237243Y-91589487D01*
X157250020Y-91602264D01*
G37*
G36*
X153595895Y-91602264D02*
G01*
X153583119Y-91615040D01*
X153570342Y-91602264D01*
X153583119Y-91589487D01*
X153595895Y-91602264D01*
G37*
G36*
X162411791Y-92547737D02*
G01*
X162399014Y-92560513D01*
X162386237Y-92547737D01*
X162399014Y-92534960D01*
X162411791Y-92547737D01*
G37*
G36*
X149711791Y-90784558D02*
G01*
X149699014Y-90797334D01*
X149686237Y-90784558D01*
X149699014Y-90771781D01*
X149711791Y-90784558D01*
G37*
G36*
X153774768Y-91653370D02*
G01*
X153761992Y-91666147D01*
X153749215Y-91653370D01*
X153761992Y-91640594D01*
X153774768Y-91653370D01*
G37*
G36*
X151934929Y-92854376D02*
G01*
X151922153Y-92867153D01*
X151909376Y-92854376D01*
X151922153Y-92841600D01*
X151934929Y-92854376D01*
G37*
G36*
X156815614Y-91755584D02*
G01*
X156802837Y-91768360D01*
X156790060Y-91755584D01*
X156802837Y-91742807D01*
X156815614Y-91755584D01*
G37*
G36*
X162360684Y-92598843D02*
G01*
X162347907Y-92611620D01*
X162335131Y-92598843D01*
X162347907Y-92586067D01*
X162360684Y-92598843D01*
G37*
G36*
X156253440Y-92547737D02*
G01*
X156240664Y-92560513D01*
X156227887Y-92547737D01*
X156240664Y-92534960D01*
X156253440Y-92547737D01*
G37*
G36*
X158808772Y-93544316D02*
G01*
X158795996Y-93557093D01*
X158783219Y-93544316D01*
X158795996Y-93531539D01*
X158808772Y-93544316D01*
G37*
G36*
X164532716Y-91960010D02*
G01*
X164519939Y-91972787D01*
X164507163Y-91960010D01*
X164519939Y-91947234D01*
X164532716Y-91960010D01*
G37*
G36*
X163229497Y-92649950D02*
G01*
X163216720Y-92662727D01*
X163203943Y-92649950D01*
X163216720Y-92637173D01*
X163229497Y-92649950D01*
G37*
G36*
X154694688Y-92189990D02*
G01*
X154681911Y-92202767D01*
X154669135Y-92189990D01*
X154681911Y-92177213D01*
X154694688Y-92189990D01*
G37*
X170638748Y-109465000D02*
X171161252Y-109465000D01*
X170638748Y-110935000D02*
X171161252Y-110935000D01*
X147875400Y-111221200D02*
X145215400Y-111221200D01*
X147875400Y-111221200D02*
X147875400Y-95921200D01*
X146545400Y-113821200D02*
X145215400Y-113821200D01*
X145215400Y-113821200D02*
X145215400Y-112491200D01*
X145215400Y-111221200D02*
X145215400Y-95921200D01*
X147875400Y-95921200D02*
X145215400Y-95921200D01*
X166227064Y-113735000D02*
X165772936Y-113735000D01*
X166227064Y-112265000D02*
X165772936Y-112265000D01*
X155322464Y-99901200D02*
X150968336Y-99901200D01*
X155322464Y-96481200D02*
X150968336Y-96481200D01*
X140275400Y-111201200D02*
X140275400Y-95901200D01*
X142935400Y-111201200D02*
X140275400Y-111201200D01*
X141605400Y-113801200D02*
X140275400Y-113801200D01*
X142935400Y-95901200D02*
X140275400Y-95901200D01*
X142935400Y-111201200D02*
X142935400Y-95901200D01*
X140275400Y-113801200D02*
X140275400Y-112471200D01*
X166212064Y-105626665D02*
X165757936Y-105626665D01*
X166212064Y-104156665D02*
X165757936Y-104156665D01*
X165757936Y-109459997D02*
X166212064Y-109459997D01*
X165757936Y-110929997D02*
X166212064Y-110929997D01*
M02*
