G04 #@! TF.GenerationSoftware,KiCad,Pcbnew,(6.0.0-0)*
G04 #@! TF.CreationDate,2023-05-30T22:12:00-07:00*
G04 #@! TF.ProjectId,breakout,62726561-6b6f-4757-942e-6b696361645f,0.2.0*
G04 #@! TF.SameCoordinates,Original*
G04 #@! TF.FileFunction,Copper,L2,Bot*
G04 #@! TF.FilePolarity,Positive*
%FSLAX46Y46*%
G04 Gerber Fmt 4.6, Leading zero omitted, Abs format (unit mm)*
G04 Created by KiCad (PCBNEW (6.0.0-0)) date 2023-05-30 22:12:00*
%MOMM*%
%LPD*%
G01*
G04 APERTURE LIST*
G04 #@! TA.AperFunction,ComponentPad*
%ADD10C,1.700000*%
G04 #@! TD*
G04 #@! TA.AperFunction,ComponentPad*
%ADD11R,1.700000X1.700000*%
G04 #@! TD*
G04 #@! TA.AperFunction,ComponentPad*
%ADD12O,1.700000X1.700000*%
G04 #@! TD*
G04 #@! TA.AperFunction,ViaPad*
%ADD13C,0.685800*%
G04 #@! TD*
G04 #@! TA.AperFunction,Conductor*
%ADD14C,0.254000*%
G04 #@! TD*
G04 APERTURE END LIST*
D10*
X159425400Y-103041200D03*
X159425400Y-106541200D03*
D11*
X164440000Y-119995000D03*
D12*
X164440000Y-117455000D03*
D10*
X146545400Y-112491200D03*
D11*
X146545400Y-109951200D03*
D12*
X146545400Y-107411200D03*
X146545400Y-104871200D03*
X146545400Y-102331200D03*
X146545400Y-99791200D03*
X146545400Y-97251200D03*
D10*
X141605400Y-112471200D03*
D11*
X141605400Y-109931200D03*
D12*
X141605400Y-107391200D03*
X141605400Y-104851200D03*
X141605400Y-102311200D03*
X141605400Y-99771200D03*
X141605400Y-97231200D03*
D13*
X159400000Y-108600000D03*
X168500000Y-98300000D03*
X168275000Y-90805000D03*
X146685000Y-90805000D03*
X159400000Y-101200000D03*
X168275000Y-118745000D03*
X157480000Y-93980000D03*
X146685000Y-118745000D03*
X173400000Y-99300000D03*
X172100000Y-105300000D03*
X165100000Y-95000000D03*
D14*
X172300000Y-99300000D02*
X172085000Y-99085000D01*
X148754200Y-114700000D02*
X146545400Y-112491200D01*
X172085000Y-113030000D02*
X170415000Y-114700000D01*
X170415000Y-114700000D02*
X148754200Y-114700000D01*
X173400000Y-99300000D02*
X172300000Y-99300000D01*
X165100000Y-95000000D02*
X169930000Y-95000000D01*
X172085000Y-97155000D02*
X172085000Y-99085000D01*
X172085000Y-99085000D02*
X172085000Y-113030000D01*
X169930000Y-95000000D02*
X172085000Y-97155000D01*
G04 #@! TA.AperFunction,Conductor*
G36*
X173977153Y-89604595D02*
G01*
X173990000Y-89607150D01*
X174002172Y-89604729D01*
X174013699Y-89604729D01*
X174024681Y-89605208D01*
X174155449Y-89616649D01*
X174177070Y-89620461D01*
X174326848Y-89660594D01*
X174347484Y-89668105D01*
X174488010Y-89733634D01*
X174507030Y-89744616D01*
X174634046Y-89833553D01*
X174650871Y-89847671D01*
X174760503Y-89957303D01*
X174774621Y-89974128D01*
X174863558Y-90101144D01*
X174874540Y-90120164D01*
X174940069Y-90260690D01*
X174947580Y-90281326D01*
X174987713Y-90431104D01*
X174991526Y-90452728D01*
X175002966Y-90583494D01*
X175003445Y-90594475D01*
X175003445Y-90606002D01*
X175001024Y-90618174D01*
X175003445Y-90630344D01*
X175003579Y-90631018D01*
X175006000Y-90655599D01*
X175006000Y-120612574D01*
X175003579Y-120637152D01*
X175001024Y-120649999D01*
X175003445Y-120662171D01*
X175003445Y-120673698D01*
X175002966Y-120684679D01*
X174991526Y-120815445D01*
X174987713Y-120837069D01*
X174958163Y-120947352D01*
X174947581Y-120986845D01*
X174940069Y-121007483D01*
X174874540Y-121148009D01*
X174863558Y-121167029D01*
X174774621Y-121294045D01*
X174760503Y-121310870D01*
X174650871Y-121420502D01*
X174634046Y-121434620D01*
X174507030Y-121523557D01*
X174488010Y-121534539D01*
X174347484Y-121600068D01*
X174326848Y-121607579D01*
X174177070Y-121647712D01*
X174155449Y-121651524D01*
X174046878Y-121661023D01*
X174024680Y-121662965D01*
X174013699Y-121663444D01*
X174002172Y-121663444D01*
X173990000Y-121661023D01*
X173977153Y-121663578D01*
X173952575Y-121665999D01*
X156210383Y-121666000D01*
X141032825Y-121666000D01*
X141008247Y-121663579D01*
X140995400Y-121661024D01*
X140983228Y-121663445D01*
X140971701Y-121663445D01*
X140960720Y-121662966D01*
X140938522Y-121661024D01*
X140829951Y-121651525D01*
X140808330Y-121647713D01*
X140658552Y-121607580D01*
X140637916Y-121600069D01*
X140497390Y-121534540D01*
X140478370Y-121523558D01*
X140351354Y-121434621D01*
X140334529Y-121420503D01*
X140224897Y-121310871D01*
X140210779Y-121294046D01*
X140121842Y-121167030D01*
X140110860Y-121148010D01*
X140045331Y-121007484D01*
X140037819Y-120986846D01*
X140031324Y-120962606D01*
X140011781Y-120889669D01*
X163082001Y-120889669D01*
X163082371Y-120896490D01*
X163087895Y-120947352D01*
X163091521Y-120962604D01*
X163136676Y-121083054D01*
X163145214Y-121098649D01*
X163221715Y-121200724D01*
X163234276Y-121213285D01*
X163336351Y-121289786D01*
X163351946Y-121298324D01*
X163472394Y-121343478D01*
X163487649Y-121347105D01*
X163538514Y-121352631D01*
X163545328Y-121353000D01*
X164167885Y-121353000D01*
X164183124Y-121348525D01*
X164184329Y-121347135D01*
X164186000Y-121339452D01*
X164186000Y-121334884D01*
X164694000Y-121334884D01*
X164698475Y-121350123D01*
X164699865Y-121351328D01*
X164707548Y-121352999D01*
X165334669Y-121352999D01*
X165341490Y-121352629D01*
X165392352Y-121347105D01*
X165407604Y-121343479D01*
X165528054Y-121298324D01*
X165543649Y-121289786D01*
X165645724Y-121213285D01*
X165658285Y-121200724D01*
X165734786Y-121098649D01*
X165743324Y-121083054D01*
X165788478Y-120962606D01*
X165792105Y-120947351D01*
X165797631Y-120896486D01*
X165798000Y-120889672D01*
X165798000Y-120267115D01*
X165793525Y-120251876D01*
X165792135Y-120250671D01*
X165784452Y-120249000D01*
X164712115Y-120249000D01*
X164696876Y-120253475D01*
X164695671Y-120254865D01*
X164694000Y-120262548D01*
X164694000Y-121334884D01*
X164186000Y-121334884D01*
X164186000Y-120267115D01*
X164181525Y-120251876D01*
X164180135Y-120250671D01*
X164172452Y-120249000D01*
X163100116Y-120249000D01*
X163084877Y-120253475D01*
X163083672Y-120254865D01*
X163082001Y-120262548D01*
X163082001Y-120889669D01*
X140011781Y-120889669D01*
X139997687Y-120837070D01*
X139993874Y-120815446D01*
X139982434Y-120684680D01*
X139981955Y-120673699D01*
X139981955Y-120662172D01*
X139984376Y-120650000D01*
X139981821Y-120637153D01*
X139979400Y-120612575D01*
X139979400Y-118745000D01*
X141265539Y-118745000D01*
X141285354Y-118996775D01*
X141286508Y-119001582D01*
X141286509Y-119001588D01*
X141296367Y-119042648D01*
X141344312Y-119242351D01*
X141440960Y-119475680D01*
X141572919Y-119691017D01*
X141736939Y-119883061D01*
X141928983Y-120047081D01*
X142144320Y-120179040D01*
X142148890Y-120180933D01*
X142148894Y-120180935D01*
X142373076Y-120273794D01*
X142377649Y-120275688D01*
X142463865Y-120296387D01*
X142618412Y-120333491D01*
X142618418Y-120333492D01*
X142623225Y-120334646D01*
X142711253Y-120341574D01*
X142809507Y-120349307D01*
X142809516Y-120349307D01*
X142811964Y-120349500D01*
X142938036Y-120349500D01*
X142940484Y-120349307D01*
X142940493Y-120349307D01*
X143038747Y-120341574D01*
X143126775Y-120334646D01*
X143131582Y-120333492D01*
X143131588Y-120333491D01*
X143286135Y-120296387D01*
X143372351Y-120275688D01*
X143376924Y-120273794D01*
X143601106Y-120180935D01*
X143601110Y-120180933D01*
X143605680Y-120179040D01*
X143821017Y-120047081D01*
X144013061Y-119883061D01*
X144149863Y-119722885D01*
X163082000Y-119722885D01*
X163086475Y-119738124D01*
X163087865Y-119739329D01*
X163095548Y-119741000D01*
X165779884Y-119741000D01*
X165795123Y-119736525D01*
X165796328Y-119735135D01*
X165797999Y-119727452D01*
X165797999Y-119100331D01*
X165797629Y-119093510D01*
X165792105Y-119042648D01*
X165788479Y-119027396D01*
X165743324Y-118906946D01*
X165734786Y-118891351D01*
X165658285Y-118789276D01*
X165645724Y-118776715D01*
X165603407Y-118745000D01*
X170475539Y-118745000D01*
X170495354Y-118996775D01*
X170496508Y-119001582D01*
X170496509Y-119001588D01*
X170506367Y-119042648D01*
X170554312Y-119242351D01*
X170650960Y-119475680D01*
X170782919Y-119691017D01*
X170946939Y-119883061D01*
X171138983Y-120047081D01*
X171354320Y-120179040D01*
X171358890Y-120180933D01*
X171358894Y-120180935D01*
X171583076Y-120273794D01*
X171587649Y-120275688D01*
X171673865Y-120296387D01*
X171828412Y-120333491D01*
X171828418Y-120333492D01*
X171833225Y-120334646D01*
X171921253Y-120341574D01*
X172019507Y-120349307D01*
X172019516Y-120349307D01*
X172021964Y-120349500D01*
X172148036Y-120349500D01*
X172150484Y-120349307D01*
X172150493Y-120349307D01*
X172248747Y-120341574D01*
X172336775Y-120334646D01*
X172341582Y-120333492D01*
X172341588Y-120333491D01*
X172496135Y-120296387D01*
X172582351Y-120275688D01*
X172586924Y-120273794D01*
X172811106Y-120180935D01*
X172811110Y-120180933D01*
X172815680Y-120179040D01*
X173031017Y-120047081D01*
X173223061Y-119883061D01*
X173387081Y-119691017D01*
X173519040Y-119475680D01*
X173615688Y-119242351D01*
X173663633Y-119042648D01*
X173673491Y-119001588D01*
X173673492Y-119001582D01*
X173674646Y-118996775D01*
X173694461Y-118745000D01*
X173674646Y-118493225D01*
X173673492Y-118488418D01*
X173673491Y-118488412D01*
X173616843Y-118252461D01*
X173615688Y-118247649D01*
X173613775Y-118243031D01*
X173520935Y-118018894D01*
X173520933Y-118018890D01*
X173519040Y-118014320D01*
X173387081Y-117798983D01*
X173223061Y-117606939D01*
X173031017Y-117442919D01*
X172815680Y-117310960D01*
X172811110Y-117309067D01*
X172811106Y-117309065D01*
X172586924Y-117216206D01*
X172586922Y-117216205D01*
X172582351Y-117214312D01*
X172496135Y-117193613D01*
X172341588Y-117156509D01*
X172341582Y-117156508D01*
X172336775Y-117155354D01*
X172248747Y-117148426D01*
X172150493Y-117140693D01*
X172150484Y-117140693D01*
X172148036Y-117140500D01*
X172021964Y-117140500D01*
X172019516Y-117140693D01*
X172019507Y-117140693D01*
X171921253Y-117148426D01*
X171833225Y-117155354D01*
X171828418Y-117156508D01*
X171828412Y-117156509D01*
X171673865Y-117193613D01*
X171587649Y-117214312D01*
X171583078Y-117216205D01*
X171583076Y-117216206D01*
X171358894Y-117309065D01*
X171358890Y-117309067D01*
X171354320Y-117310960D01*
X171138983Y-117442919D01*
X170946939Y-117606939D01*
X170782919Y-117798983D01*
X170650960Y-118014320D01*
X170649067Y-118018890D01*
X170649065Y-118018894D01*
X170556225Y-118243031D01*
X170554312Y-118247649D01*
X170553157Y-118252461D01*
X170496509Y-118488412D01*
X170496508Y-118488418D01*
X170495354Y-118493225D01*
X170475539Y-118745000D01*
X165603407Y-118745000D01*
X165543649Y-118700214D01*
X165528054Y-118691676D01*
X165407606Y-118646522D01*
X165392351Y-118642895D01*
X165341486Y-118637369D01*
X165334672Y-118637000D01*
X165072846Y-118637000D01*
X165004725Y-118616998D01*
X164958232Y-118563342D01*
X164948128Y-118493068D01*
X164977622Y-118428488D01*
X165011275Y-118401069D01*
X165068276Y-118369147D01*
X165130934Y-118317035D01*
X165219913Y-118243031D01*
X165224345Y-118239345D01*
X165354147Y-118083276D01*
X165453334Y-117906165D01*
X165455190Y-117900698D01*
X165455192Y-117900693D01*
X165516728Y-117719414D01*
X165516729Y-117719409D01*
X165518584Y-117713945D01*
X165519412Y-117708236D01*
X165519413Y-117708231D01*
X165547179Y-117516727D01*
X165547712Y-117513053D01*
X165549232Y-117455000D01*
X165530658Y-117252859D01*
X165529090Y-117247299D01*
X165477125Y-117063046D01*
X165477124Y-117063044D01*
X165475557Y-117057487D01*
X165464978Y-117036033D01*
X165388331Y-116880609D01*
X165385776Y-116875428D01*
X165264320Y-116712779D01*
X165115258Y-116574987D01*
X165110375Y-116571906D01*
X165110371Y-116571903D01*
X164948464Y-116469748D01*
X164943581Y-116466667D01*
X164755039Y-116391446D01*
X164749379Y-116390320D01*
X164749375Y-116390319D01*
X164561613Y-116352971D01*
X164561610Y-116352971D01*
X164555946Y-116351844D01*
X164550171Y-116351768D01*
X164550167Y-116351768D01*
X164448793Y-116350441D01*
X164352971Y-116349187D01*
X164347274Y-116350166D01*
X164347273Y-116350166D01*
X164158607Y-116382585D01*
X164152910Y-116383564D01*
X163962463Y-116453824D01*
X163788010Y-116557612D01*
X163783670Y-116561418D01*
X163783666Y-116561421D01*
X163763723Y-116578911D01*
X163635392Y-116691455D01*
X163509720Y-116850869D01*
X163507031Y-116855980D01*
X163507029Y-116855983D01*
X163494073Y-116880609D01*
X163415203Y-117030515D01*
X163355007Y-117224378D01*
X163331148Y-117425964D01*
X163344424Y-117628522D01*
X163345845Y-117634118D01*
X163345846Y-117634123D01*
X163366119Y-117713945D01*
X163394392Y-117825269D01*
X163396809Y-117830512D01*
X163434010Y-117911208D01*
X163479377Y-118009616D01*
X163596533Y-118175389D01*
X163741938Y-118317035D01*
X163746742Y-118320245D01*
X163875436Y-118406236D01*
X163920964Y-118460713D01*
X163929812Y-118531156D01*
X163899170Y-118595200D01*
X163838768Y-118632512D01*
X163805434Y-118637001D01*
X163545331Y-118637001D01*
X163538510Y-118637371D01*
X163487648Y-118642895D01*
X163472396Y-118646521D01*
X163351946Y-118691676D01*
X163336351Y-118700214D01*
X163234276Y-118776715D01*
X163221715Y-118789276D01*
X163145214Y-118891351D01*
X163136676Y-118906946D01*
X163091522Y-119027394D01*
X163087895Y-119042649D01*
X163082369Y-119093514D01*
X163082000Y-119100328D01*
X163082000Y-119722885D01*
X144149863Y-119722885D01*
X144177081Y-119691017D01*
X144309040Y-119475680D01*
X144405688Y-119242351D01*
X144453633Y-119042648D01*
X144463491Y-119001588D01*
X144463492Y-119001582D01*
X144464646Y-118996775D01*
X144484461Y-118745000D01*
X144464646Y-118493225D01*
X144463492Y-118488418D01*
X144463491Y-118488412D01*
X144406843Y-118252461D01*
X144405688Y-118247649D01*
X144403775Y-118243031D01*
X144310935Y-118018894D01*
X144310933Y-118018890D01*
X144309040Y-118014320D01*
X144177081Y-117798983D01*
X144013061Y-117606939D01*
X143821017Y-117442919D01*
X143605680Y-117310960D01*
X143601110Y-117309067D01*
X143601106Y-117309065D01*
X143376924Y-117216206D01*
X143376922Y-117216205D01*
X143372351Y-117214312D01*
X143286135Y-117193613D01*
X143131588Y-117156509D01*
X143131582Y-117156508D01*
X143126775Y-117155354D01*
X143038747Y-117148426D01*
X142940493Y-117140693D01*
X142940484Y-117140693D01*
X142938036Y-117140500D01*
X142811964Y-117140500D01*
X142809516Y-117140693D01*
X142809507Y-117140693D01*
X142711253Y-117148426D01*
X142623225Y-117155354D01*
X142618418Y-117156508D01*
X142618412Y-117156509D01*
X142463865Y-117193613D01*
X142377649Y-117214312D01*
X142373078Y-117216205D01*
X142373076Y-117216206D01*
X142148894Y-117309065D01*
X142148890Y-117309067D01*
X142144320Y-117310960D01*
X141928983Y-117442919D01*
X141736939Y-117606939D01*
X141572919Y-117798983D01*
X141440960Y-118014320D01*
X141439067Y-118018890D01*
X141439065Y-118018894D01*
X141346225Y-118243031D01*
X141344312Y-118247649D01*
X141343157Y-118252461D01*
X141286509Y-118488412D01*
X141286508Y-118488418D01*
X141285354Y-118493225D01*
X141265539Y-118745000D01*
X139979400Y-118745000D01*
X139979400Y-110825869D01*
X140247401Y-110825869D01*
X140247771Y-110832690D01*
X140253295Y-110883552D01*
X140256921Y-110898804D01*
X140302076Y-111019254D01*
X140310614Y-111034849D01*
X140387115Y-111136924D01*
X140399676Y-111149485D01*
X140501751Y-111225986D01*
X140517346Y-111234524D01*
X140637794Y-111279678D01*
X140653049Y-111283305D01*
X140703914Y-111288831D01*
X140710728Y-111289200D01*
X140973580Y-111289200D01*
X141041701Y-111309202D01*
X141088194Y-111362858D01*
X141098298Y-111433132D01*
X141068804Y-111497712D01*
X141038005Y-111523484D01*
X140953410Y-111573812D01*
X140949070Y-111577618D01*
X140949066Y-111577621D01*
X140805133Y-111703848D01*
X140800792Y-111707655D01*
X140675120Y-111867069D01*
X140672431Y-111872180D01*
X140672429Y-111872183D01*
X140651676Y-111911628D01*
X140580603Y-112046715D01*
X140520407Y-112240578D01*
X140496548Y-112442164D01*
X140509824Y-112644722D01*
X140511245Y-112650318D01*
X140511246Y-112650323D01*
X140531519Y-112730145D01*
X140559792Y-112841469D01*
X140562209Y-112846712D01*
X140599410Y-112927408D01*
X140644777Y-113025816D01*
X140648110Y-113030532D01*
X140686940Y-113085475D01*
X140761933Y-113191589D01*
X140766075Y-113195624D01*
X140782464Y-113211589D01*
X140907338Y-113333235D01*
X141076120Y-113446012D01*
X141081423Y-113448290D01*
X141081426Y-113448292D01*
X141257321Y-113523862D01*
X141262628Y-113526142D01*
X141335644Y-113542664D01*
X141454979Y-113569667D01*
X141454984Y-113569668D01*
X141460616Y-113570942D01*
X141466387Y-113571169D01*
X141466389Y-113571169D01*
X141526156Y-113573517D01*
X141663453Y-113578912D01*
X141763899Y-113564348D01*
X141858631Y-113550613D01*
X141858636Y-113550612D01*
X141864345Y-113549784D01*
X141869809Y-113547929D01*
X141869814Y-113547928D01*
X142051093Y-113486392D01*
X142051098Y-113486390D01*
X142056565Y-113484534D01*
X142089639Y-113466012D01*
X142131083Y-113442802D01*
X142233676Y-113385347D01*
X142272287Y-113353235D01*
X142385313Y-113259231D01*
X142389745Y-113255545D01*
X142426303Y-113211589D01*
X142515853Y-113103918D01*
X142515855Y-113103915D01*
X142519547Y-113099476D01*
X142601934Y-112952364D01*
X142615910Y-112927408D01*
X142615911Y-112927406D01*
X142618734Y-112922365D01*
X142620590Y-112916898D01*
X142620592Y-112916893D01*
X142682128Y-112735614D01*
X142682129Y-112735609D01*
X142683984Y-112730145D01*
X142684812Y-112724436D01*
X142684813Y-112724431D01*
X142712579Y-112532927D01*
X142713112Y-112529253D01*
X142714632Y-112471200D01*
X142703197Y-112346751D01*
X142696587Y-112274813D01*
X142696586Y-112274810D01*
X142696058Y-112269059D01*
X142692110Y-112255061D01*
X142642525Y-112079246D01*
X142642524Y-112079244D01*
X142640957Y-112073687D01*
X142630378Y-112052233D01*
X142553731Y-111896809D01*
X142551176Y-111891628D01*
X142429720Y-111728979D01*
X142280658Y-111591187D01*
X142170624Y-111521761D01*
X142123686Y-111468494D01*
X142112997Y-111398307D01*
X142141952Y-111333482D01*
X142201356Y-111294603D01*
X142237860Y-111289199D01*
X142500069Y-111289199D01*
X142506890Y-111288829D01*
X142557752Y-111283305D01*
X142573004Y-111279679D01*
X142693454Y-111234524D01*
X142709049Y-111225986D01*
X142811124Y-111149485D01*
X142823685Y-111136924D01*
X142900186Y-111034849D01*
X142908724Y-111019254D01*
X142953878Y-110898806D01*
X142957505Y-110883551D01*
X142961599Y-110845869D01*
X145187401Y-110845869D01*
X145187771Y-110852690D01*
X145193295Y-110903552D01*
X145196921Y-110918804D01*
X145242076Y-111039254D01*
X145250614Y-111054849D01*
X145327115Y-111156924D01*
X145339676Y-111169485D01*
X145441751Y-111245986D01*
X145457346Y-111254524D01*
X145577794Y-111299678D01*
X145593049Y-111303305D01*
X145643914Y-111308831D01*
X145650728Y-111309200D01*
X145913580Y-111309200D01*
X145981701Y-111329202D01*
X146028194Y-111382858D01*
X146038298Y-111453132D01*
X146008804Y-111517712D01*
X145978005Y-111543484D01*
X145893410Y-111593812D01*
X145889070Y-111597618D01*
X145889066Y-111597621D01*
X145758425Y-111712191D01*
X145740792Y-111727655D01*
X145615120Y-111887069D01*
X145612431Y-111892180D01*
X145612429Y-111892183D01*
X145599473Y-111916809D01*
X145520603Y-112066715D01*
X145460407Y-112260578D01*
X145436548Y-112462164D01*
X145449824Y-112664722D01*
X145451245Y-112670318D01*
X145451246Y-112670323D01*
X145471519Y-112750145D01*
X145499792Y-112861469D01*
X145502209Y-112866712D01*
X145541695Y-112952364D01*
X145584777Y-113045816D01*
X145605104Y-113074578D01*
X145695946Y-113203117D01*
X145701933Y-113211589D01*
X145706075Y-113215624D01*
X145781935Y-113289523D01*
X145847338Y-113353235D01*
X146016120Y-113466012D01*
X146021423Y-113468290D01*
X146021426Y-113468292D01*
X146159044Y-113527417D01*
X146202628Y-113546142D01*
X146275644Y-113562664D01*
X146394979Y-113589667D01*
X146394984Y-113589668D01*
X146400616Y-113590942D01*
X146406387Y-113591169D01*
X146406389Y-113591169D01*
X146466156Y-113593517D01*
X146603453Y-113598912D01*
X146703899Y-113584348D01*
X146798631Y-113570613D01*
X146798636Y-113570612D01*
X146804345Y-113569784D01*
X146809809Y-113567929D01*
X146809814Y-113567928D01*
X146939280Y-113523980D01*
X147010215Y-113521024D01*
X147068876Y-113554198D01*
X148446156Y-114931479D01*
X148461515Y-114950495D01*
X148462481Y-114951556D01*
X148468129Y-114960304D01*
X148476306Y-114966750D01*
X148494672Y-114981229D01*
X148499147Y-114985206D01*
X148499208Y-114985135D01*
X148503165Y-114988488D01*
X148506848Y-114992171D01*
X148511083Y-114995197D01*
X148511085Y-114995199D01*
X148522636Y-115003453D01*
X148527382Y-115007016D01*
X148567870Y-115038934D01*
X148576557Y-115041985D01*
X148584043Y-115047334D01*
X148594019Y-115050317D01*
X148594020Y-115050318D01*
X148625402Y-115059703D01*
X148629663Y-115060977D01*
X148633411Y-115062098D01*
X148639043Y-115063928D01*
X148687702Y-115081016D01*
X148693291Y-115081500D01*
X148696002Y-115081500D01*
X148698669Y-115081615D01*
X148698732Y-115081634D01*
X148698725Y-115081808D01*
X148699471Y-115081855D01*
X148705724Y-115083725D01*
X148755583Y-115081766D01*
X148759878Y-115081597D01*
X148764825Y-115081500D01*
X170360865Y-115081500D01*
X170385164Y-115084086D01*
X170386602Y-115084154D01*
X170396780Y-115086345D01*
X170430341Y-115082373D01*
X170436320Y-115082021D01*
X170436312Y-115081928D01*
X170441490Y-115081500D01*
X170446692Y-115081500D01*
X170465846Y-115078312D01*
X170471704Y-115077478D01*
X170488318Y-115075512D01*
X170512567Y-115072642D01*
X170512568Y-115072642D01*
X170522907Y-115071418D01*
X170531206Y-115067433D01*
X170540283Y-115065922D01*
X170585651Y-115041442D01*
X170590914Y-115038761D01*
X170630250Y-115019873D01*
X170630254Y-115019870D01*
X170637398Y-115016440D01*
X170641692Y-115012830D01*
X170643624Y-115010898D01*
X170645573Y-115009111D01*
X170645626Y-115009082D01*
X170645745Y-115009212D01*
X170646313Y-115008711D01*
X170652057Y-115005612D01*
X170688868Y-114965790D01*
X170692297Y-114962225D01*
X172316476Y-113338046D01*
X172335499Y-113322682D01*
X172336558Y-113321718D01*
X172345304Y-113316071D01*
X172351752Y-113307892D01*
X172351754Y-113307890D01*
X172366234Y-113289523D01*
X172370209Y-113285050D01*
X172370137Y-113284989D01*
X172373490Y-113281032D01*
X172377171Y-113277351D01*
X172388455Y-113261560D01*
X172392019Y-113256814D01*
X172417487Y-113224508D01*
X172423934Y-113216330D01*
X172426984Y-113207645D01*
X172432335Y-113200157D01*
X172447110Y-113150750D01*
X172448926Y-113145163D01*
X172466016Y-113096498D01*
X172466500Y-113090909D01*
X172466500Y-113088198D01*
X172466615Y-113085529D01*
X172466634Y-113085468D01*
X172466808Y-113085475D01*
X172466855Y-113084728D01*
X172468725Y-113078475D01*
X172466597Y-113024311D01*
X172466500Y-113019365D01*
X172466500Y-105833917D01*
X172486502Y-105765796D01*
X172515796Y-105733955D01*
X172526071Y-105726071D01*
X172535921Y-105713235D01*
X172616801Y-105607828D01*
X172621828Y-105601277D01*
X172682023Y-105455953D01*
X172702555Y-105300000D01*
X172682023Y-105144047D01*
X172621828Y-104998723D01*
X172526071Y-104873929D01*
X172515797Y-104866046D01*
X172473930Y-104808711D01*
X172466500Y-104766083D01*
X172466500Y-99807500D01*
X172486502Y-99739379D01*
X172540158Y-99692886D01*
X172592500Y-99681500D01*
X172878692Y-99681500D01*
X172946813Y-99701502D01*
X172967790Y-99718407D01*
X172968900Y-99719517D01*
X172973929Y-99726071D01*
X173098722Y-99821828D01*
X173244047Y-99882023D01*
X173400000Y-99902555D01*
X173555953Y-99882023D01*
X173701278Y-99821828D01*
X173826071Y-99726071D01*
X173921828Y-99601277D01*
X173982023Y-99455953D01*
X174002555Y-99300000D01*
X173982023Y-99144047D01*
X173921828Y-98998723D01*
X173826071Y-98873929D01*
X173701278Y-98778172D01*
X173555953Y-98717977D01*
X173400000Y-98697445D01*
X173244047Y-98717977D01*
X173098723Y-98778172D01*
X172973929Y-98873929D01*
X172968900Y-98880483D01*
X172967790Y-98881593D01*
X172905479Y-98915620D01*
X172878692Y-98918500D01*
X172592500Y-98918500D01*
X172524379Y-98898498D01*
X172477886Y-98844842D01*
X172466500Y-98792500D01*
X172466500Y-97209135D01*
X172469086Y-97184836D01*
X172469154Y-97183398D01*
X172471345Y-97173220D01*
X172467373Y-97139658D01*
X172467021Y-97133680D01*
X172466928Y-97133688D01*
X172466500Y-97128510D01*
X172466500Y-97123308D01*
X172463312Y-97104154D01*
X172462477Y-97098289D01*
X172457642Y-97057433D01*
X172457642Y-97057432D01*
X172456418Y-97047093D01*
X172452433Y-97038794D01*
X172450922Y-97029717D01*
X172426442Y-96984349D01*
X172423761Y-96979086D01*
X172404873Y-96939750D01*
X172404870Y-96939746D01*
X172401440Y-96932602D01*
X172397830Y-96928308D01*
X172395898Y-96926376D01*
X172394111Y-96924427D01*
X172394082Y-96924374D01*
X172394212Y-96924255D01*
X172393711Y-96923687D01*
X172390612Y-96917943D01*
X172350791Y-96881133D01*
X172347226Y-96877704D01*
X170238044Y-94768521D01*
X170222685Y-94749505D01*
X170221719Y-94748444D01*
X170216071Y-94739696D01*
X170189528Y-94718771D01*
X170185053Y-94714794D01*
X170184992Y-94714865D01*
X170181035Y-94711512D01*
X170177352Y-94707829D01*
X170161561Y-94696545D01*
X170156815Y-94692982D01*
X170124507Y-94667512D01*
X170124506Y-94667511D01*
X170116330Y-94661066D01*
X170107643Y-94658015D01*
X170100157Y-94652666D01*
X170090181Y-94649683D01*
X170090180Y-94649682D01*
X170050789Y-94637902D01*
X170045157Y-94636072D01*
X169996498Y-94618984D01*
X169990909Y-94618500D01*
X169988198Y-94618500D01*
X169985531Y-94618385D01*
X169985468Y-94618366D01*
X169985475Y-94618192D01*
X169984729Y-94618145D01*
X169978476Y-94616275D01*
X169929692Y-94618192D01*
X169924322Y-94618403D01*
X169919375Y-94618500D01*
X165621308Y-94618500D01*
X165553187Y-94598498D01*
X165532210Y-94581593D01*
X165531100Y-94580483D01*
X165526071Y-94573929D01*
X165401278Y-94478172D01*
X165255953Y-94417977D01*
X165100000Y-94397445D01*
X164944047Y-94417977D01*
X164798723Y-94478172D01*
X164673929Y-94573929D01*
X164578172Y-94698723D01*
X164517977Y-94844047D01*
X164497445Y-95000000D01*
X164517977Y-95155953D01*
X164578172Y-95301277D01*
X164673929Y-95426071D01*
X164798722Y-95521828D01*
X164944047Y-95582023D01*
X165100000Y-95602555D01*
X165255953Y-95582023D01*
X165401278Y-95521828D01*
X165526071Y-95426071D01*
X165531100Y-95419517D01*
X165532210Y-95418407D01*
X165594521Y-95384380D01*
X165621308Y-95381500D01*
X169719788Y-95381500D01*
X169787909Y-95401502D01*
X169808883Y-95418405D01*
X171666595Y-97276118D01*
X171700621Y-97338430D01*
X171703500Y-97365213D01*
X171703500Y-99030865D01*
X171700914Y-99055164D01*
X171700846Y-99056602D01*
X171698655Y-99066780D01*
X171699879Y-99077120D01*
X171702627Y-99100342D01*
X171703500Y-99115151D01*
X171703500Y-104793691D01*
X171683498Y-104861812D01*
X171673808Y-104873836D01*
X171673929Y-104873929D01*
X171578172Y-104998723D01*
X171517977Y-105144047D01*
X171497445Y-105300000D01*
X171517977Y-105455953D01*
X171578172Y-105601277D01*
X171583199Y-105607828D01*
X171673929Y-105726071D01*
X171672169Y-105727422D01*
X171700621Y-105779526D01*
X171703500Y-105806309D01*
X171703500Y-112819787D01*
X171683498Y-112887908D01*
X171666595Y-112908882D01*
X170293882Y-114281595D01*
X170231570Y-114315621D01*
X170204787Y-114318500D01*
X148964412Y-114318500D01*
X148896291Y-114298498D01*
X148875317Y-114281595D01*
X147608398Y-113014676D01*
X147574372Y-112952364D01*
X147578180Y-112885080D01*
X147622128Y-112755614D01*
X147622129Y-112755609D01*
X147623984Y-112750145D01*
X147624812Y-112744436D01*
X147624813Y-112744431D01*
X147652579Y-112552927D01*
X147653112Y-112549253D01*
X147654632Y-112491200D01*
X147636058Y-112289059D01*
X147630417Y-112269059D01*
X147582525Y-112099246D01*
X147582524Y-112099244D01*
X147580957Y-112093687D01*
X147571095Y-112073687D01*
X147493731Y-111916809D01*
X147491176Y-111911628D01*
X147369720Y-111748979D01*
X147220658Y-111611187D01*
X147110624Y-111541761D01*
X147063686Y-111488494D01*
X147052997Y-111418307D01*
X147081952Y-111353482D01*
X147141356Y-111314603D01*
X147177860Y-111309199D01*
X147440069Y-111309199D01*
X147446890Y-111308829D01*
X147497752Y-111303305D01*
X147513004Y-111299679D01*
X147633454Y-111254524D01*
X147649049Y-111245986D01*
X147674916Y-111226600D01*
X158918539Y-111226600D01*
X158938354Y-111478375D01*
X158939508Y-111483182D01*
X158939509Y-111483188D01*
X158971182Y-111615111D01*
X158997312Y-111723951D01*
X158999205Y-111728522D01*
X158999206Y-111728524D01*
X159073134Y-111907001D01*
X159093960Y-111957280D01*
X159225919Y-112172617D01*
X159389939Y-112364661D01*
X159581983Y-112528681D01*
X159797320Y-112660640D01*
X159801890Y-112662533D01*
X159801894Y-112662535D01*
X159978323Y-112735614D01*
X160030649Y-112757288D01*
X160116865Y-112777987D01*
X160271412Y-112815091D01*
X160271418Y-112815092D01*
X160276225Y-112816246D01*
X160364253Y-112823174D01*
X160462507Y-112830907D01*
X160462516Y-112830907D01*
X160464964Y-112831100D01*
X160591036Y-112831100D01*
X160593484Y-112830907D01*
X160593493Y-112830907D01*
X160691747Y-112823174D01*
X160779775Y-112816246D01*
X160784582Y-112815092D01*
X160784588Y-112815091D01*
X160939135Y-112777987D01*
X161025351Y-112757288D01*
X161077677Y-112735614D01*
X161254106Y-112662535D01*
X161254110Y-112662533D01*
X161258680Y-112660640D01*
X161474017Y-112528681D01*
X161666061Y-112364661D01*
X161830081Y-112172617D01*
X161962040Y-111957280D01*
X161982867Y-111907001D01*
X162056794Y-111728524D01*
X162056795Y-111728522D01*
X162058688Y-111723951D01*
X162084818Y-111615111D01*
X162116491Y-111483188D01*
X162116492Y-111483182D01*
X162117646Y-111478375D01*
X162137461Y-111226600D01*
X162117646Y-110974825D01*
X162116492Y-110970018D01*
X162116491Y-110970012D01*
X162059843Y-110734061D01*
X162058688Y-110729249D01*
X161962040Y-110495920D01*
X161830081Y-110280583D01*
X161666061Y-110088539D01*
X161474017Y-109924519D01*
X161258680Y-109792560D01*
X161254110Y-109790667D01*
X161254106Y-109790665D01*
X161029924Y-109697806D01*
X161029922Y-109697805D01*
X161025351Y-109695912D01*
X160922981Y-109671335D01*
X160784588Y-109638109D01*
X160784582Y-109638108D01*
X160779775Y-109636954D01*
X160691747Y-109630026D01*
X160593493Y-109622293D01*
X160593484Y-109622293D01*
X160591036Y-109622100D01*
X160464964Y-109622100D01*
X160462516Y-109622293D01*
X160462507Y-109622293D01*
X160364253Y-109630026D01*
X160276225Y-109636954D01*
X160271418Y-109638108D01*
X160271412Y-109638109D01*
X160133019Y-109671335D01*
X160030649Y-109695912D01*
X160026078Y-109697805D01*
X160026076Y-109697806D01*
X159801894Y-109790665D01*
X159801890Y-109790667D01*
X159797320Y-109792560D01*
X159581983Y-109924519D01*
X159389939Y-110088539D01*
X159225919Y-110280583D01*
X159093960Y-110495920D01*
X158997312Y-110729249D01*
X158996157Y-110734061D01*
X158939509Y-110970012D01*
X158939508Y-110970018D01*
X158938354Y-110974825D01*
X158918539Y-111226600D01*
X147674916Y-111226600D01*
X147751124Y-111169485D01*
X147763685Y-111156924D01*
X147840186Y-111054849D01*
X147848724Y-111039254D01*
X147893878Y-110918806D01*
X147897505Y-110903551D01*
X147903031Y-110852686D01*
X147903400Y-110845872D01*
X147903400Y-110223315D01*
X147898925Y-110208076D01*
X147897535Y-110206871D01*
X147889852Y-110205200D01*
X145205516Y-110205200D01*
X145190277Y-110209675D01*
X145189072Y-110211065D01*
X145187401Y-110218748D01*
X145187401Y-110845869D01*
X142961599Y-110845869D01*
X142963031Y-110832686D01*
X142963400Y-110825872D01*
X142963400Y-110203315D01*
X142958925Y-110188076D01*
X142957535Y-110186871D01*
X142949852Y-110185200D01*
X140265516Y-110185200D01*
X140250277Y-110189675D01*
X140249072Y-110191065D01*
X140247401Y-110198748D01*
X140247401Y-110825869D01*
X139979400Y-110825869D01*
X139979400Y-109679085D01*
X145187400Y-109679085D01*
X145191875Y-109694324D01*
X145193265Y-109695529D01*
X145200948Y-109697200D01*
X147885284Y-109697200D01*
X147900523Y-109692725D01*
X147901728Y-109691335D01*
X147903399Y-109683652D01*
X147903399Y-109056531D01*
X147903029Y-109049710D01*
X147897505Y-108998848D01*
X147893879Y-108983596D01*
X147848724Y-108863146D01*
X147840186Y-108847551D01*
X147763685Y-108745476D01*
X147751124Y-108732915D01*
X147649049Y-108656414D01*
X147633454Y-108647876D01*
X147513006Y-108602722D01*
X147497751Y-108599095D01*
X147446886Y-108593569D01*
X147440072Y-108593200D01*
X147178246Y-108593200D01*
X147110125Y-108573198D01*
X147063632Y-108519542D01*
X147053528Y-108449268D01*
X147083022Y-108384688D01*
X147116675Y-108357269D01*
X147173676Y-108325347D01*
X147197724Y-108305347D01*
X147325313Y-108199231D01*
X147329745Y-108195545D01*
X147399571Y-108111589D01*
X147455853Y-108043918D01*
X147455855Y-108043915D01*
X147459547Y-108039476D01*
X147558734Y-107862365D01*
X147560590Y-107856898D01*
X147560592Y-107856893D01*
X147622128Y-107675614D01*
X147622129Y-107675609D01*
X147623984Y-107670145D01*
X147624812Y-107664436D01*
X147624813Y-107664431D01*
X147652579Y-107472927D01*
X147653112Y-107469253D01*
X147654632Y-107411200D01*
X147636058Y-107209059D01*
X147630417Y-107189059D01*
X147582525Y-107019246D01*
X147582524Y-107019244D01*
X147580957Y-107013687D01*
X147572930Y-106997408D01*
X147493731Y-106836809D01*
X147491176Y-106831628D01*
X147467667Y-106800145D01*
X147403878Y-106714722D01*
X147369720Y-106668979D01*
X147220658Y-106531187D01*
X147215775Y-106528106D01*
X147215771Y-106528103D01*
X147190509Y-106512164D01*
X158316548Y-106512164D01*
X158329824Y-106714722D01*
X158331245Y-106720318D01*
X158331246Y-106720323D01*
X158378371Y-106905874D01*
X158379792Y-106911469D01*
X158382209Y-106916712D01*
X158417695Y-106993687D01*
X158464777Y-107095816D01*
X158581933Y-107261589D01*
X158727338Y-107403235D01*
X158732142Y-107406445D01*
X158799800Y-107451653D01*
X158896120Y-107516012D01*
X158901423Y-107518290D01*
X158901426Y-107518292D01*
X159042624Y-107578955D01*
X159082628Y-107596142D01*
X159155644Y-107612664D01*
X159274979Y-107639667D01*
X159274984Y-107639668D01*
X159280616Y-107640942D01*
X159286387Y-107641169D01*
X159286389Y-107641169D01*
X159346156Y-107643517D01*
X159483453Y-107648912D01*
X159583899Y-107634348D01*
X159678631Y-107620613D01*
X159678636Y-107620612D01*
X159684345Y-107619784D01*
X159689809Y-107617929D01*
X159689814Y-107617928D01*
X159871093Y-107556392D01*
X159871098Y-107556390D01*
X159876565Y-107554534D01*
X160053676Y-107455347D01*
X160061004Y-107449253D01*
X160205313Y-107329231D01*
X160209745Y-107325545D01*
X160266863Y-107256869D01*
X160335853Y-107173918D01*
X160335855Y-107173915D01*
X160339547Y-107169476D01*
X160429694Y-107008507D01*
X160435910Y-106997408D01*
X160435911Y-106997406D01*
X160438734Y-106992365D01*
X160440590Y-106986898D01*
X160440592Y-106986893D01*
X160502128Y-106805614D01*
X160502129Y-106805609D01*
X160503984Y-106800145D01*
X160504812Y-106794436D01*
X160504813Y-106794431D01*
X160532579Y-106602927D01*
X160533112Y-106599253D01*
X160534632Y-106541200D01*
X160521921Y-106402867D01*
X160516587Y-106344813D01*
X160516586Y-106344810D01*
X160516058Y-106339059D01*
X160510340Y-106318785D01*
X160462525Y-106149246D01*
X160462524Y-106149244D01*
X160460957Y-106143687D01*
X160450378Y-106122233D01*
X160373731Y-105966809D01*
X160371176Y-105961628D01*
X160363197Y-105950942D01*
X160328040Y-105903862D01*
X160249720Y-105798979D01*
X160100658Y-105661187D01*
X160095775Y-105658106D01*
X160095771Y-105658103D01*
X159933864Y-105555948D01*
X159928981Y-105552867D01*
X159740439Y-105477646D01*
X159734779Y-105476520D01*
X159734775Y-105476519D01*
X159547013Y-105439171D01*
X159547010Y-105439171D01*
X159541346Y-105438044D01*
X159535571Y-105437968D01*
X159535567Y-105437968D01*
X159434193Y-105436641D01*
X159338371Y-105435387D01*
X159332674Y-105436366D01*
X159332673Y-105436366D01*
X159174275Y-105463584D01*
X159138310Y-105469764D01*
X158947863Y-105540024D01*
X158773410Y-105643812D01*
X158769070Y-105647618D01*
X158769066Y-105647621D01*
X158631605Y-105768172D01*
X158620792Y-105777655D01*
X158495120Y-105937069D01*
X158492431Y-105942180D01*
X158492429Y-105942183D01*
X158473105Y-105978912D01*
X158400603Y-106116715D01*
X158340407Y-106310578D01*
X158316548Y-106512164D01*
X147190509Y-106512164D01*
X147053864Y-106425948D01*
X147048981Y-106422867D01*
X146860439Y-106347646D01*
X146854779Y-106346520D01*
X146854775Y-106346519D01*
X146667013Y-106309171D01*
X146667010Y-106309171D01*
X146661346Y-106308044D01*
X146655571Y-106307968D01*
X146655567Y-106307968D01*
X146554193Y-106306641D01*
X146458371Y-106305387D01*
X146452674Y-106306366D01*
X146452673Y-106306366D01*
X146264007Y-106338785D01*
X146258310Y-106339764D01*
X146067863Y-106410024D01*
X145893410Y-106513812D01*
X145889070Y-106517618D01*
X145889066Y-106517621D01*
X145758425Y-106632191D01*
X145740792Y-106647655D01*
X145615120Y-106807069D01*
X145612431Y-106812180D01*
X145612429Y-106812183D01*
X145599473Y-106836809D01*
X145520603Y-106986715D01*
X145460407Y-107180578D01*
X145436548Y-107382164D01*
X145449824Y-107584722D01*
X145451245Y-107590318D01*
X145451246Y-107590323D01*
X145471519Y-107670145D01*
X145499792Y-107781469D01*
X145502209Y-107786712D01*
X145539410Y-107867408D01*
X145584777Y-107965816D01*
X145701933Y-108131589D01*
X145706075Y-108135624D01*
X145750839Y-108179231D01*
X145847338Y-108273235D01*
X145852142Y-108276445D01*
X145980836Y-108362436D01*
X146026364Y-108416913D01*
X146035212Y-108487356D01*
X146004570Y-108551400D01*
X145944168Y-108588712D01*
X145910834Y-108593201D01*
X145650731Y-108593201D01*
X145643910Y-108593571D01*
X145593048Y-108599095D01*
X145577796Y-108602721D01*
X145457346Y-108647876D01*
X145441751Y-108656414D01*
X145339676Y-108732915D01*
X145327115Y-108745476D01*
X145250614Y-108847551D01*
X145242076Y-108863146D01*
X145196922Y-108983594D01*
X145193295Y-108998849D01*
X145187769Y-109049714D01*
X145187400Y-109056528D01*
X145187400Y-109679085D01*
X139979400Y-109679085D01*
X139979400Y-109659085D01*
X140247400Y-109659085D01*
X140251875Y-109674324D01*
X140253265Y-109675529D01*
X140260948Y-109677200D01*
X142945284Y-109677200D01*
X142960523Y-109672725D01*
X142961728Y-109671335D01*
X142963399Y-109663652D01*
X142963399Y-109036531D01*
X142963029Y-109029710D01*
X142957505Y-108978848D01*
X142953879Y-108963596D01*
X142908724Y-108843146D01*
X142900186Y-108827551D01*
X142823685Y-108725476D01*
X142811124Y-108712915D01*
X142709049Y-108636414D01*
X142693454Y-108627876D01*
X142573006Y-108582722D01*
X142557751Y-108579095D01*
X142506886Y-108573569D01*
X142500072Y-108573200D01*
X142238246Y-108573200D01*
X142170125Y-108553198D01*
X142123632Y-108499542D01*
X142113528Y-108429268D01*
X142143022Y-108364688D01*
X142176675Y-108337269D01*
X142233676Y-108305347D01*
X142272287Y-108273235D01*
X142385313Y-108179231D01*
X142389745Y-108175545D01*
X142519547Y-108019476D01*
X142604709Y-107867408D01*
X142615910Y-107847408D01*
X142615911Y-107847406D01*
X142618734Y-107842365D01*
X142620590Y-107836898D01*
X142620592Y-107836893D01*
X142682128Y-107655614D01*
X142682129Y-107655609D01*
X142683984Y-107650145D01*
X142684812Y-107644436D01*
X142684813Y-107644431D01*
X142712579Y-107452927D01*
X142713112Y-107449253D01*
X142714632Y-107391200D01*
X142702289Y-107256869D01*
X142696587Y-107194813D01*
X142696586Y-107194810D01*
X142696058Y-107189059D01*
X142690535Y-107169476D01*
X142642525Y-106999246D01*
X142642524Y-106999244D01*
X142640957Y-106993687D01*
X142630378Y-106972233D01*
X142553731Y-106816809D01*
X142551176Y-106811628D01*
X142429720Y-106648979D01*
X142280658Y-106511187D01*
X142275775Y-106508106D01*
X142275771Y-106508103D01*
X142120324Y-106410024D01*
X142108981Y-106402867D01*
X141920439Y-106327646D01*
X141914779Y-106326520D01*
X141914775Y-106326519D01*
X141727013Y-106289171D01*
X141727010Y-106289171D01*
X141721346Y-106288044D01*
X141715571Y-106287968D01*
X141715567Y-106287968D01*
X141614193Y-106286641D01*
X141518371Y-106285387D01*
X141512674Y-106286366D01*
X141512673Y-106286366D01*
X141324007Y-106318785D01*
X141318310Y-106319764D01*
X141127863Y-106390024D01*
X140953410Y-106493812D01*
X140949070Y-106497618D01*
X140949066Y-106497621D01*
X140895151Y-106544904D01*
X140800792Y-106627655D01*
X140675120Y-106787069D01*
X140672431Y-106792180D01*
X140672429Y-106792183D01*
X140651676Y-106831628D01*
X140580603Y-106966715D01*
X140520407Y-107160578D01*
X140496548Y-107362164D01*
X140509824Y-107564722D01*
X140511245Y-107570318D01*
X140511246Y-107570323D01*
X140530995Y-107648083D01*
X140559792Y-107761469D01*
X140562209Y-107766712D01*
X140599410Y-107847408D01*
X140644777Y-107945816D01*
X140761933Y-108111589D01*
X140766075Y-108115624D01*
X140782464Y-108131589D01*
X140907338Y-108253235D01*
X140912142Y-108256445D01*
X141040836Y-108342436D01*
X141086364Y-108396913D01*
X141095212Y-108467356D01*
X141064570Y-108531400D01*
X141004168Y-108568712D01*
X140970834Y-108573201D01*
X140710731Y-108573201D01*
X140703910Y-108573571D01*
X140653048Y-108579095D01*
X140637796Y-108582721D01*
X140517346Y-108627876D01*
X140501751Y-108636414D01*
X140399676Y-108712915D01*
X140387115Y-108725476D01*
X140310614Y-108827551D01*
X140302076Y-108843146D01*
X140256922Y-108963594D01*
X140253295Y-108978849D01*
X140247769Y-109029714D01*
X140247400Y-109036528D01*
X140247400Y-109659085D01*
X139979400Y-109659085D01*
X139979400Y-104822164D01*
X140496548Y-104822164D01*
X140509824Y-105024722D01*
X140511245Y-105030318D01*
X140511246Y-105030323D01*
X140531519Y-105110145D01*
X140559792Y-105221469D01*
X140562209Y-105226712D01*
X140599410Y-105307408D01*
X140644777Y-105405816D01*
X140648110Y-105410532D01*
X140748702Y-105552867D01*
X140761933Y-105571589D01*
X140766075Y-105575624D01*
X140782464Y-105591589D01*
X140907338Y-105713235D01*
X141076120Y-105826012D01*
X141081423Y-105828290D01*
X141081426Y-105828292D01*
X141257321Y-105903862D01*
X141262628Y-105906142D01*
X141335644Y-105922664D01*
X141454979Y-105949667D01*
X141454984Y-105949668D01*
X141460616Y-105950942D01*
X141466387Y-105951169D01*
X141466389Y-105951169D01*
X141526156Y-105953517D01*
X141663453Y-105958912D01*
X141778831Y-105942183D01*
X141858631Y-105930613D01*
X141858636Y-105930612D01*
X141864345Y-105929784D01*
X141869809Y-105927929D01*
X141869814Y-105927928D01*
X142051093Y-105866392D01*
X142051098Y-105866390D01*
X142056565Y-105864534D01*
X142089639Y-105846012D01*
X142173622Y-105798979D01*
X142233676Y-105765347D01*
X142253618Y-105748762D01*
X142385313Y-105639231D01*
X142389745Y-105635545D01*
X142466734Y-105542976D01*
X142515853Y-105483918D01*
X142515855Y-105483915D01*
X142519547Y-105479476D01*
X142604709Y-105327408D01*
X142615910Y-105307408D01*
X142615911Y-105307406D01*
X142618734Y-105302365D01*
X142620590Y-105296898D01*
X142620592Y-105296893D01*
X142682128Y-105115614D01*
X142682129Y-105115609D01*
X142683984Y-105110145D01*
X142684812Y-105104436D01*
X142684813Y-105104431D01*
X142712579Y-104912927D01*
X142713112Y-104909253D01*
X142714632Y-104851200D01*
X142713802Y-104842164D01*
X145436548Y-104842164D01*
X145449824Y-105044722D01*
X145451245Y-105050318D01*
X145451246Y-105050323D01*
X145477129Y-105152236D01*
X145499792Y-105241469D01*
X145502209Y-105246712D01*
X145539410Y-105327408D01*
X145584777Y-105425816D01*
X145588110Y-105430532D01*
X145676745Y-105555948D01*
X145701933Y-105591589D01*
X145706075Y-105595624D01*
X145750839Y-105639231D01*
X145847338Y-105733235D01*
X146016120Y-105846012D01*
X146021423Y-105848290D01*
X146021426Y-105848292D01*
X146159044Y-105907417D01*
X146202628Y-105926142D01*
X146250919Y-105937069D01*
X146394979Y-105969667D01*
X146394984Y-105969668D01*
X146400616Y-105970942D01*
X146406387Y-105971169D01*
X146406389Y-105971169D01*
X146466156Y-105973517D01*
X146603453Y-105978912D01*
X146703899Y-105964348D01*
X146798631Y-105950613D01*
X146798636Y-105950612D01*
X146804345Y-105949784D01*
X146809809Y-105947929D01*
X146809814Y-105947928D01*
X146991093Y-105886392D01*
X146991098Y-105886390D01*
X146996565Y-105884534D01*
X147173676Y-105785347D01*
X147189988Y-105771781D01*
X147325313Y-105659231D01*
X147329745Y-105655545D01*
X147369431Y-105607828D01*
X147455853Y-105503918D01*
X147455855Y-105503915D01*
X147459547Y-105499476D01*
X147558734Y-105322365D01*
X147560590Y-105316898D01*
X147560592Y-105316893D01*
X147622128Y-105135614D01*
X147622129Y-105135609D01*
X147623984Y-105130145D01*
X147624812Y-105124436D01*
X147624813Y-105124431D01*
X147652579Y-104932927D01*
X147653112Y-104929253D01*
X147654632Y-104871200D01*
X147636058Y-104669059D01*
X147630417Y-104649059D01*
X147582525Y-104479246D01*
X147582524Y-104479244D01*
X147580957Y-104473687D01*
X147571095Y-104453687D01*
X147493731Y-104296809D01*
X147491176Y-104291628D01*
X147369720Y-104128979D01*
X147220658Y-103991187D01*
X147215775Y-103988106D01*
X147215771Y-103988103D01*
X147053864Y-103885948D01*
X147048981Y-103882867D01*
X146860439Y-103807646D01*
X146854779Y-103806520D01*
X146854775Y-103806519D01*
X146667013Y-103769171D01*
X146667010Y-103769171D01*
X146661346Y-103768044D01*
X146655571Y-103767968D01*
X146655567Y-103767968D01*
X146554193Y-103766641D01*
X146458371Y-103765387D01*
X146452674Y-103766366D01*
X146452673Y-103766366D01*
X146328832Y-103787646D01*
X146258310Y-103799764D01*
X146067863Y-103870024D01*
X145893410Y-103973812D01*
X145889070Y-103977618D01*
X145889066Y-103977621D01*
X145758425Y-104092191D01*
X145740792Y-104107655D01*
X145615120Y-104267069D01*
X145612431Y-104272180D01*
X145612429Y-104272183D01*
X145599473Y-104296809D01*
X145520603Y-104446715D01*
X145460407Y-104640578D01*
X145436548Y-104842164D01*
X142713802Y-104842164D01*
X142703197Y-104726751D01*
X142696587Y-104654813D01*
X142696586Y-104654810D01*
X142696058Y-104649059D01*
X142692110Y-104635061D01*
X142642525Y-104459246D01*
X142642524Y-104459244D01*
X142640957Y-104453687D01*
X142630378Y-104432233D01*
X142553731Y-104276809D01*
X142551176Y-104271628D01*
X142429720Y-104108979D01*
X142280658Y-103971187D01*
X142275775Y-103968106D01*
X142275771Y-103968103D01*
X142120324Y-103870024D01*
X142108981Y-103862867D01*
X141920439Y-103787646D01*
X141914779Y-103786520D01*
X141914775Y-103786519D01*
X141727013Y-103749171D01*
X141727010Y-103749171D01*
X141721346Y-103748044D01*
X141715571Y-103747968D01*
X141715567Y-103747968D01*
X141614193Y-103746641D01*
X141518371Y-103745387D01*
X141512674Y-103746366D01*
X141512673Y-103746366D01*
X141379957Y-103769171D01*
X141318310Y-103779764D01*
X141127863Y-103850024D01*
X140953410Y-103953812D01*
X140949070Y-103957618D01*
X140949066Y-103957621D01*
X140879885Y-104018292D01*
X140800792Y-104087655D01*
X140797217Y-104092190D01*
X140797216Y-104092191D01*
X140774810Y-104120613D01*
X140675120Y-104247069D01*
X140672431Y-104252180D01*
X140672429Y-104252183D01*
X140651676Y-104291628D01*
X140580603Y-104426715D01*
X140520407Y-104620578D01*
X140496548Y-104822164D01*
X139979400Y-104822164D01*
X139979400Y-102282164D01*
X140496548Y-102282164D01*
X140509824Y-102484722D01*
X140511245Y-102490318D01*
X140511246Y-102490323D01*
X140531519Y-102570145D01*
X140559792Y-102681469D01*
X140562209Y-102686712D01*
X140599410Y-102767408D01*
X140644777Y-102865816D01*
X140761933Y-103031589D01*
X140766075Y-103035624D01*
X140782464Y-103051589D01*
X140907338Y-103173235D01*
X141076120Y-103286012D01*
X141081423Y-103288290D01*
X141081426Y-103288292D01*
X141257321Y-103363862D01*
X141262628Y-103366142D01*
X141335644Y-103382664D01*
X141454979Y-103409667D01*
X141454984Y-103409668D01*
X141460616Y-103410942D01*
X141466387Y-103411169D01*
X141466389Y-103411169D01*
X141526156Y-103413517D01*
X141663453Y-103418912D01*
X141763899Y-103404348D01*
X141858631Y-103390613D01*
X141858636Y-103390612D01*
X141864345Y-103389784D01*
X141869809Y-103387929D01*
X141869814Y-103387928D01*
X142051093Y-103326392D01*
X142051098Y-103326390D01*
X142056565Y-103324534D01*
X142089639Y-103306012D01*
X142197963Y-103245347D01*
X142233676Y-103225347D01*
X142246452Y-103214722D01*
X142385313Y-103099231D01*
X142389745Y-103095545D01*
X142459093Y-103012164D01*
X142515853Y-102943918D01*
X142515855Y-102943915D01*
X142519547Y-102939476D01*
X142604709Y-102787408D01*
X142615910Y-102767408D01*
X142615911Y-102767406D01*
X142618734Y-102762365D01*
X142620590Y-102756898D01*
X142620592Y-102756893D01*
X142682128Y-102575614D01*
X142682129Y-102575609D01*
X142683984Y-102570145D01*
X142684812Y-102564436D01*
X142684813Y-102564431D01*
X142712579Y-102372927D01*
X142713112Y-102369253D01*
X142714632Y-102311200D01*
X142713802Y-102302164D01*
X145436548Y-102302164D01*
X145449824Y-102504722D01*
X145451245Y-102510318D01*
X145451246Y-102510323D01*
X145478267Y-102616715D01*
X145499792Y-102701469D01*
X145502209Y-102706712D01*
X145539410Y-102787408D01*
X145584777Y-102885816D01*
X145588110Y-102890532D01*
X145697209Y-103044904D01*
X145701933Y-103051589D01*
X145706075Y-103055624D01*
X145750839Y-103099231D01*
X145847338Y-103193235D01*
X145852142Y-103196445D01*
X145879495Y-103214722D01*
X146016120Y-103306012D01*
X146021423Y-103308290D01*
X146021426Y-103308292D01*
X146159044Y-103367417D01*
X146202628Y-103386142D01*
X146275644Y-103402664D01*
X146394979Y-103429667D01*
X146394984Y-103429668D01*
X146400616Y-103430942D01*
X146406387Y-103431169D01*
X146406389Y-103431169D01*
X146466156Y-103433517D01*
X146603453Y-103438912D01*
X146703899Y-103424348D01*
X146798631Y-103410613D01*
X146798636Y-103410612D01*
X146804345Y-103409784D01*
X146809809Y-103407929D01*
X146809814Y-103407928D01*
X146991093Y-103346392D01*
X146991098Y-103346390D01*
X146996565Y-103344534D01*
X147173676Y-103245347D01*
X147197724Y-103225347D01*
X147325313Y-103119231D01*
X147329745Y-103115545D01*
X147388497Y-103044904D01*
X147415727Y-103012164D01*
X158316548Y-103012164D01*
X158329824Y-103214722D01*
X158331245Y-103220318D01*
X158331246Y-103220323D01*
X158352908Y-103305614D01*
X158379792Y-103411469D01*
X158382209Y-103416712D01*
X158419410Y-103497408D01*
X158464777Y-103595816D01*
X158468110Y-103600532D01*
X158572307Y-103747968D01*
X158581933Y-103761589D01*
X158586075Y-103765624D01*
X158610878Y-103789786D01*
X158727338Y-103903235D01*
X158896120Y-104016012D01*
X158901423Y-104018290D01*
X158901426Y-104018292D01*
X158990107Y-104056392D01*
X159082628Y-104096142D01*
X159139360Y-104108979D01*
X159274979Y-104139667D01*
X159274984Y-104139668D01*
X159280616Y-104140942D01*
X159286387Y-104141169D01*
X159286389Y-104141169D01*
X159346156Y-104143517D01*
X159483453Y-104148912D01*
X159588996Y-104133609D01*
X159678631Y-104120613D01*
X159678636Y-104120612D01*
X159684345Y-104119784D01*
X159689809Y-104117929D01*
X159689814Y-104117928D01*
X159871093Y-104056392D01*
X159871098Y-104056390D01*
X159876565Y-104054534D01*
X160053676Y-103955347D01*
X160116334Y-103903235D01*
X160205313Y-103829231D01*
X160209745Y-103825545D01*
X160274202Y-103748044D01*
X160335853Y-103673918D01*
X160335855Y-103673915D01*
X160339547Y-103669476D01*
X160438734Y-103492365D01*
X160440590Y-103486898D01*
X160440592Y-103486893D01*
X160502128Y-103305614D01*
X160502129Y-103305609D01*
X160503984Y-103300145D01*
X160504812Y-103294436D01*
X160504813Y-103294431D01*
X160532579Y-103102927D01*
X160533112Y-103099253D01*
X160534632Y-103041200D01*
X160520354Y-102885816D01*
X160516587Y-102844813D01*
X160516586Y-102844810D01*
X160516058Y-102839059D01*
X160514490Y-102833499D01*
X160462525Y-102649246D01*
X160462524Y-102649244D01*
X160460957Y-102643687D01*
X160450378Y-102622233D01*
X160373731Y-102466809D01*
X160371176Y-102461628D01*
X160249720Y-102298979D01*
X160100658Y-102161187D01*
X160095775Y-102158106D01*
X160095771Y-102158103D01*
X159933864Y-102055948D01*
X159928981Y-102052867D01*
X159740439Y-101977646D01*
X159734779Y-101976520D01*
X159734775Y-101976519D01*
X159547013Y-101939171D01*
X159547010Y-101939171D01*
X159541346Y-101938044D01*
X159535571Y-101937968D01*
X159535567Y-101937968D01*
X159434193Y-101936641D01*
X159338371Y-101935387D01*
X159332674Y-101936366D01*
X159332673Y-101936366D01*
X159315913Y-101939246D01*
X159138310Y-101969764D01*
X158947863Y-102040024D01*
X158773410Y-102143812D01*
X158769070Y-102147618D01*
X158769066Y-102147621D01*
X158749123Y-102165111D01*
X158620792Y-102277655D01*
X158495120Y-102437069D01*
X158492431Y-102442180D01*
X158492429Y-102442183D01*
X158462560Y-102498955D01*
X158400603Y-102616715D01*
X158340407Y-102810578D01*
X158316548Y-103012164D01*
X147415727Y-103012164D01*
X147455853Y-102963918D01*
X147455855Y-102963915D01*
X147459547Y-102959476D01*
X147558734Y-102782365D01*
X147560590Y-102776898D01*
X147560592Y-102776893D01*
X147622128Y-102595614D01*
X147622129Y-102595609D01*
X147623984Y-102590145D01*
X147624812Y-102584436D01*
X147624813Y-102584431D01*
X147643289Y-102457001D01*
X147653112Y-102389253D01*
X147654632Y-102331200D01*
X147636058Y-102129059D01*
X147630417Y-102109059D01*
X147582525Y-101939246D01*
X147582524Y-101939244D01*
X147580957Y-101933687D01*
X147571095Y-101913687D01*
X147493731Y-101756809D01*
X147491176Y-101751628D01*
X147369720Y-101588979D01*
X147220658Y-101451187D01*
X147215775Y-101448106D01*
X147215771Y-101448103D01*
X147053864Y-101345948D01*
X147048981Y-101342867D01*
X146860439Y-101267646D01*
X146854779Y-101266520D01*
X146854775Y-101266519D01*
X146667013Y-101229171D01*
X146667010Y-101229171D01*
X146661346Y-101228044D01*
X146655571Y-101227968D01*
X146655567Y-101227968D01*
X146554193Y-101226641D01*
X146458371Y-101225387D01*
X146452674Y-101226366D01*
X146452673Y-101226366D01*
X146328832Y-101247646D01*
X146258310Y-101259764D01*
X146067863Y-101330024D01*
X145893410Y-101433812D01*
X145889070Y-101437618D01*
X145889066Y-101437621D01*
X145758425Y-101552191D01*
X145740792Y-101567655D01*
X145615120Y-101727069D01*
X145612431Y-101732180D01*
X145612429Y-101732183D01*
X145599473Y-101756809D01*
X145520603Y-101906715D01*
X145460407Y-102100578D01*
X145436548Y-102302164D01*
X142713802Y-102302164D01*
X142703197Y-102186751D01*
X142696587Y-102114813D01*
X142696586Y-102114810D01*
X142696058Y-102109059D01*
X142692110Y-102095061D01*
X142642525Y-101919246D01*
X142642524Y-101919244D01*
X142640957Y-101913687D01*
X142630378Y-101892233D01*
X142553731Y-101736809D01*
X142551176Y-101731628D01*
X142429720Y-101568979D01*
X142280658Y-101431187D01*
X142275775Y-101428106D01*
X142275771Y-101428103D01*
X142120324Y-101330024D01*
X142108981Y-101322867D01*
X141920439Y-101247646D01*
X141914779Y-101246520D01*
X141914775Y-101246519D01*
X141727013Y-101209171D01*
X141727010Y-101209171D01*
X141721346Y-101208044D01*
X141715571Y-101207968D01*
X141715567Y-101207968D01*
X141614193Y-101206641D01*
X141518371Y-101205387D01*
X141512674Y-101206366D01*
X141512673Y-101206366D01*
X141379957Y-101229171D01*
X141318310Y-101239764D01*
X141127863Y-101310024D01*
X140953410Y-101413812D01*
X140949070Y-101417618D01*
X140949066Y-101417621D01*
X140805133Y-101543848D01*
X140800792Y-101547655D01*
X140675120Y-101707069D01*
X140672431Y-101712180D01*
X140672429Y-101712183D01*
X140651676Y-101751628D01*
X140580603Y-101886715D01*
X140520407Y-102080578D01*
X140496548Y-102282164D01*
X139979400Y-102282164D01*
X139979400Y-99742164D01*
X140496548Y-99742164D01*
X140509824Y-99944722D01*
X140511245Y-99950318D01*
X140511246Y-99950323D01*
X140532255Y-100033043D01*
X140559792Y-100141469D01*
X140562209Y-100146712D01*
X140599410Y-100227408D01*
X140644777Y-100325816D01*
X140761933Y-100491589D01*
X140766075Y-100495624D01*
X140782464Y-100511589D01*
X140907338Y-100633235D01*
X141076120Y-100746012D01*
X141081423Y-100748290D01*
X141081426Y-100748292D01*
X141257321Y-100823862D01*
X141262628Y-100826142D01*
X141335644Y-100842664D01*
X141454979Y-100869667D01*
X141454984Y-100869668D01*
X141460616Y-100870942D01*
X141466387Y-100871169D01*
X141466389Y-100871169D01*
X141526156Y-100873517D01*
X141663453Y-100878912D01*
X141763899Y-100864348D01*
X141858631Y-100850613D01*
X141858636Y-100850612D01*
X141864345Y-100849784D01*
X141869809Y-100847929D01*
X141869814Y-100847928D01*
X142051093Y-100786392D01*
X142051098Y-100786390D01*
X142056565Y-100784534D01*
X142089639Y-100766012D01*
X142197963Y-100705347D01*
X142233676Y-100685347D01*
X142272287Y-100653235D01*
X142385313Y-100559231D01*
X142389745Y-100555545D01*
X142519547Y-100399476D01*
X142604709Y-100247408D01*
X142615910Y-100227408D01*
X142615911Y-100227406D01*
X142618734Y-100222365D01*
X142620590Y-100216898D01*
X142620592Y-100216893D01*
X142682128Y-100035614D01*
X142682129Y-100035609D01*
X142683984Y-100030145D01*
X142684812Y-100024436D01*
X142684813Y-100024431D01*
X142712579Y-99832927D01*
X142713112Y-99829253D01*
X142714632Y-99771200D01*
X142713802Y-99762164D01*
X145436548Y-99762164D01*
X145449824Y-99964722D01*
X145451245Y-99970318D01*
X145451246Y-99970323D01*
X145471519Y-100050145D01*
X145499792Y-100161469D01*
X145502209Y-100166712D01*
X145539410Y-100247408D01*
X145584777Y-100345816D01*
X145701933Y-100511589D01*
X145706075Y-100515624D01*
X145750839Y-100559231D01*
X145847338Y-100653235D01*
X146016120Y-100766012D01*
X146021423Y-100768290D01*
X146021426Y-100768292D01*
X146159044Y-100827417D01*
X146202628Y-100846142D01*
X146275644Y-100862664D01*
X146394979Y-100889667D01*
X146394984Y-100889668D01*
X146400616Y-100890942D01*
X146406387Y-100891169D01*
X146406389Y-100891169D01*
X146466156Y-100893517D01*
X146603453Y-100898912D01*
X146703899Y-100884348D01*
X146798631Y-100870613D01*
X146798636Y-100870612D01*
X146804345Y-100869784D01*
X146809809Y-100867929D01*
X146809814Y-100867928D01*
X146991093Y-100806392D01*
X146991098Y-100806390D01*
X146996565Y-100804534D01*
X147173676Y-100705347D01*
X147197724Y-100685347D01*
X147325313Y-100579231D01*
X147329745Y-100575545D01*
X147399571Y-100491589D01*
X147455853Y-100423918D01*
X147455855Y-100423915D01*
X147459547Y-100419476D01*
X147558734Y-100242365D01*
X147560590Y-100236898D01*
X147560592Y-100236893D01*
X147622128Y-100055614D01*
X147622129Y-100055609D01*
X147623984Y-100050145D01*
X147624812Y-100044436D01*
X147624813Y-100044431D01*
X147642391Y-99923196D01*
X147653112Y-99849253D01*
X147654632Y-99791200D01*
X147636058Y-99589059D01*
X147630417Y-99569059D01*
X147582525Y-99399246D01*
X147582524Y-99399244D01*
X147580957Y-99393687D01*
X147571095Y-99373687D01*
X147493731Y-99216809D01*
X147491176Y-99211628D01*
X147369720Y-99048979D01*
X147220658Y-98911187D01*
X147215775Y-98908106D01*
X147215771Y-98908103D01*
X147053864Y-98805948D01*
X147048981Y-98802867D01*
X146860439Y-98727646D01*
X146854779Y-98726520D01*
X146854775Y-98726519D01*
X146667013Y-98689171D01*
X146667010Y-98689171D01*
X146661346Y-98688044D01*
X146655571Y-98687968D01*
X146655567Y-98687968D01*
X146554193Y-98686641D01*
X146458371Y-98685387D01*
X146452674Y-98686366D01*
X146452673Y-98686366D01*
X146264007Y-98718785D01*
X146258310Y-98719764D01*
X146067863Y-98790024D01*
X145893410Y-98893812D01*
X145889070Y-98897618D01*
X145889066Y-98897621D01*
X145758425Y-99012191D01*
X145740792Y-99027655D01*
X145615120Y-99187069D01*
X145612431Y-99192180D01*
X145612429Y-99192183D01*
X145589323Y-99236100D01*
X145520603Y-99366715D01*
X145460407Y-99560578D01*
X145436548Y-99762164D01*
X142713802Y-99762164D01*
X142699620Y-99607828D01*
X142696587Y-99574813D01*
X142696586Y-99574810D01*
X142696058Y-99569059D01*
X142692110Y-99555061D01*
X142642525Y-99379246D01*
X142642524Y-99379244D01*
X142640957Y-99373687D01*
X142630378Y-99352233D01*
X142553731Y-99196809D01*
X142551176Y-99191628D01*
X142429720Y-99028979D01*
X142280658Y-98891187D01*
X142275775Y-98888106D01*
X142275771Y-98888103D01*
X142120324Y-98790024D01*
X142108981Y-98782867D01*
X141920439Y-98707646D01*
X141914779Y-98706520D01*
X141914775Y-98706519D01*
X141727013Y-98669171D01*
X141727010Y-98669171D01*
X141721346Y-98668044D01*
X141715571Y-98667968D01*
X141715567Y-98667968D01*
X141614193Y-98666641D01*
X141518371Y-98665387D01*
X141512674Y-98666366D01*
X141512673Y-98666366D01*
X141325532Y-98698523D01*
X141318310Y-98699764D01*
X141127863Y-98770024D01*
X140953410Y-98873812D01*
X140949070Y-98877618D01*
X140949066Y-98877621D01*
X140905737Y-98915620D01*
X140800792Y-99007655D01*
X140675120Y-99167069D01*
X140672431Y-99172180D01*
X140672429Y-99172183D01*
X140641021Y-99231880D01*
X140580603Y-99346715D01*
X140520407Y-99540578D01*
X140496548Y-99742164D01*
X139979400Y-99742164D01*
X139979400Y-98501200D01*
X158893139Y-98501200D01*
X158912954Y-98752975D01*
X158914108Y-98757782D01*
X158914109Y-98757788D01*
X158941993Y-98873929D01*
X158971912Y-98998551D01*
X158973805Y-99003122D01*
X158973806Y-99003124D01*
X159058255Y-99207001D01*
X159068560Y-99231880D01*
X159200519Y-99447217D01*
X159364539Y-99639261D01*
X159556583Y-99803281D01*
X159771920Y-99935240D01*
X159776490Y-99937133D01*
X159776494Y-99937135D01*
X159987246Y-100024431D01*
X160005249Y-100031888D01*
X160057494Y-100044431D01*
X160246012Y-100089691D01*
X160246018Y-100089692D01*
X160250825Y-100090846D01*
X160338853Y-100097774D01*
X160437107Y-100105507D01*
X160437116Y-100105507D01*
X160439564Y-100105700D01*
X160565636Y-100105700D01*
X160568084Y-100105507D01*
X160568093Y-100105507D01*
X160666347Y-100097774D01*
X160754375Y-100090846D01*
X160759182Y-100089692D01*
X160759188Y-100089691D01*
X160947706Y-100044431D01*
X160999951Y-100031888D01*
X161017954Y-100024431D01*
X161228706Y-99937135D01*
X161228710Y-99937133D01*
X161233280Y-99935240D01*
X161448617Y-99803281D01*
X161640661Y-99639261D01*
X161804681Y-99447217D01*
X161936640Y-99231880D01*
X161946946Y-99207001D01*
X162031394Y-99003124D01*
X162031395Y-99003122D01*
X162033288Y-98998551D01*
X162063207Y-98873929D01*
X162091091Y-98757788D01*
X162091092Y-98757782D01*
X162092246Y-98752975D01*
X162112061Y-98501200D01*
X162092246Y-98249425D01*
X162091092Y-98244618D01*
X162091091Y-98244612D01*
X162053780Y-98089202D01*
X162033288Y-98003849D01*
X162021597Y-97975624D01*
X161938535Y-97775094D01*
X161938533Y-97775090D01*
X161936640Y-97770520D01*
X161804681Y-97555183D01*
X161640661Y-97363139D01*
X161448617Y-97199119D01*
X161233280Y-97067160D01*
X161228710Y-97065267D01*
X161228706Y-97065265D01*
X161004524Y-96972406D01*
X161004522Y-96972405D01*
X160999951Y-96970512D01*
X160913735Y-96949813D01*
X160759188Y-96912709D01*
X160759182Y-96912708D01*
X160754375Y-96911554D01*
X160666347Y-96904626D01*
X160568093Y-96896893D01*
X160568084Y-96896893D01*
X160565636Y-96896700D01*
X160439564Y-96896700D01*
X160437116Y-96896893D01*
X160437107Y-96896893D01*
X160338853Y-96904626D01*
X160250825Y-96911554D01*
X160246018Y-96912708D01*
X160246012Y-96912709D01*
X160091465Y-96949813D01*
X160005249Y-96970512D01*
X160000678Y-96972405D01*
X160000676Y-96972406D01*
X159776494Y-97065265D01*
X159776490Y-97065267D01*
X159771920Y-97067160D01*
X159556583Y-97199119D01*
X159364539Y-97363139D01*
X159200519Y-97555183D01*
X159068560Y-97770520D01*
X159066667Y-97775090D01*
X159066665Y-97775094D01*
X158983603Y-97975624D01*
X158971912Y-98003849D01*
X158951420Y-98089202D01*
X158914109Y-98244612D01*
X158914108Y-98244618D01*
X158912954Y-98249425D01*
X158893139Y-98501200D01*
X139979400Y-98501200D01*
X139979400Y-97202164D01*
X140496548Y-97202164D01*
X140509824Y-97404722D01*
X140511245Y-97410318D01*
X140511246Y-97410323D01*
X140548037Y-97555183D01*
X140559792Y-97601469D01*
X140562209Y-97606712D01*
X140599410Y-97687408D01*
X140644777Y-97785816D01*
X140761933Y-97951589D01*
X140766075Y-97955624D01*
X140815580Y-98003849D01*
X140907338Y-98093235D01*
X141076120Y-98206012D01*
X141081423Y-98208290D01*
X141081426Y-98208292D01*
X141257321Y-98283862D01*
X141262628Y-98286142D01*
X141335644Y-98302664D01*
X141454979Y-98329667D01*
X141454984Y-98329668D01*
X141460616Y-98330942D01*
X141466387Y-98331169D01*
X141466389Y-98331169D01*
X141526156Y-98333517D01*
X141663453Y-98338912D01*
X141763899Y-98324348D01*
X141858631Y-98310613D01*
X141858636Y-98310612D01*
X141864345Y-98309784D01*
X141869809Y-98307929D01*
X141869814Y-98307928D01*
X142051093Y-98246392D01*
X142051098Y-98246390D01*
X142056565Y-98244534D01*
X142089639Y-98226012D01*
X142197963Y-98165347D01*
X142233676Y-98145347D01*
X142272287Y-98113235D01*
X142385313Y-98019231D01*
X142389745Y-98015545D01*
X142519547Y-97859476D01*
X142604709Y-97707408D01*
X142615910Y-97687408D01*
X142615911Y-97687406D01*
X142618734Y-97682365D01*
X142620590Y-97676898D01*
X142620592Y-97676893D01*
X142682128Y-97495614D01*
X142682129Y-97495609D01*
X142683984Y-97490145D01*
X142684812Y-97484436D01*
X142684813Y-97484431D01*
X142705982Y-97338430D01*
X142713112Y-97289253D01*
X142714632Y-97231200D01*
X142713802Y-97222164D01*
X145436548Y-97222164D01*
X145449824Y-97424722D01*
X145451245Y-97430318D01*
X145451246Y-97430323D01*
X145471519Y-97510145D01*
X145499792Y-97621469D01*
X145502209Y-97626712D01*
X145539410Y-97707408D01*
X145584777Y-97805816D01*
X145701933Y-97971589D01*
X145706075Y-97975624D01*
X145750839Y-98019231D01*
X145847338Y-98113235D01*
X146016120Y-98226012D01*
X146021423Y-98228290D01*
X146021426Y-98228292D01*
X146159044Y-98287417D01*
X146202628Y-98306142D01*
X146275644Y-98322664D01*
X146394979Y-98349667D01*
X146394984Y-98349668D01*
X146400616Y-98350942D01*
X146406387Y-98351169D01*
X146406389Y-98351169D01*
X146466156Y-98353517D01*
X146603453Y-98358912D01*
X146703899Y-98344348D01*
X146798631Y-98330613D01*
X146798636Y-98330612D01*
X146804345Y-98329784D01*
X146809809Y-98327929D01*
X146809814Y-98327928D01*
X146991093Y-98266392D01*
X146991098Y-98266390D01*
X146996565Y-98264534D01*
X147173676Y-98165347D01*
X147197724Y-98145347D01*
X147325313Y-98039231D01*
X147329745Y-98035545D01*
X147399571Y-97951589D01*
X147455853Y-97883918D01*
X147455855Y-97883915D01*
X147459547Y-97879476D01*
X147558734Y-97702365D01*
X147560590Y-97696898D01*
X147560592Y-97696893D01*
X147622128Y-97515614D01*
X147622129Y-97515609D01*
X147623984Y-97510145D01*
X147624812Y-97504436D01*
X147624813Y-97504431D01*
X147645765Y-97359926D01*
X147653112Y-97309253D01*
X147654632Y-97251200D01*
X147637547Y-97065265D01*
X147636587Y-97054813D01*
X147636586Y-97054810D01*
X147636058Y-97049059D01*
X147634490Y-97043499D01*
X147582525Y-96859246D01*
X147582524Y-96859244D01*
X147580957Y-96853687D01*
X147571095Y-96833687D01*
X147493731Y-96676809D01*
X147491176Y-96671628D01*
X147369720Y-96508979D01*
X147220658Y-96371187D01*
X147215775Y-96368106D01*
X147215771Y-96368103D01*
X147053864Y-96265948D01*
X147048981Y-96262867D01*
X146860439Y-96187646D01*
X146854779Y-96186520D01*
X146854775Y-96186519D01*
X146667013Y-96149171D01*
X146667010Y-96149171D01*
X146661346Y-96148044D01*
X146655571Y-96147968D01*
X146655567Y-96147968D01*
X146554193Y-96146641D01*
X146458371Y-96145387D01*
X146452674Y-96146366D01*
X146452673Y-96146366D01*
X146328832Y-96167646D01*
X146258310Y-96179764D01*
X146067863Y-96250024D01*
X145893410Y-96353812D01*
X145889070Y-96357618D01*
X145889066Y-96357621D01*
X145758425Y-96472191D01*
X145740792Y-96487655D01*
X145615120Y-96647069D01*
X145612431Y-96652180D01*
X145612429Y-96652183D01*
X145599473Y-96676809D01*
X145520603Y-96826715D01*
X145460407Y-97020578D01*
X145436548Y-97222164D01*
X142713802Y-97222164D01*
X142703197Y-97106751D01*
X142696587Y-97034813D01*
X142696586Y-97034810D01*
X142696058Y-97029059D01*
X142692110Y-97015061D01*
X142642525Y-96839246D01*
X142642524Y-96839244D01*
X142640957Y-96833687D01*
X142630378Y-96812233D01*
X142553731Y-96656809D01*
X142551176Y-96651628D01*
X142429720Y-96488979D01*
X142280658Y-96351187D01*
X142275775Y-96348106D01*
X142275771Y-96348103D01*
X142120324Y-96250024D01*
X142108981Y-96242867D01*
X141920439Y-96167646D01*
X141914779Y-96166520D01*
X141914775Y-96166519D01*
X141727013Y-96129171D01*
X141727010Y-96129171D01*
X141721346Y-96128044D01*
X141715571Y-96127968D01*
X141715567Y-96127968D01*
X141614193Y-96126641D01*
X141518371Y-96125387D01*
X141512674Y-96126366D01*
X141512673Y-96126366D01*
X141379957Y-96149171D01*
X141318310Y-96159764D01*
X141127863Y-96230024D01*
X140953410Y-96333812D01*
X140949070Y-96337618D01*
X140949066Y-96337621D01*
X140805133Y-96463848D01*
X140800792Y-96467655D01*
X140675120Y-96627069D01*
X140672431Y-96632180D01*
X140672429Y-96632183D01*
X140651676Y-96671628D01*
X140580603Y-96806715D01*
X140520407Y-97000578D01*
X140496548Y-97202164D01*
X139979400Y-97202164D01*
X139979400Y-92710000D01*
X141290939Y-92710000D01*
X141310754Y-92961775D01*
X141311908Y-92966582D01*
X141311909Y-92966588D01*
X141349013Y-93121135D01*
X141369712Y-93207351D01*
X141466360Y-93440680D01*
X141598319Y-93656017D01*
X141762339Y-93848061D01*
X141954383Y-94012081D01*
X142169720Y-94144040D01*
X142174290Y-94145933D01*
X142174294Y-94145935D01*
X142398476Y-94238794D01*
X142403049Y-94240688D01*
X142489265Y-94261387D01*
X142643812Y-94298491D01*
X142643818Y-94298492D01*
X142648625Y-94299646D01*
X142736653Y-94306574D01*
X142834907Y-94314307D01*
X142834916Y-94314307D01*
X142837364Y-94314500D01*
X142963436Y-94314500D01*
X142965884Y-94314307D01*
X142965893Y-94314307D01*
X143064147Y-94306574D01*
X143152175Y-94299646D01*
X143156982Y-94298492D01*
X143156988Y-94298491D01*
X143311535Y-94261387D01*
X143397751Y-94240688D01*
X143402324Y-94238794D01*
X143626506Y-94145935D01*
X143626510Y-94145933D01*
X143631080Y-94144040D01*
X143846417Y-94012081D01*
X144038461Y-93848061D01*
X144202481Y-93656017D01*
X144334440Y-93440680D01*
X144431088Y-93207351D01*
X144451787Y-93121135D01*
X144488891Y-92966588D01*
X144488892Y-92966582D01*
X144490046Y-92961775D01*
X144509861Y-92710000D01*
X170475539Y-92710000D01*
X170495354Y-92961775D01*
X170496508Y-92966582D01*
X170496509Y-92966588D01*
X170533613Y-93121135D01*
X170554312Y-93207351D01*
X170650960Y-93440680D01*
X170782919Y-93656017D01*
X170946939Y-93848061D01*
X171138983Y-94012081D01*
X171354320Y-94144040D01*
X171358890Y-94145933D01*
X171358894Y-94145935D01*
X171583076Y-94238794D01*
X171587649Y-94240688D01*
X171673865Y-94261387D01*
X171828412Y-94298491D01*
X171828418Y-94298492D01*
X171833225Y-94299646D01*
X171921253Y-94306574D01*
X172019507Y-94314307D01*
X172019516Y-94314307D01*
X172021964Y-94314500D01*
X172148036Y-94314500D01*
X172150484Y-94314307D01*
X172150493Y-94314307D01*
X172248747Y-94306574D01*
X172336775Y-94299646D01*
X172341582Y-94298492D01*
X172341588Y-94298491D01*
X172496135Y-94261387D01*
X172582351Y-94240688D01*
X172586924Y-94238794D01*
X172811106Y-94145935D01*
X172811110Y-94145933D01*
X172815680Y-94144040D01*
X173031017Y-94012081D01*
X173223061Y-93848061D01*
X173387081Y-93656017D01*
X173519040Y-93440680D01*
X173615688Y-93207351D01*
X173636387Y-93121135D01*
X173673491Y-92966588D01*
X173673492Y-92966582D01*
X173674646Y-92961775D01*
X173694461Y-92710000D01*
X173674646Y-92458225D01*
X173673492Y-92453418D01*
X173673491Y-92453412D01*
X173616843Y-92217461D01*
X173615688Y-92212649D01*
X173519040Y-91979320D01*
X173387081Y-91763983D01*
X173223061Y-91571939D01*
X173031017Y-91407919D01*
X172815680Y-91275960D01*
X172811110Y-91274067D01*
X172811106Y-91274065D01*
X172586924Y-91181206D01*
X172586922Y-91181205D01*
X172582351Y-91179312D01*
X172496135Y-91158613D01*
X172341588Y-91121509D01*
X172341582Y-91121508D01*
X172336775Y-91120354D01*
X172248747Y-91113426D01*
X172150493Y-91105693D01*
X172150484Y-91105693D01*
X172148036Y-91105500D01*
X172021964Y-91105500D01*
X172019516Y-91105693D01*
X172019507Y-91105693D01*
X171921253Y-91113426D01*
X171833225Y-91120354D01*
X171828418Y-91121508D01*
X171828412Y-91121509D01*
X171673865Y-91158613D01*
X171587649Y-91179312D01*
X171583078Y-91181205D01*
X171583076Y-91181206D01*
X171358894Y-91274065D01*
X171358890Y-91274067D01*
X171354320Y-91275960D01*
X171138983Y-91407919D01*
X170946939Y-91571939D01*
X170782919Y-91763983D01*
X170650960Y-91979320D01*
X170554312Y-92212649D01*
X170553157Y-92217461D01*
X170496509Y-92453412D01*
X170496508Y-92453418D01*
X170495354Y-92458225D01*
X170475539Y-92710000D01*
X144509861Y-92710000D01*
X144490046Y-92458225D01*
X144488892Y-92453418D01*
X144488891Y-92453412D01*
X144432243Y-92217461D01*
X144431088Y-92212649D01*
X144334440Y-91979320D01*
X144202481Y-91763983D01*
X144038461Y-91571939D01*
X143846417Y-91407919D01*
X143631080Y-91275960D01*
X143626510Y-91274067D01*
X143626506Y-91274065D01*
X143402324Y-91181206D01*
X143402322Y-91181205D01*
X143397751Y-91179312D01*
X143311535Y-91158613D01*
X143156988Y-91121509D01*
X143156982Y-91121508D01*
X143152175Y-91120354D01*
X143064147Y-91113426D01*
X142965893Y-91105693D01*
X142965884Y-91105693D01*
X142963436Y-91105500D01*
X142837364Y-91105500D01*
X142834916Y-91105693D01*
X142834907Y-91105693D01*
X142736653Y-91113426D01*
X142648625Y-91120354D01*
X142643818Y-91121508D01*
X142643812Y-91121509D01*
X142489265Y-91158613D01*
X142403049Y-91179312D01*
X142398478Y-91181205D01*
X142398476Y-91181206D01*
X142174294Y-91274065D01*
X142174290Y-91274067D01*
X142169720Y-91275960D01*
X141954383Y-91407919D01*
X141762339Y-91571939D01*
X141598319Y-91763983D01*
X141466360Y-91979320D01*
X141369712Y-92212649D01*
X141368557Y-92217461D01*
X141311909Y-92453412D01*
X141311908Y-92453418D01*
X141310754Y-92458225D01*
X141290939Y-92710000D01*
X139979400Y-92710000D01*
X139979400Y-90655599D01*
X139981821Y-90631018D01*
X139981955Y-90630344D01*
X139984376Y-90618174D01*
X139981955Y-90606002D01*
X139981955Y-90594475D01*
X139982434Y-90583494D01*
X139993874Y-90452728D01*
X139997687Y-90431104D01*
X140037820Y-90281326D01*
X140045331Y-90260690D01*
X140110860Y-90120164D01*
X140121842Y-90101144D01*
X140210779Y-89974128D01*
X140224897Y-89957303D01*
X140334529Y-89847671D01*
X140351354Y-89833553D01*
X140478370Y-89744616D01*
X140497390Y-89733634D01*
X140637916Y-89668105D01*
X140658552Y-89660594D01*
X140808330Y-89620461D01*
X140829951Y-89616649D01*
X140960719Y-89605208D01*
X140971701Y-89604729D01*
X140983228Y-89604729D01*
X140995400Y-89607150D01*
X141008247Y-89604595D01*
X141032825Y-89602174D01*
X173952575Y-89602174D01*
X173977153Y-89604595D01*
G37*
G04 #@! TD.AperFunction*
M02*
